NotoAmalgamated-DisplayLightCondensed.ufo
<glyph name="exclam" format="2">
  <advance width="190"/>
  <unicode hex="0021"/>
  <outline>
    <contour>
      <point x="108" y="170" type="line"/>
      <point x="112" y="714" type="line"/>
      <point x="81" y="714" type="line"/>
      <point x="83" y="170" type="line"/>
    </contour>
    <contour>
      <point x="70" y="30" type="curve" smooth="yes"/>
      <point x="70" y="9"/>
      <point x="75" y="-6"/>
      <point x="95" y="-6" type="curve" smooth="yes"/>
      <point x="113" y="-6"/>
      <point x="121" y="7"/>
      <point x="121" y="30" type="curve" smooth="yes"/>
      <point x="121" y="53"/>
      <point x="114" y="65"/>
      <point x="95" y="65" type="curve" smooth="yes"/>
      <point x="75" y="65"/>
      <point x="70" y="49"/>
    </contour>
  </outline>
</glyph>
<glyph name="exclam.serif" format="2">
  <advance width="216"/>
  <unicode hex="0021"/>
  <outline>
    <contour>
      <point x="92" y="192" type="line"/>
      <point x="108" y="192" type="line"/>
      <point x="113" y="714" type="line"/>
      <point x="85" y="714" type="line"/>
    </contour>
    <contour>
      <point x="98" y="-5" type="curve" smooth="yes"/>
      <point x="109" y="-5"/>
      <point x="118" y="4"/>
      <point x="118" y="35" type="curve" smooth="yes"/>
      <point x="118" y="65"/>
      <point x="109" y="73"/>
      <point x="98" y="73" type="curve" smooth="yes"/>
      <point x="88" y="73"/>
      <point x="78" y="65"/>
      <point x="78" y="35" type="curve" smooth="yes"/>
      <point x="78" y="4"/>
      <point x="88" y="-5"/>
    </contour>
  </outline>
</glyph>
<glyph name="quotedbl" format="2">
  <advance width="286"/>
  <unicode hex="0022"/>
  <outline>
    <contour>
      <point x="95" y="714" type="line"/>
      <point x="63" y="714" type="line"/>
      <point x="68" y="456" type="line"/>
      <point x="90" y="456" type="line"/>
    </contour>
    <contour>
      <point x="223" y="714" type="line"/>
      <point x="191" y="714" type="line"/>
      <point x="196" y="456" type="line"/>
      <point x="218" y="456" type="line"/>
    </contour>
  </outline>
</glyph>
<glyph name="numbersign" format="2">
  <advance width="411"/>
  <unicode hex="0023"/>
  <outline>
    <contour>
      <point x="305" y="479" type="line"/>
      <point x="393" y="479" type="line"/>
      <point x="393" y="503" type="line"/>
      <point x="307" y="503" type="line"/>
      <point x="328" y="714" type="line"/>
      <point x="305" y="714" type="line"/>
      <point x="283" y="503" type="line"/>
      <point x="157" y="503" type="line"/>
      <point x="180" y="714" type="line"/>
      <point x="156" y="714" type="line"/>
      <point x="132" y="503" type="line"/>
      <point x="39" y="503" type="line"/>
      <point x="39" y="479" type="line"/>
      <point x="129" y="479" type="line"/>
      <point x="105" y="259" type="line"/>
      <point x="17" y="259" type="line"/>
      <point x="17" y="234" type="line"/>
      <point x="103" y="234" type="line"/>
      <point x="77" y="0" type="line"/>
      <point x="101" y="0" type="line"/>
      <point x="128" y="234" type="line"/>
      <point x="255" y="234" type="line"/>
      <point x="227" y="0" type="line"/>
      <point x="253" y="0" type="line"/>
      <point x="280" y="234" type="line"/>
      <point x="368" y="234" type="line"/>
      <point x="368" y="259" type="line"/>
      <point x="282" y="259" type="line"/>
    </contour>
    <contour>
      <point x="130" y="259" type="line"/>
      <point x="154" y="479" type="line"/>
      <point x="281" y="479" type="line"/>
      <point x="258" y="259" type="line"/>
    </contour>
  </outline>
</glyph>
<glyph name="dollar" format="2">
  <advance width="377"/>
  <unicode hex="0024"/>
  <outline>
    <contour>
      <point x="178" y="21" type="curve"/>
      <point x="178" y="-58" type="line"/>
      <point x="202" y="-58" type="line"/>
      <point x="202" y="22" type="line"/>
      <point x="304" y="32"/>
      <point x="358" y="96"/>
      <point x="358" y="188" type="curve" smooth="yes"/>
      <point x="358" y="273"/>
      <point x="308" y="320"/>
      <point x="202" y="371" type="curve"/>
      <point x="202" y="681" type="line"/>
      <point x="244" y="681"/>
      <point x="282" y="668"/>
      <point x="317" y="647" type="curve"/>
      <point x="329" y="672" type="line"/>
      <point x="291" y="694"/>
      <point x="249" y="706"/>
      <point x="202" y="707" type="curve"/>
      <point x="202" y="760" type="line"/>
      <point x="178" y="760" type="line"/>
      <point x="178" y="706" type="line"/>
      <point x="96" y="700"/>
      <point x="36" y="636"/>
      <point x="36" y="538" type="curve" smooth="yes"/>
      <point x="36" y="444"/>
      <point x="91" y="398"/>
      <point x="178" y="354" type="curve"/>
      <point x="178" y="47" type="line"/>
      <point x="133" y="47"/>
      <point x="73" y="65"/>
      <point x="38" y="83" type="curve"/>
      <point x="38" y="54" type="line"/>
      <point x="71" y="38"/>
      <point x="126" y="23"/>
    </contour>
    <contour>
      <point x="202" y="48" type="curve"/>
      <point x="202" y="343" type="line"/>
      <point x="292" y="296"/>
      <point x="332" y="260"/>
      <point x="332" y="187" type="curve" smooth="yes"/>
      <point x="332" y="102"/>
      <point x="279" y="53"/>
    </contour>
    <contour>
      <point x="178" y="680" type="curve"/>
      <point x="178" y="383" type="line"/>
      <point x="106" y="421"/>
      <point x="63" y="457"/>
      <point x="63" y="537" type="curve" smooth="yes"/>
      <point x="63" y="623"/>
      <point x="113" y="674"/>
    </contour>
  </outline>
</glyph>
<glyph name="dollar.serif" format="2">
  <advance width="418"/>
  <unicode hex="0024"/>
  <outline>
    <contour>
      <point x="203" y="43" type="curve"/>
      <point x="203" y="-79" type="line"/>
      <point x="213" y="-79" type="line"/>
      <point x="213" y="43" type="line"/>
      <point x="302" y="50"/>
      <point x="354" y="98"/>
      <point x="354" y="195" type="curve" smooth="yes"/>
      <point x="354" y="255"/>
      <point x="334" y="321"/>
      <point x="213" y="383" type="curve"/>
      <point x="213" y="673" type="line"/>
      <point x="309" y="673"/>
      <point x="319" y="602"/>
      <point x="319" y="521" type="curve"/>
      <point x="332" y="521"/>
      <point x="345" y="535"/>
      <point x="345" y="570" type="curve" smooth="yes"/>
      <point x="345" y="632"/>
      <point x="306" y="683"/>
      <point x="213" y="683" type="curve"/>
      <point x="213" y="760" type="line"/>
      <point x="203" y="760" type="line"/>
      <point x="203" y="683" type="line"/>
      <point x="127" y="675"/>
      <point x="76" y="627"/>
      <point x="76" y="535" type="curve" smooth="yes"/>
      <point x="76" y="450"/>
      <point x="120" y="403"/>
      <point x="203" y="358" type="curve"/>
      <point x="203" y="53" type="line"/>
      <point x="123" y="53"/>
      <point x="79" y="94"/>
      <point x="79" y="215" type="curve"/>
      <point x="61" y="215"/>
      <point x="53" y="189"/>
      <point x="53" y="165" type="curve" smooth="yes"/>
      <point x="53" y="110"/>
      <point x="93" y="46"/>
    </contour>
    <contour>
      <point x="213" y="53" type="curve"/>
      <point x="213" y="352" type="line"/>
      <point x="296" y="309"/>
      <point x="326" y="263"/>
      <point x="326" y="191" type="curve" smooth="yes"/>
      <point x="326" y="108"/>
      <point x="288" y="57"/>
    </contour>
    <contour>
      <point x="203" y="673" type="curve"/>
      <point x="203" y="389" type="line"/>
      <point x="135" y="428"/>
      <point x="104" y="459"/>
      <point x="104" y="537" type="curve" smooth="yes"/>
      <point x="104" y="610"/>
      <point x="129" y="665"/>
    </contour>
  </outline>
</glyph>
<glyph name="ampersand" format="2">
  <advance width="375"/>
  <unicode hex="0026"/>
  <outline>
    <contour>
      <point x="172" y="724" type="curve" smooth="yes"/>
      <point x="118" y="724"/>
      <point x="84" y="674"/>
      <point x="84" y="587" type="curve" smooth="yes"/>
      <point x="84" y="516"/>
      <point x="106" y="458"/>
      <point x="141" y="389" type="curve"/>
      <point x="62" y="329"/>
      <point x="31" y="262"/>
      <point x="31" y="173" type="curve" smooth="yes"/>
      <point x="31" y="63"/>
      <point x="80" y="-10"/>
      <point x="160" y="-10" type="curve" smooth="yes"/>
      <point x="224" y="-10"/>
      <point x="271" y="38"/>
      <point x="300" y="94" type="curve"/>
      <point x="350" y="0" type="line"/>
      <point x="376" y="0" type="line"/>
      <point x="314" y="117" type="line"/>
      <point x="339" y="166"/>
      <point x="358" y="245"/>
      <point x="357" y="305" type="curve"/>
      <point x="333" y="305" type="line"/>
      <point x="335" y="249"/>
      <point x="318" y="180"/>
      <point x="299" y="141" type="curve"/>
      <point x="171" y="379" type="line"/>
      <point x="228" y="422"/>
      <point x="260" y="489"/>
      <point x="260" y="581" type="curve" smooth="yes"/>
      <point x="260" y="679"/>
      <point x="224" y="724"/>
    </contour>
    <contour>
      <point x="152" y="367" type="curve"/>
      <point x="286" y="118" type="line"/>
      <point x="256" y="58"/>
      <point x="215" y="15"/>
      <point x="161" y="15" type="curve" smooth="yes"/>
      <point x="95" y="15"/>
      <point x="57" y="75"/>
      <point x="57" y="173" type="curve" smooth="yes"/>
      <point x="57" y="248"/>
      <point x="79" y="311"/>
    </contour>
    <contour>
      <point x="172" y="700" type="curve" smooth="yes"/>
      <point x="216" y="700"/>
      <point x="236" y="655"/>
      <point x="236" y="581" type="curve" smooth="yes"/>
      <point x="236" y="510"/>
      <point x="218" y="443"/>
      <point x="161" y="402" type="curve"/>
      <point x="133" y="455"/>
      <point x="108" y="517"/>
      <point x="108" y="587" type="curve" smooth="yes"/>
      <point x="108" y="656"/>
      <point x="130" y="700"/>
    </contour>
  </outline>
</glyph>
<glyph name="ampersand.serif" format="2">
  <advance width="519"/>
  <unicode hex="0026"/>
  <outline>
    <contour>
      <point x="182" y="-10" type="curve" smooth="yes"/>
      <point x="269" y="-10"/>
      <point x="317" y="45"/>
      <point x="352" y="108" type="curve"/>
      <point x="431" y="0" type="line"/>
      <point x="515" y="0" type="line"/>
      <point x="515" y="10" type="line"/>
      <point x="507" y="10" type="line" smooth="yes"/>
      <point x="470" y="10"/>
      <point x="453" y="18"/>
      <point x="435" y="43" type="curve" smooth="yes"/>
      <point x="364" y="138" type="line"/>
      <point x="390" y="207"/>
      <point x="401" y="280"/>
      <point x="404" y="346" type="curve" smooth="yes"/>
      <point x="407" y="403"/>
      <point x="421" y="405"/>
      <point x="478" y="405" type="curve" smooth="yes"/>
      <point x="488" y="405" type="line"/>
      <point x="488" y="415" type="line"/>
      <point x="379" y="415" type="line"/>
      <point x="379" y="354" type="line" smooth="yes"/>
      <point x="379" y="291"/>
      <point x="370" y="220"/>
      <point x="349" y="161" type="curve"/>
      <point x="185" y="394" type="line"/>
      <point x="289" y="440"/>
      <point x="331" y="495"/>
      <point x="331" y="582" type="curve" smooth="yes"/>
      <point x="331" y="657"/>
      <point x="287" y="724"/>
      <point x="207" y="724" type="curve" smooth="yes"/>
      <point x="120" y="724"/>
      <point x="76" y="657"/>
      <point x="76" y="578" type="curve" smooth="yes"/>
      <point x="76" y="500"/>
      <point x="106" y="454"/>
      <point x="152" y="394" type="curve"/>
      <point x="67" y="354"/>
      <point x="21" y="295"/>
      <point x="21" y="196" type="curve" smooth="yes"/>
      <point x="21" y="80"/>
      <point x="78" y="-10"/>
    </contour>
    <contour>
      <point x="182" y="0" type="curve" smooth="yes"/>
      <point x="106" y="0"/>
      <point x="49" y="55"/>
      <point x="49" y="198" type="curve" smooth="yes"/>
      <point x="49" y="313"/>
      <point x="102" y="359"/>
      <point x="158" y="385" type="curve"/>
      <point x="337" y="131" type="line"/>
      <point x="303" y="46"/>
      <point x="254" y="0"/>
    </contour>
    <contour>
      <point x="179" y="402" type="curve"/>
      <point x="122" y="477"/>
      <point x="104" y="520"/>
      <point x="104" y="579" type="curve" smooth="yes"/>
      <point x="104" y="665"/>
      <point x="139" y="714"/>
      <point x="206" y="714" type="curve" smooth="yes"/>
      <point x="273" y="714"/>
      <point x="303" y="659"/>
      <point x="303" y="581" type="curve" smooth="yes"/>
      <point x="303" y="491"/>
      <point x="266" y="440"/>
    </contour>
  </outline>
</glyph>
<glyph name="quotesingle" format="2">
  <advance width="157"/>
  <unicode hex="0027"/>
  <outline>
    <contour>
      <point x="95" y="714" type="line"/>
      <point x="63" y="714" type="line"/>
      <point x="69" y="456" type="line"/>
      <point x="91" y="456" type="line"/>
    </contour>
  </outline>
</glyph>
<glyph name="parenleft" format="2">
  <advance width="256"/>
  <unicode hex="0028"/>
  <outline>
    <contour>
      <point x="49" y="278" type="curve" smooth="yes"/>
      <point x="49" y="95"/>
      <point x="106" y="-55"/>
      <point x="188" y="-158" type="curve"/>
      <point x="217" y="-158" type="line"/>
      <point x="136" y="-53"/>
      <point x="76" y="99"/>
      <point x="76" y="278" type="curve" smooth="yes"/>
      <point x="76" y="449"/>
      <point x="130" y="600"/>
      <point x="217" y="714" type="curve"/>
      <point x="189" y="714" type="line"/>
      <point x="97" y="599"/>
      <point x="49" y="444"/>
    </contour>
  </outline>
</glyph>
<glyph name="parenleft.serif" format="2">
  <advance width="221"/>
  <unicode hex="0028"/>
  <outline>
    <contour>
      <point x="197" y="-115" type="curve"/>
      <point x="197" y="-105" type="line"/>
      <point x="128" y="-71"/>
      <point x="71" y="78"/>
      <point x="71" y="315" type="curve" smooth="yes"/>
      <point x="71" y="552"/>
      <point x="128" y="701"/>
      <point x="197" y="735" type="curve"/>
      <point x="197" y="745" type="line"/>
      <point x="107" y="702"/>
      <point x="43" y="565"/>
      <point x="43" y="315" type="curve" smooth="yes"/>
      <point x="43" y="62"/>
      <point x="107" y="-72"/>
    </contour>
  </outline>
</glyph>
<glyph name="parenright" format="2">
  <advance width="256"/>
  <unicode hex="0029"/>
  <outline>
    <contour>
      <point x="207" y="283" type="curve" smooth="yes"/>
      <point x="207" y="450"/>
      <point x="153" y="604"/>
      <point x="68" y="714" type="curve"/>
      <point x="39" y="714" type="line"/>
      <point x="119" y="606"/>
      <point x="179" y="450"/>
      <point x="179" y="282" type="curve" smooth="yes"/>
      <point x="179" y="120"/>
      <point x="122" y="-55"/>
      <point x="39" y="-158" type="curve"/>
      <point x="68" y="-158" type="line"/>
      <point x="155" y="-55"/>
      <point x="207" y="119"/>
    </contour>
  </outline>
</glyph>
<glyph name="parenright.serif" format="2">
  <advance width="221"/>
  <unicode hex="0029"/>
  <outline>
    <contour>
      <point x="23" y="-105" type="curve"/>
      <point x="23" y="-115" type="line"/>
      <point x="113" y="-72"/>
      <point x="177" y="62"/>
      <point x="177" y="315" type="curve" smooth="yes"/>
      <point x="177" y="565"/>
      <point x="113" y="702"/>
      <point x="23" y="745" type="curve"/>
      <point x="23" y="735" type="line"/>
      <point x="92" y="701"/>
      <point x="149" y="552"/>
      <point x="149" y="315" type="curve" smooth="yes"/>
      <point x="149" y="78"/>
      <point x="92" y="-71"/>
    </contour>
  </outline>
</glyph>
<glyph name="asterisk" format="2">
  <advance width="329"/>
  <unicode hex="002A"/>
  <outline>
    <contour>
      <point x="177" y="760" type="line"/>
      <point x="156" y="760" type="line"/>
      <point x="159" y="634" type="line"/>
      <point x="50" y="677" type="line"/>
      <point x="43" y="660" type="line"/>
      <point x="153" y="618" type="line"/>
      <point x="70" y="516" type="line"/>
      <point x="87" y="504" type="line"/>
      <point x="166" y="608" type="line"/>
      <point x="242" y="504" type="line"/>
      <point x="258" y="517" type="line"/>
      <point x="179" y="618" type="line"/>
      <point x="285" y="660" type="line"/>
      <point x="279" y="678" type="line"/>
      <point x="173" y="634" type="line"/>
    </contour>
  </outline>
</glyph>
<glyph name="asterisk.serif" format="2">
  <advance width="343"/>
  <unicode hex="002A"/>
  <outline>
    <contour>
      <point x="155" y="382" type="line"/>
      <point x="185" y="382" type="line"/>
      <point x="177" y="559" type="line"/>
      <point x="287" y="484" type="line"/>
      <point x="303" y="510" type="line"/>
      <point x="180" y="571" type="line"/>
      <point x="303" y="633" type="line"/>
      <point x="287" y="660" type="line"/>
      <point x="177" y="583" type="line"/>
      <point x="185" y="760" type="line"/>
      <point x="155" y="760" type="line"/>
      <point x="162" y="584" type="line"/>
      <point x="52" y="662" type="line"/>
      <point x="35" y="634" type="line"/>
      <point x="158" y="571" type="line"/>
      <point x="35" y="509" type="line"/>
      <point x="52" y="482" type="line"/>
      <point x="162" y="558" type="line"/>
    </contour>
  </outline>
</glyph>
<glyph name="plus" format="2">
  <advance width="387"/>
  <unicode hex="002B"/>
  <outline>
    <contour>
      <point x="206" y="363" type="line"/>
      <point x="206" y="583" type="line"/>
      <point x="182" y="583" type="line"/>
      <point x="182" y="363" type="line"/>
      <point x="28" y="363" type="line"/>
      <point x="28" y="339" type="line"/>
      <point x="182" y="339" type="line"/>
      <point x="182" y="123" type="line"/>
      <point x="206" y="123" type="line"/>
      <point x="206" y="339" type="line"/>
      <point x="358" y="339" type="line"/>
      <point x="358" y="363" type="line"/>
    </contour>
  </outline>
</glyph>
<glyph name="plus.serif" format="2">
  <advance width="425"/>
  <unicode hex="002B"/>
  <outline>
    <contour>
      <point x="203" y="143" type="line"/>
      <point x="223" y="143" type="line"/>
      <point x="223" y="348" type="line"/>
      <point x="375" y="348" type="line"/>
      <point x="375" y="368" type="line"/>
      <point x="223" y="368" type="line"/>
      <point x="223" y="572" type="line"/>
      <point x="203" y="572" type="line"/>
      <point x="203" y="368" type="line"/>
      <point x="50" y="368" type="line"/>
      <point x="50" y="348" type="line"/>
      <point x="203" y="348" type="line"/>
    </contour>
  </outline>
</glyph>
<glyph name="comma" format="2">
  <advance width="176"/>
  <unicode hex="002C"/>
  <outline>
    <contour>
      <point x="118" y="88" type="curve"/>
      <point x="114" y="101" type="line"/>
      <point x="86" y="101" type="line"/>
      <point x="79" y="29"/>
      <point x="64" y="-38"/>
      <point x="37" y="-129" type="curve"/>
      <point x="59" y="-129" type="line"/>
      <point x="87" y="-58"/>
      <point x="107" y="26"/>
    </contour>
  </outline>
</glyph>
<glyph name="comma.serif" format="2">
  <advance width="157"/>
  <unicode hex="002C"/>
  <outline>
    <contour>
      <point x="20" y="-144" type="curve"/>
      <point x="20" y="-154" type="line"/>
      <point x="91" y="-124"/>
      <point x="118" y="-58"/>
      <point x="118" y="0" type="curve" smooth="yes"/>
      <point x="118" y="56"/>
      <point x="94" y="73"/>
      <point x="72" y="73" type="curve" smooth="yes"/>
      <point x="57" y="73"/>
      <point x="42" y="65"/>
      <point x="42" y="44" type="curve" smooth="yes"/>
      <point x="42" y="6"/>
      <point x="96" y="22"/>
      <point x="96" y="-32" type="curve" smooth="yes"/>
      <point x="96" y="-72"/>
      <point x="67" y="-123"/>
    </contour>
  </outline>
</glyph>
<glyph name="period" format="2">
  <advance width="176"/>
  <unicode hex="002E"/>
  <outline>
    <contour>
      <point x="63" y="30" type="curve" smooth="yes"/>
      <point x="63" y="9"/>
      <point x="68" y="-6"/>
      <point x="88" y="-6" type="curve" smooth="yes"/>
      <point x="106" y="-6"/>
      <point x="114" y="7"/>
      <point x="114" y="30" type="curve" smooth="yes"/>
      <point x="114" y="53"/>
      <point x="107" y="65"/>
      <point x="88" y="65" type="curve" smooth="yes"/>
      <point x="68" y="65"/>
      <point x="63" y="49"/>
    </contour>
  </outline>
</glyph>
<glyph name="period.serif" format="2">
  <advance width="157"/>
  <unicode hex="002E"/>
  <outline>
    <contour>
      <point x="70" y="-6" type="curve" smooth="yes"/>
      <point x="84" y="-6"/>
      <point x="90" y="6"/>
      <point x="90" y="34" type="curve" smooth="yes"/>
      <point x="90" y="61"/>
      <point x="84" y="72"/>
      <point x="70" y="72" type="curve" smooth="yes"/>
      <point x="56" y="72"/>
      <point x="50" y="61"/>
      <point x="50" y="34" type="curve" smooth="yes"/>
      <point x="50" y="6"/>
      <point x="56" y="-6"/>
    </contour>
  </outline>
</glyph>
<glyph name="zero" format="2">
  <advance width="377"/>
  <unicode hex="0030"/>
  <outline>
    <contour>
      <point x="334" y="358" type="curve" smooth="yes"/>
      <point x="334" y="570"/>
      <point x="300" y="724"/>
      <point x="192" y="724" type="curve" smooth="yes"/>
      <point x="83" y="724"/>
      <point x="42" y="573"/>
      <point x="42" y="355" type="curve" smooth="yes"/>
      <point x="42" y="139"/>
      <point x="84" y="-6"/>
      <point x="192" y="-6" type="curve" smooth="yes"/>
      <point x="300" y="-6"/>
      <point x="334" y="142"/>
    </contour>
    <contour>
      <point x="69" y="358" type="curve" smooth="yes"/>
      <point x="69" y="559"/>
      <point x="102" y="699"/>
      <point x="192" y="699" type="curve" smooth="yes"/>
      <point x="279" y="699"/>
      <point x="308" y="554"/>
      <point x="308" y="357" type="curve" smooth="yes"/>
      <point x="308" y="160"/>
      <point x="280" y="19"/>
      <point x="193" y="19" type="curve" smooth="yes"/>
      <point x="104" y="19"/>
      <point x="69" y="157"/>
    </contour>
  </outline>
</glyph>
<glyph name="zero.serif" format="2">
  <advance width="425"/>
  <unicode hex="0030"/>
  <outline>
    <contour>
      <point x="212" y="-10" type="curve" smooth="yes"/>
      <point x="322" y="-10"/>
      <point x="381" y="103"/>
      <point x="381" y="358" type="curve" smooth="yes"/>
      <point x="381" y="602"/>
      <point x="328" y="724"/>
      <point x="213" y="724" type="curve" smooth="yes"/>
      <point x="89" y="724"/>
      <point x="43" y="592"/>
      <point x="43" y="359" type="curve" smooth="yes"/>
      <point x="43" y="112"/>
      <point x="95" y="-10"/>
    </contour>
    <contour>
      <point x="212" y="0" type="curve" smooth="yes"/>
      <point x="112" y="0"/>
      <point x="71" y="126"/>
      <point x="71" y="358" type="curve" smooth="yes"/>
      <point x="71" y="590"/>
      <point x="112" y="714"/>
      <point x="213" y="714" type="curve" smooth="yes"/>
      <point x="312" y="714"/>
      <point x="353" y="590"/>
      <point x="353" y="358" type="curve" smooth="yes"/>
      <point x="353" y="126"/>
      <point x="312" y="0"/>
    </contour>
  </outline>
</glyph>
<glyph name="one" format="2">
  <advance width="377"/>
  <unicode hex="0031"/>
  <outline>
    <contour>
      <point x="229" y="0" type="line"/>
      <point x="229" y="714" type="line"/>
      <point x="206" y="714" type="line"/>
      <point x="70" y="588" type="line"/>
      <point x="87" y="569" type="line"/>
      <point x="163" y="639" type="line" smooth="yes"/>
      <point x="179" y="654"/>
      <point x="190" y="664"/>
      <point x="202" y="681" type="curve"/>
      <point x="201" y="637"/>
      <point x="201" y="608"/>
      <point x="201" y="566" type="curve" smooth="yes"/>
      <point x="201" y="0" type="line"/>
    </contour>
  </outline>
</glyph>
<glyph name="one.serif" format="2">
  <advance width="425"/>
  <unicode hex="0031"/>
  <outline>
    <contour>
      <point x="91" y="0" type="line"/>
      <point x="328" y="0" type="line"/>
      <point x="328" y="10" type="line"/>
      <point x="283" y="10" type="line" smooth="yes"/>
      <point x="235" y="10"/>
      <point x="227" y="20"/>
      <point x="227" y="95" type="curve" smooth="yes"/>
      <point x="227" y="718" type="line"/>
      <point x="207" y="718" type="line"/>
      <point x="182" y="682" type="line" smooth="yes"/>
      <point x="141" y="623"/>
      <point x="108" y="600"/>
      <point x="68" y="587" type="curve"/>
      <point x="68" y="577"/>
      <point x="75" y="571"/>
      <point x="89" y="571" type="curve" smooth="yes"/>
      <point x="118" y="571"/>
      <point x="145" y="599"/>
      <point x="199" y="688" type="curve"/>
      <point x="199" y="95" type="line" smooth="yes"/>
      <point x="199" y="20"/>
      <point x="191" y="10"/>
      <point x="143" y="10" type="curve" smooth="yes"/>
      <point x="91" y="10" type="line"/>
    </contour>
  </outline>
</glyph>
<glyph name="two" format="2">
  <advance width="377"/>
  <unicode hex="0032"/>
  <outline>
    <contour>
      <point x="334" y="0" type="line"/>
      <point x="334" y="24" type="line"/>
      <point x="69" y="24" type="line"/>
      <point x="69" y="27" type="line"/>
      <point x="198" y="220" type="line" smooth="yes"/>
      <point x="265" y="320"/>
      <point x="317" y="416"/>
      <point x="317" y="539" type="curve" smooth="yes"/>
      <point x="317" y="661"/>
      <point x="263" y="724"/>
      <point x="174" y="724" type="curve" smooth="yes"/>
      <point x="125" y="724"/>
      <point x="81" y="705"/>
      <point x="49" y="681" type="curve"/>
      <point x="64" y="660" type="line"/>
      <point x="93" y="682"/>
      <point x="132" y="699"/>
      <point x="174" y="699" type="curve" smooth="yes"/>
      <point x="243" y="699"/>
      <point x="290" y="652"/>
      <point x="290" y="538" type="curve" smooth="yes"/>
      <point x="290" y="426"/>
      <point x="243" y="334"/>
      <point x="177" y="234" type="curve" smooth="yes"/>
      <point x="35" y="19" type="line"/>
      <point x="35" y="0" type="line"/>
    </contour>
  </outline>
</glyph>
<glyph name="two.serif" format="2">
  <advance width="425"/>
  <unicode hex="0032"/>
  <outline>
    <contour>
      <point x="49" y="0" type="line"/>
      <point x="360" y="0" type="line"/>
      <point x="362" y="131" type="line"/>
      <point x="352" y="131" type="line"/>
      <point x="351" y="96" type="line" smooth="yes"/>
      <point x="350" y="45"/>
      <point x="344" y="28"/>
      <point x="291" y="28" type="curve" smooth="yes"/>
      <point x="65" y="28" type="line"/>
      <point x="156" y="167" type="line" smooth="yes"/>
      <point x="302" y="388"/>
      <point x="346" y="459"/>
      <point x="346" y="558" type="curve" smooth="yes"/>
      <point x="346" y="655"/>
      <point x="302" y="724"/>
      <point x="209" y="724" type="curve" smooth="yes"/>
      <point x="115" y="724"/>
      <point x="76" y="650"/>
      <point x="76" y="602" type="curve" smooth="yes"/>
      <point x="76" y="574"/>
      <point x="89" y="563"/>
      <point x="102" y="563" type="curve"/>
      <point x="102" y="654"/>
      <point x="129" y="714"/>
      <point x="209" y="714" type="curve" smooth="yes"/>
      <point x="294" y="714"/>
      <point x="318" y="646"/>
      <point x="318" y="553" type="curve" smooth="yes"/>
      <point x="318" y="469"/>
      <point x="283" y="398"/>
      <point x="171" y="219" type="curve" smooth="yes"/>
      <point x="49" y="22" type="line"/>
    </contour>
  </outline>
</glyph>
<glyph name="three" format="2">
  <advance width="377"/>
  <unicode hex="0033"/>
  <outline>
    <contour>
      <point x="326" y="554" type="curve" smooth="yes"/>
      <point x="326" y="660"/>
      <point x="264" y="724"/>
      <point x="171" y="724" type="curve" smooth="yes"/>
      <point x="112" y="724"/>
      <point x="69" y="698"/>
      <point x="36" y="666" type="curve"/>
      <point x="52" y="647" type="line"/>
      <point x="84" y="678"/>
      <point x="122" y="700"/>
      <point x="171" y="700" type="curve" smooth="yes"/>
      <point x="247" y="700"/>
      <point x="298" y="647"/>
      <point x="298" y="554" type="curve" smooth="yes"/>
      <point x="298" y="447"/>
      <point x="232" y="383"/>
      <point x="152" y="383" type="curve" smooth="yes"/>
      <point x="110" y="383" type="line"/>
      <point x="110" y="358" type="line"/>
      <point x="150" y="358" type="line" smooth="yes"/>
      <point x="232" y="358"/>
      <point x="306" y="313"/>
      <point x="306" y="184" type="curve" smooth="yes"/>
      <point x="306" y="77"/>
      <point x="255" y="14"/>
      <point x="164" y="14" type="curve" smooth="yes"/>
      <point x="119" y="14"/>
      <point x="72" y="30"/>
      <point x="40" y="46" type="curve"/>
      <point x="40" y="19" type="line"/>
      <point x="77" y="1"/>
      <point x="120" y="-10"/>
      <point x="164" y="-10" type="curve" smooth="yes"/>
      <point x="280" y="-10"/>
      <point x="335" y="69"/>
      <point x="335" y="183" type="curve" smooth="yes"/>
      <point x="335" y="292"/>
      <point x="285" y="351"/>
      <point x="213" y="370" type="curve"/>
      <point x="213" y="373" type="line"/>
      <point x="269" y="394"/>
      <point x="326" y="453"/>
    </contour>
  </outline>
</glyph>
<glyph name="three.serif" format="2">
  <advance width="425"/>
  <unicode hex="0033"/>
  <outline>
    <contour>
      <point x="202" y="-9" type="curve"/>
      <point x="277" y="-9"/>
      <point x="369" y="42"/>
      <point x="369" y="193" type="curve" smooth="yes"/>
      <point x="369" y="330"/>
      <point x="293" y="367"/>
      <point x="222" y="377" type="curve"/>
      <point x="302" y="392"/>
      <point x="350" y="469"/>
      <point x="350" y="565" type="curve" smooth="yes"/>
      <point x="350" y="663"/>
      <point x="301" y="724"/>
      <point x="219" y="724" type="curve" smooth="yes"/>
      <point x="138" y="724"/>
      <point x="86" y="665"/>
      <point x="86" y="597" type="curve" smooth="yes"/>
      <point x="86" y="560"/>
      <point x="102" y="553"/>
      <point x="112" y="553" type="curve"/>
      <point x="112" y="651"/>
      <point x="135" y="714"/>
      <point x="215" y="714" type="curve" smooth="yes"/>
      <point x="288" y="714"/>
      <point x="322" y="662"/>
      <point x="322" y="570" type="curve" smooth="yes"/>
      <point x="322" y="445"/>
      <point x="260" y="380"/>
      <point x="187" y="380" type="curve"/>
      <point x="169" y="380" type="line"/>
      <point x="169" y="370" type="line"/>
      <point x="189" y="370" type="line" smooth="yes"/>
      <point x="292" y="370"/>
      <point x="341" y="303"/>
      <point x="341" y="188" type="curve" smooth="yes"/>
      <point x="341" y="55"/>
      <point x="275" y="1"/>
      <point x="197" y="1" type="curve" smooth="yes"/>
      <point x="116" y="1"/>
      <point x="91" y="60"/>
      <point x="91" y="136" type="curve"/>
      <point x="78" y="136"/>
      <point x="65" y="123"/>
      <point x="65" y="95" type="curve" smooth="yes"/>
      <point x="65" y="43"/>
      <point x="111" y="-9"/>
    </contour>
  </outline>
</glyph>
<glyph name="four" format="2">
  <advance width="377"/>
  <unicode hex="0034"/>
  <outline>
    <contour>
      <point x="367" y="176" type="line"/>
      <point x="367" y="201" type="line"/>
      <point x="280" y="201" type="line"/>
      <point x="280" y="718" type="line"/>
      <point x="251" y="718" type="line"/>
      <point x="7" y="201" type="line"/>
      <point x="7" y="176" type="line"/>
      <point x="253" y="176" type="line"/>
      <point x="253" y="0" type="line"/>
      <point x="280" y="0" type="line"/>
      <point x="280" y="176" type="line"/>
    </contour>
    <contour>
      <point x="253" y="617" type="curve" smooth="yes"/>
      <point x="253" y="201" type="line"/>
      <point x="36" y="201" type="line"/>
      <point x="211" y="576" type="line" smooth="yes"/>
      <point x="225" y="607"/>
      <point x="241" y="642"/>
      <point x="253" y="677" type="curve"/>
      <point x="254" y="677" type="line"/>
      <point x="253" y="655"/>
      <point x="253" y="642"/>
    </contour>
  </outline>
</glyph>
<glyph name="four.serif" format="2">
  <advance width="425"/>
  <unicode hex="0034"/>
  <outline>
    <contour>
      <point x="193" y="0" type="line"/>
      <point x="381" y="0" type="line"/>
      <point x="381" y="10" type="line"/>
      <point x="368" y="10" type="line" smooth="yes"/>
      <point x="314" y="10"/>
      <point x="307" y="19"/>
      <point x="307" y="91" type="curve" smooth="yes"/>
      <point x="307" y="208" type="line"/>
      <point x="415" y="208" type="line"/>
      <point x="415" y="233" type="line"/>
      <point x="307" y="233" type="line"/>
      <point x="307" y="714" type="line"/>
      <point x="278" y="714" type="line"/>
      <point x="17" y="221" type="line"/>
      <point x="17" y="208" type="line"/>
      <point x="279" y="208" type="line"/>
      <point x="279" y="91" type="line" smooth="yes"/>
      <point x="279" y="19"/>
      <point x="271" y="10"/>
      <point x="218" y="10" type="curve" smooth="yes"/>
      <point x="193" y="10" type="line"/>
    </contour>
    <contour>
      <point x="34" y="233" type="line"/>
      <point x="198" y="541" type="line" smooth="yes"/>
      <point x="220" y="583"/>
      <point x="271" y="681"/>
      <point x="281" y="702" type="curve"/>
      <point x="279" y="638"/>
      <point x="279" y="542"/>
      <point x="279" y="445" type="curve" smooth="yes"/>
      <point x="279" y="233" type="line"/>
    </contour>
  </outline>
</glyph>
<glyph name="five" format="2">
  <advance width="377"/>
  <unicode hex="0035"/>
  <outline>
    <contour>
      <point x="178" y="425" type="curve" smooth="yes"/>
      <point x="138" y="425"/>
      <point x="103" y="415"/>
      <point x="80" y="407" type="curve"/>
      <point x="100" y="688" type="line"/>
      <point x="305" y="688" type="line"/>
      <point x="305" y="714" type="line"/>
      <point x="77" y="714" type="line"/>
      <point x="54" y="392" type="line"/>
      <point x="70" y="377" type="line"/>
      <point x="94" y="388"/>
      <point x="135" y="399"/>
      <point x="175" y="399" type="curve" smooth="yes"/>
      <point x="276" y="399"/>
      <point x="312" y="329"/>
      <point x="312" y="222" type="curve" smooth="yes"/>
      <point x="312" y="109"/>
      <point x="266" y="17"/>
      <point x="158" y="17" type="curve" smooth="yes"/>
      <point x="112" y="17"/>
      <point x="72" y="33"/>
      <point x="47" y="50" type="curve"/>
      <point x="47" y="19" type="line"/>
      <point x="73" y="3"/>
      <point x="114" y="-9"/>
      <point x="158" y="-9" type="curve" smooth="yes"/>
      <point x="284" y="-9"/>
      <point x="341" y="92"/>
      <point x="341" y="222" type="curve" smooth="yes"/>
      <point x="341" y="341"/>
      <point x="294" y="425"/>
    </contour>
  </outline>
</glyph>
<glyph name="five.serif" format="2">
  <advance width="425"/>
  <unicode hex="0035"/>
  <outline>
    <contour>
      <point x="186" y="-10" type="curve" smooth="yes"/>
      <point x="289" y="-10"/>
      <point x="352" y="63"/>
      <point x="352" y="209" type="curve" smooth="yes"/>
      <point x="352" y="357"/>
      <point x="287" y="423"/>
      <point x="197" y="423" type="curve" smooth="yes"/>
      <point x="153" y="423"/>
      <point x="115" y="406"/>
      <point x="93" y="382" type="curve"/>
      <point x="114" y="684" type="line"/>
      <point x="268" y="684" type="line" smooth="yes"/>
      <point x="312" y="684"/>
      <point x="319" y="678"/>
      <point x="321" y="626" type="curve" smooth="yes"/>
      <point x="322" y="601" type="line"/>
      <point x="332" y="601" type="line"/>
      <point x="329" y="712" type="line"/>
      <point x="101" y="712" type="line"/>
      <point x="76" y="361" type="line"/>
      <point x="87" y="357" type="line"/>
      <point x="103" y="380"/>
      <point x="138" y="408"/>
      <point x="192" y="408" type="curve" smooth="yes"/>
      <point x="274" y="408"/>
      <point x="324" y="349"/>
      <point x="324" y="209" type="curve" smooth="yes"/>
      <point x="324" y="64"/>
      <point x="271" y="0"/>
      <point x="185" y="0" type="curve" smooth="yes"/>
      <point x="108" y="0"/>
      <point x="78" y="52"/>
      <point x="78" y="126" type="curve"/>
      <point x="61" y="126"/>
      <point x="52" y="109"/>
      <point x="52" y="91" type="curve" smooth="yes"/>
      <point x="52" y="56"/>
      <point x="88" y="-10"/>
    </contour>
  </outline>
</glyph>
<glyph name="six" format="2">
  <advance width="377"/>
  <unicode hex="0036"/>
  <outline>
    <contour>
      <point x="44" y="307" type="curve" smooth="yes"/>
      <point x="44" y="91"/>
      <point x="86" y="-14"/>
      <point x="195" y="-14" type="curve" smooth="yes"/>
      <point x="286" y="-14"/>
      <point x="337" y="68"/>
      <point x="337" y="217" type="curve" smooth="yes"/>
      <point x="337" y="350"/>
      <point x="297" y="436"/>
      <point x="200" y="436" type="curve" smooth="yes"/>
      <point x="114" y="436"/>
      <point x="80" y="369"/>
      <point x="72" y="334" type="curve"/>
      <point x="71" y="334" type="line"/>
      <point x="71" y="567"/>
      <point x="130" y="694"/>
      <point x="238" y="694" type="curve" smooth="yes"/>
      <point x="262" y="694"/>
      <point x="289" y="688"/>
      <point x="308" y="681" type="curve"/>
      <point x="308" y="707" type="line"/>
      <point x="291" y="715"/>
      <point x="263" y="720"/>
      <point x="238" y="720" type="curve" smooth="yes"/>
      <point x="129" y="720"/>
      <point x="44" y="626"/>
    </contour>
    <contour>
      <point x="193" y="11" type="curve" smooth="yes"/>
      <point x="90" y="11"/>
      <point x="74" y="158"/>
      <point x="74" y="237" type="curve" smooth="yes"/>
      <point x="74" y="344"/>
      <point x="120" y="410"/>
      <point x="197" y="410" type="curve" smooth="yes"/>
      <point x="280" y="410"/>
      <point x="309" y="332"/>
      <point x="309" y="219" type="curve" smooth="yes"/>
      <point x="309" y="85"/>
      <point x="269" y="11"/>
    </contour>
  </outline>
</glyph>
<glyph name="six.serif" format="2">
  <advance width="425"/>
  <unicode hex="0036"/>
  <outline>
    <contour>
      <point x="222" y="-10" type="curve" smooth="yes"/>
      <point x="299" y="-10"/>
      <point x="373" y="42"/>
      <point x="373" y="212" type="curve" smooth="yes"/>
      <point x="373" y="355"/>
      <point x="321" y="429"/>
      <point x="230" y="429" type="curve" smooth="yes"/>
      <point x="155" y="429"/>
      <point x="112" y="379"/>
      <point x="86" y="344" type="curve"/>
      <point x="85" y="623"/>
      <point x="140" y="714"/>
      <point x="242" y="714" type="curve" smooth="yes"/>
      <point x="309" y="714"/>
      <point x="330" y="674"/>
      <point x="330" y="587" type="curve"/>
      <point x="341" y="587"/>
      <point x="355" y="592"/>
      <point x="355" y="626" type="curve" smooth="yes"/>
      <point x="355" y="682"/>
      <point x="317" y="724"/>
      <point x="239" y="724" type="curve" smooth="yes"/>
      <point x="128" y="724"/>
      <point x="58" y="640"/>
      <point x="58" y="351" type="curve" smooth="yes"/>
      <point x="58" y="91"/>
      <point x="115" y="-10"/>
    </contour>
    <contour>
      <point x="226" y="0" type="curve" smooth="yes"/>
      <point x="137" y="0"/>
      <point x="89" y="98"/>
      <point x="86" y="327" type="curve"/>
      <point x="111" y="365"/>
      <point x="155" y="419"/>
      <point x="228" y="419" type="curve" smooth="yes"/>
      <point x="307" y="419"/>
      <point x="345" y="357"/>
      <point x="345" y="218" type="curve" smooth="yes"/>
      <point x="345" y="62"/>
      <point x="297" y="0"/>
    </contour>
  </outline>
</glyph>
<glyph name="seven.serif" format="2">
  <advance width="425"/>
  <unicode hex="0037"/>
  <outline>
    <contour>
      <point x="148" y="0" type="line"/>
      <point x="174" y="0" type="line"/>
      <point x="378" y="690" type="line"/>
      <point x="378" y="712" type="line"/>
      <point x="51" y="712" type="line"/>
      <point x="47" y="568" type="line"/>
      <point x="57" y="568" type="line"/>
      <point x="60" y="628" type="line" smooth="yes"/>
      <point x="63" y="678"/>
      <point x="72" y="684"/>
      <point x="107" y="684" type="curve" smooth="yes"/>
      <point x="365" y="684" type="line"/>
    </contour>
  </outline>
</glyph>
<glyph name="eight" format="2">
  <advance width="377"/>
  <unicode hex="0038"/>
  <outline>
    <contour>
      <point x="192" y="723" type="curve" smooth="yes"/>
      <point x="101" y="723"/>
      <point x="49" y="659"/>
      <point x="49" y="567" type="curve" smooth="yes"/>
      <point x="49" y="482"/>
      <point x="97" y="426"/>
      <point x="165" y="379" type="curve"/>
      <point x="94" y="335"/>
      <point x="33" y="275"/>
      <point x="33" y="170" type="curve" smooth="yes"/>
      <point x="33" y="64"/>
      <point x="92" y="-10"/>
      <point x="189" y="-10" type="curve" smooth="yes"/>
      <point x="289" y="-10"/>
      <point x="345" y="70"/>
      <point x="345" y="172" type="curve" smooth="yes"/>
      <point x="345" y="268"/>
      <point x="284" y="327"/>
      <point x="210" y="378" type="curve"/>
      <point x="277" y="421"/>
      <point x="331" y="467"/>
      <point x="331" y="565" type="curve" smooth="yes"/>
      <point x="331" y="661"/>
      <point x="280" y="723"/>
    </contour>
    <contour>
      <point x="61" y="169" type="curve" smooth="yes"/>
      <point x="61" y="268"/>
      <point x="120" y="326"/>
      <point x="187" y="365" type="curve"/>
      <point x="201" y="356" type="line" smooth="yes"/>
      <point x="288" y="300"/>
      <point x="317" y="237"/>
      <point x="317" y="170" type="curve" smooth="yes"/>
      <point x="317" y="85"/>
      <point x="270" y="16"/>
      <point x="190" y="16" type="curve" smooth="yes"/>
      <point x="115" y="16"/>
      <point x="61" y="75"/>
    </contour>
    <contour>
      <point x="191" y="697" type="curve" smooth="yes"/>
      <point x="260" y="697"/>
      <point x="302" y="647"/>
      <point x="302" y="564" type="curve" smooth="yes"/>
      <point x="302" y="474"/>
      <point x="253" y="432"/>
      <point x="189" y="390" type="curve"/>
      <point x="119" y="435"/>
      <point x="78" y="490"/>
      <point x="78" y="566" type="curve" smooth="yes"/>
      <point x="78" y="645"/>
      <point x="120" y="697"/>
    </contour>
  </outline>
</glyph>
<glyph name="eight.serif" format="2">
  <advance width="425"/>
  <unicode hex="0038"/>
  <outline>
    <contour>
      <point x="210" y="-10" type="curve" smooth="yes"/>
      <point x="309" y="-10"/>
      <point x="377" y="53"/>
      <point x="377" y="172" type="curve" smooth="yes"/>
      <point x="377" y="282"/>
      <point x="329" y="333"/>
      <point x="240" y="382" type="curve"/>
      <point x="325" y="421"/>
      <point x="361" y="472"/>
      <point x="361" y="556" type="curve" smooth="yes"/>
      <point x="361" y="654"/>
      <point x="313" y="724"/>
      <point x="218" y="724" type="curve" smooth="yes"/>
      <point x="119" y="724"/>
      <point x="71" y="651"/>
      <point x="71" y="552" type="curve" smooth="yes"/>
      <point x="71" y="472"/>
      <point x="114" y="412"/>
      <point x="197" y="374" type="curve"/>
      <point x="101" y="332"/>
      <point x="51" y="272"/>
      <point x="51" y="171" type="curve" smooth="yes"/>
      <point x="51" y="58"/>
      <point x="108" y="-10"/>
    </contour>
    <contour>
      <point x="210" y="0" type="curve" smooth="yes"/>
      <point x="122" y="0"/>
      <point x="79" y="62"/>
      <point x="79" y="170" type="curve" smooth="yes"/>
      <point x="79" y="259"/>
      <point x="112" y="327"/>
      <point x="210" y="367" type="curve"/>
      <point x="317" y="316"/>
      <point x="349" y="261"/>
      <point x="349" y="170" type="curve" smooth="yes"/>
      <point x="349" y="55"/>
      <point x="294" y="0"/>
    </contour>
    <contour>
      <point x="229" y="388" type="curve"/>
      <point x="130" y="436"/>
      <point x="99" y="477"/>
      <point x="99" y="558" type="curve" smooth="yes"/>
      <point x="99" y="656"/>
      <point x="144" y="714"/>
      <point x="218" y="714" type="curve" smooth="yes"/>
      <point x="300" y="714"/>
      <point x="333" y="642"/>
      <point x="333" y="556" type="curve" smooth="yes"/>
      <point x="333" y="467"/>
      <point x="315" y="429"/>
    </contour>
  </outline>
</glyph>
<glyph name="nine" format="2">
  <advance width="377"/>
  <unicode hex="0039"/>
  <outline>
    <contour>
      <point x="333" y="403" type="curve" smooth="yes"/>
      <point x="333" y="619"/>
      <point x="291" y="724"/>
      <point x="182" y="724" type="curve" smooth="yes"/>
      <point x="91" y="724"/>
      <point x="40" y="642"/>
      <point x="40" y="493" type="curve" smooth="yes"/>
      <point x="40" y="360"/>
      <point x="80" y="274"/>
      <point x="177" y="274" type="curve" smooth="yes"/>
      <point x="262" y="274"/>
      <point x="296" y="341"/>
      <point x="305" y="376" type="curve"/>
      <point x="306" y="376" type="line"/>
      <point x="305" y="143"/>
      <point x="248" y="16"/>
      <point x="139" y="16" type="curve" smooth="yes"/>
      <point x="115" y="16"/>
      <point x="88" y="22"/>
      <point x="69" y="29" type="curve"/>
      <point x="69" y="3" type="line"/>
      <point x="86" y="-5"/>
      <point x="114" y="-10"/>
      <point x="139" y="-10" type="curve" smooth="yes"/>
      <point x="248" y="-10"/>
      <point x="333" y="84"/>
    </contour>
    <contour>
      <point x="184" y="699" type="curve" smooth="yes"/>
      <point x="287" y="699"/>
      <point x="303" y="552"/>
      <point x="303" y="473" type="curve" smooth="yes"/>
      <point x="303" y="366"/>
      <point x="257" y="300"/>
      <point x="180" y="300" type="curve" smooth="yes"/>
      <point x="97" y="300"/>
      <point x="68" y="378"/>
      <point x="68" y="491" type="curve" smooth="yes"/>
      <point x="68" y="625"/>
      <point x="108" y="699"/>
    </contour>
  </outline>
</glyph>
<glyph name="nine.serif" format="2">
  <advance width="425"/>
  <unicode hex="0039"/>
  <outline>
    <contour>
      <point x="180" y="-11" type="curve" smooth="yes"/>
      <point x="296" y="-11"/>
      <point x="366" y="90"/>
      <point x="366" y="368" type="curve" smooth="yes"/>
      <point x="366" y="637"/>
      <point x="301" y="724"/>
      <point x="200" y="724" type="curve" smooth="yes"/>
      <point x="100" y="724"/>
      <point x="51" y="638"/>
      <point x="51" y="496" type="curve" smooth="yes"/>
      <point x="51" y="348"/>
      <point x="104" y="285"/>
      <point x="197" y="285" type="curve" smooth="yes"/>
      <point x="277" y="285"/>
      <point x="318" y="332"/>
      <point x="338" y="364" type="curve"/>
      <point x="338" y="109"/>
      <point x="286" y="-1"/>
      <point x="182" y="-1" type="curve" smooth="yes"/>
      <point x="124" y="-1"/>
      <point x="98" y="33"/>
      <point x="90" y="82" type="curve"/>
      <point x="79" y="79"/>
      <point x="76" y="71"/>
      <point x="76" y="60" type="curve" smooth="yes"/>
      <point x="76" y="22"/>
      <point x="114" y="-11"/>
    </contour>
    <contour>
      <point x="199" y="295" type="curve" smooth="yes"/>
      <point x="115" y="295"/>
      <point x="79" y="352"/>
      <point x="79" y="492" type="curve" smooth="yes"/>
      <point x="79" y="634"/>
      <point x="116" y="714"/>
      <point x="195" y="714" type="curve" smooth="yes"/>
      <point x="287" y="714"/>
      <point x="338" y="603"/>
      <point x="338" y="382" type="curve"/>
      <point x="320" y="351"/>
      <point x="282" y="295"/>
    </contour>
  </outline>
</glyph>
<glyph name="colon" format="2">
  <advance width="176"/>
  <unicode hex="003A"/>
  <outline>
    <contour>
      <point x="63" y="31" type="curve" smooth="yes"/>
      <point x="63" y="12"/>
      <point x="65" y="-5"/>
      <point x="88" y="-5" type="curve" smooth="yes"/>
      <point x="109" y="-5"/>
      <point x="114" y="11"/>
      <point x="114" y="31" type="curve" smooth="yes"/>
      <point x="114" y="50"/>
      <point x="109" y="66"/>
      <point x="88" y="66" type="curve" smooth="yes"/>
      <point x="67" y="66"/>
      <point x="63" y="50"/>
    </contour>
    <contour>
      <point x="63" y="496" type="curve" smooth="yes"/>
      <point x="63" y="476"/>
      <point x="68" y="461"/>
      <point x="88" y="461" type="curve" smooth="yes"/>
      <point x="106" y="461"/>
      <point x="114" y="474"/>
      <point x="114" y="497" type="curve" smooth="yes"/>
      <point x="114" y="521"/>
      <point x="107" y="532"/>
      <point x="89" y="532" type="curve" smooth="yes"/>
      <point x="68" y="532"/>
      <point x="63" y="516"/>
    </contour>
  </outline>
</glyph>
<glyph name="colon.serif" format="2">
  <advance width="186"/>
  <unicode hex="003A"/>
  <outline>
    <contour>
      <point x="84" y="433" type="curve" smooth="yes"/>
      <point x="98" y="433"/>
      <point x="104" y="445"/>
      <point x="104" y="473" type="curve" smooth="yes"/>
      <point x="104" y="500"/>
      <point x="98" y="511"/>
      <point x="84" y="511" type="curve" smooth="yes"/>
      <point x="70" y="511"/>
      <point x="64" y="500"/>
      <point x="64" y="473" type="curve" smooth="yes"/>
      <point x="64" y="445"/>
      <point x="70" y="433"/>
    </contour>
    <contour>
      <point x="84" y="-5" type="curve" smooth="yes"/>
      <point x="98" y="-5"/>
      <point x="104" y="7"/>
      <point x="104" y="35" type="curve" smooth="yes"/>
      <point x="104" y="62"/>
      <point x="98" y="73"/>
      <point x="84" y="73" type="curve" smooth="yes"/>
      <point x="70" y="73"/>
      <point x="64" y="62"/>
      <point x="64" y="35" type="curve" smooth="yes"/>
      <point x="64" y="7"/>
      <point x="70" y="-5"/>
    </contour>
  </outline>
</glyph>
<glyph name="semicolon" format="2">
  <advance width="176"/>
  <unicode hex="003B"/>
  <outline>
    <contour>
      <point x="119" y="88" type="curve"/>
      <point x="115" y="101" type="line"/>
      <point x="86" y="101" type="line"/>
      <point x="77" y="22"/>
      <point x="70" y="-13"/>
      <point x="37" y="-129" type="curve"/>
      <point x="58" y="-129" type="line"/>
      <point x="86" y="-58"/>
      <point x="108" y="26"/>
    </contour>
    <contour>
      <point x="68" y="497" type="curve" smooth="yes"/>
      <point x="68" y="476"/>
      <point x="73" y="461"/>
      <point x="93" y="461" type="curve" smooth="yes"/>
      <point x="110" y="461"/>
      <point x="119" y="474"/>
      <point x="119" y="497" type="curve" smooth="yes"/>
      <point x="119" y="520"/>
      <point x="112" y="532"/>
      <point x="93" y="532" type="curve" smooth="yes"/>
      <point x="73" y="532"/>
      <point x="68" y="516"/>
    </contour>
  </outline>
</glyph>
<glyph name="semicolon.serif" format="2">
  <advance width="186"/>
  <unicode hex="003B"/>
  <outline>
    <contour>
      <point x="34" y="-144" type="curve"/>
      <point x="34" y="-154" type="line"/>
      <point x="105" y="-124"/>
      <point x="132" y="-58"/>
      <point x="132" y="0" type="curve" smooth="yes"/>
      <point x="132" y="56"/>
      <point x="108" y="73"/>
      <point x="86" y="73" type="curve" smooth="yes"/>
      <point x="71" y="73"/>
      <point x="56" y="65"/>
      <point x="56" y="44" type="curve" smooth="yes"/>
      <point x="56" y="6"/>
      <point x="110" y="22"/>
      <point x="110" y="-32" type="curve" smooth="yes"/>
      <point x="110" y="-72"/>
      <point x="81" y="-123"/>
    </contour>
    <contour>
      <point x="94" y="430" type="curve" smooth="yes"/>
      <point x="105" y="430"/>
      <point x="114" y="439"/>
      <point x="114" y="470" type="curve" smooth="yes"/>
      <point x="114" y="500"/>
      <point x="105" y="508"/>
      <point x="94" y="508" type="curve" smooth="yes"/>
      <point x="84" y="508"/>
      <point x="74" y="500"/>
      <point x="74" y="470" type="curve" smooth="yes"/>
      <point x="74" y="439"/>
      <point x="84" y="430"/>
    </contour>
  </outline>
</glyph>
<glyph name="less" format="2">
  <advance width="385"/>
  <unicode hex="003C"/>
  <outline>
    <contour>
      <point x="358" y="148" type="line"/>
      <point x="358" y="176" type="line"/>
      <point x="58" y="366" type="line"/>
      <point x="358" y="530" type="line"/>
      <point x="358" y="558" type="line"/>
      <point x="28" y="377" type="line"/>
      <point x="28" y="355" type="line"/>
    </contour>
  </outline>
</glyph>
<glyph name="less.serif" format="2">
  <advance width="425"/>
  <unicode hex="003C"/>
  <outline>
    <contour>
      <point x="371" y="119" type="line"/>
      <point x="371" y="143" type="line"/>
      <point x="72" y="357" type="line"/>
      <point x="371" y="571" type="line"/>
      <point x="371" y="595" type="line"/>
      <point x="54" y="367" type="line"/>
      <point x="54" y="347" type="line"/>
    </contour>
  </outline>
</glyph>
<glyph name="equal" format="2">
  <advance width="387"/>
  <unicode hex="003D"/>
  <outline>
    <contour>
      <point x="28" y="447" type="line"/>
      <point x="358" y="447" type="line"/>
      <point x="358" y="473" type="line"/>
      <point x="28" y="473" type="line"/>
    </contour>
    <contour>
      <point x="28" y="232" type="line"/>
      <point x="358" y="232" type="line"/>
      <point x="358" y="258" type="line"/>
      <point x="28" y="258" type="line"/>
    </contour>
  </outline>
</glyph>
<glyph name="greater" format="2">
  <advance width="385"/>
  <unicode hex="003E"/>
  <outline>
    <contour>
      <point x="27" y="176" type="line"/>
      <point x="27" y="148" type="line"/>
      <point x="357" y="355" type="line"/>
      <point x="357" y="377" type="line"/>
      <point x="27" y="558" type="line"/>
      <point x="27" y="530" type="line"/>
      <point x="330" y="365" type="line"/>
    </contour>
  </outline>
</glyph>
<glyph name="question" format="2">
  <advance width="256"/>
  <unicode hex="003F"/>
  <outline>
    <contour>
      <point x="83" y="193" type="curve" smooth="yes"/>
      <point x="83" y="170" type="line"/>
      <point x="108" y="170" type="line"/>
      <point x="108" y="192" type="line" smooth="yes"/>
      <point x="108" y="259"/>
      <point x="113" y="294"/>
      <point x="157" y="363" type="curve" smooth="yes"/>
      <point x="194" y="420"/>
      <point x="234" y="468"/>
      <point x="234" y="565" type="curve" smooth="yes"/>
      <point x="234" y="674"/>
      <point x="184" y="724"/>
      <point x="112" y="724" type="curve" smooth="yes"/>
      <point x="74" y="724"/>
      <point x="39" y="710"/>
      <point x="16" y="693" type="curve"/>
      <point x="29" y="672" type="line"/>
      <point x="52" y="689"/>
      <point x="81" y="699"/>
      <point x="111" y="699" type="curve" smooth="yes"/>
      <point x="172" y="699"/>
      <point x="206" y="657"/>
      <point x="206" y="567" type="curve" smooth="yes"/>
      <point x="206" y="483"/>
      <point x="177" y="437"/>
      <point x="135" y="373" type="curve" smooth="yes"/>
      <point x="95" y="312"/>
      <point x="83" y="274"/>
    </contour>
    <contour>
      <point x="70" y="29" type="curve" smooth="yes"/>
      <point x="70" y="9"/>
      <point x="75" y="-6"/>
      <point x="94" y="-6" type="curve" smooth="yes"/>
      <point x="113" y="-6"/>
      <point x="121" y="7"/>
      <point x="121" y="30" type="curve" smooth="yes"/>
      <point x="121" y="53"/>
      <point x="114" y="65"/>
      <point x="95" y="65" type="curve" smooth="yes"/>
      <point x="75" y="65"/>
      <point x="70" y="49"/>
    </contour>
  </outline>
</glyph>
<glyph name="question.serif" format="2">
  <advance width="352"/>
  <unicode hex="003F"/>
  <outline>
    <contour>
      <point x="148" y="328" type="curve"/>
      <point x="153" y="192" type="line"/>
      <point x="168" y="192" type="line"/>
      <point x="173" y="327" type="line"/>
      <point x="256" y="369"/>
      <point x="306" y="437"/>
      <point x="306" y="549" type="curve" smooth="yes"/>
      <point x="306" y="668"/>
      <point x="250" y="724"/>
      <point x="164" y="724" type="curve" smooth="yes"/>
      <point x="76" y="724"/>
      <point x="38" y="663"/>
      <point x="38" y="615" type="curve" smooth="yes"/>
      <point x="38" y="584"/>
      <point x="54" y="574"/>
      <point x="64" y="574" type="curve"/>
      <point x="64" y="656"/>
      <point x="86" y="714"/>
      <point x="164" y="714" type="curve" smooth="yes"/>
      <point x="241" y="714"/>
      <point x="278" y="660"/>
      <point x="278" y="551" type="curve" smooth="yes"/>
      <point x="278" y="447"/>
      <point x="245" y="363"/>
    </contour>
    <contour>
      <point x="163" y="-5" type="curve" smooth="yes"/>
      <point x="174" y="-5"/>
      <point x="183" y="4"/>
      <point x="183" y="35" type="curve" smooth="yes"/>
      <point x="183" y="65"/>
      <point x="174" y="73"/>
      <point x="163" y="73" type="curve" smooth="yes"/>
      <point x="153" y="73"/>
      <point x="143" y="65"/>
      <point x="143" y="35" type="curve" smooth="yes"/>
      <point x="143" y="4"/>
      <point x="153" y="-5"/>
    </contour>
  </outline>
</glyph>
<glyph name="at" format="2">
  <advance width="585"/>
  <unicode hex="0040"/>
  <outline>
    <contour>
      <point x="537" y="341" type="curve" smooth="yes"/>
      <point x="537" y="568"/>
      <point x="453" y="718"/>
      <point x="305" y="718" type="curve" smooth="yes"/>
      <point x="153" y="718"/>
      <point x="52" y="560"/>
      <point x="52" y="293" type="curve" smooth="yes"/>
      <point x="52" y="61"/>
      <point x="128" y="-92"/>
      <point x="284" y="-92" type="curve" smooth="yes"/>
      <point x="326" y="-92"/>
      <point x="366" y="-81"/>
      <point x="392" y="-63" type="curve"/>
      <point x="392" y="-36" type="line"/>
      <point x="368" y="-53"/>
      <point x="322" y="-66"/>
      <point x="282" y="-66" type="curve" smooth="yes"/>
      <point x="151" y="-66"/>
      <point x="79" y="69"/>
      <point x="79" y="292" type="curve" smooth="yes"/>
      <point x="79" y="537"/>
      <point x="165" y="693"/>
      <point x="304" y="693" type="curve" smooth="yes"/>
      <point x="432" y="693"/>
      <point x="510" y="562"/>
      <point x="510" y="341" type="curve" smooth="yes"/>
      <point x="510" y="196"/>
      <point x="477" y="138"/>
      <point x="430" y="138" type="curve" smooth="yes"/>
      <point x="393" y="138"/>
      <point x="373" y="177"/>
      <point x="373" y="239" type="curve" smooth="yes"/>
      <point x="373" y="258"/>
      <point x="375" y="293"/>
      <point x="376" y="313" type="curve" smooth="yes"/>
      <point x="384" y="499" type="line"/>
      <point x="371" y="504"/>
      <point x="343" y="513"/>
      <point x="317" y="513" type="curve" smooth="yes"/>
      <point x="243" y="513"/>
      <point x="191" y="435"/>
      <point x="191" y="288" type="curve" smooth="yes"/>
      <point x="191" y="169"/>
      <point x="225" y="112"/>
      <point x="277" y="112" type="curve" smooth="yes"/>
      <point x="313" y="112"/>
      <point x="342" y="140"/>
      <point x="355" y="219" type="curve"/>
      <point x="357" y="219" type="line"/>
      <point x="357" y="155"/>
      <point x="379" y="112"/>
      <point x="430" y="112" type="curve" smooth="yes"/>
      <point x="500" y="112"/>
      <point x="537" y="191"/>
    </contour>
    <contour>
      <point x="217" y="288" type="curve" smooth="yes"/>
      <point x="217" y="418"/>
      <point x="260" y="489"/>
      <point x="317" y="489" type="curve" smooth="yes"/>
      <point x="331" y="489"/>
      <point x="345" y="485"/>
      <point x="357" y="481" type="curve"/>
      <point x="349" y="325" type="line" smooth="yes"/>
      <point x="342" y="189"/>
      <point x="314" y="138"/>
      <point x="278" y="138" type="curve" smooth="yes"/>
      <point x="239" y="138"/>
      <point x="217" y="194"/>
    </contour>
  </outline>
</glyph>
<glyph name="A" format="2">
  <advance width="367"/>
  <unicode hex="0041"/>
  <anchor x="184" y="0" name="bottom"/>
  <anchor x="184" y="714" name="top"/>
  <anchor x="347" y="714" name="topright"/>
  <outline>
    <contour>
      <point x="341" y="0" type="line"/>
      <point x="367" y="0" type="line"/>
      <point x="203" y="714" type="line"/>
      <point x="165" y="714" type="line"/>
      <point x="0" y="0" type="line"/>
      <point x="27" y="0" type="line"/>
      <point x="92" y="281" type="line"/>
      <point x="276" y="281" type="line"/>
    </contour>
    <contour>
      <point x="202" y="612" type="curve" smooth="yes"/>
      <point x="270" y="306" type="line"/>
      <point x="98" y="306" type="line"/>
      <point x="166" y="612" type="line" smooth="yes"/>
      <point x="174" y="646"/>
      <point x="178" y="666"/>
      <point x="184" y="695" type="curve"/>
      <point x="190" y="666"/>
      <point x="195" y="645"/>
    </contour>
  </outline>
</glyph>
<glyph name="A.serif" format="2">
  <advance width="499"/>
  <unicode hex="0041"/>
  <anchor x="428" y="0" name="bottom"/>
  <anchor x="250" y="714" name="top"/>
  <anchor x="399" y="714" name="topright"/>
  <outline>
    <contour>
      <point x="-2" y="0" type="line"/>
      <point x="165" y="0" type="line"/>
      <point x="165" y="10" type="line"/>
      <point x="136" y="10" type="line" smooth="yes"/>
      <point x="93" y="10"/>
      <point x="83" y="18"/>
      <point x="83" y="36" type="curve" smooth="yes"/>
      <point x="83" y="51"/>
      <point x="94" y="93"/>
      <point x="101" y="120" type="curve" smooth="yes"/>
      <point x="137" y="259" type="line"/>
      <point x="356" y="259" type="line"/>
      <point x="398" y="101" type="line" smooth="yes"/>
      <point x="405" y="76"/>
      <point x="414" y="48"/>
      <point x="414" y="38" type="curve" smooth="yes"/>
      <point x="414" y="17"/>
      <point x="406" y="10"/>
      <point x="362" y="10" type="curve" smooth="yes"/>
      <point x="342" y="10" type="line"/>
      <point x="342" y="0" type="line"/>
      <point x="499" y="0" type="line"/>
      <point x="499" y="10" type="line"/>
      <point x="492" y="10" type="line" smooth="yes"/>
      <point x="458" y="10"/>
      <point x="450" y="15"/>
      <point x="442" y="45" type="curve" smooth="yes"/>
      <point x="259" y="714" type="line"/>
      <point x="244" y="714" type="line"/>
      <point x="84" y="94" type="line" smooth="yes"/>
      <point x="65" y="22"/>
      <point x="57" y="10"/>
      <point x="23" y="10" type="curve" smooth="yes"/>
      <point x="-2" y="10" type="line"/>
    </contour>
    <contour>
      <point x="140" y="269" type="line"/>
      <point x="213" y="553" type="line" smooth="yes"/>
      <point x="230" y="618"/>
      <point x="237" y="646"/>
      <point x="245" y="680" type="curve"/>
      <point x="256" y="633"/>
      <point x="268" y="587"/>
      <point x="293" y="493" type="curve" smooth="yes"/>
      <point x="353" y="269" type="line"/>
    </contour>
  </outline>
</glyph>
<glyph name="B" format="2">
  <advance width="419"/>
  <unicode hex="0042"/>
  <anchor x="210" y="0" name="bottom"/>
  <anchor x="210" y="714" name="top"/>
  <anchor x="399" y="714" name="topright"/>
  <outline>
    <contour>
      <point x="211" y="714" type="curve" smooth="yes"/>
      <point x="76" y="714" type="line"/>
      <point x="76" y="0" type="line"/>
      <point x="218" y="0" type="line" smooth="yes"/>
      <point x="323" y="0"/>
      <point x="381" y="75"/>
      <point x="381" y="197" type="curve" smooth="yes"/>
      <point x="381" y="293"/>
      <point x="346" y="356"/>
      <point x="267" y="376" type="curve"/>
      <point x="267" y="377" type="line"/>
      <point x="330" y="390"/>
      <point x="366" y="458"/>
      <point x="366" y="550" type="curve" smooth="yes"/>
      <point x="366" y="659"/>
      <point x="315" y="714"/>
    </contour>
    <contour>
      <point x="205" y="388" type="curve" smooth="yes"/>
      <point x="102" y="388" type="line"/>
      <point x="102" y="689" type="line"/>
      <point x="198" y="689" type="line" smooth="yes"/>
      <point x="304" y="689"/>
      <point x="339" y="644"/>
      <point x="339" y="550" type="curve" smooth="yes"/>
      <point x="339" y="441"/>
      <point x="293" y="388"/>
    </contour>
    <contour>
      <point x="102" y="363" type="line"/>
      <point x="208" y="363" type="line" smooth="yes"/>
      <point x="293" y="363"/>
      <point x="353" y="322"/>
      <point x="353" y="198" type="curve" smooth="yes"/>
      <point x="353" y="81"/>
      <point x="299" y="25"/>
      <point x="212" y="25" type="curve" smooth="yes"/>
      <point x="102" y="25" type="line"/>
    </contour>
  </outline>
</glyph>
<glyph name="B.serif" format="2">
  <advance width="474"/>
  <unicode hex="0042"/>
  <anchor x="237" y="0" name="bottom"/>
  <anchor x="237" y="714" name="top"/>
  <anchor x="454" y="714" name="topright"/>
  <outline>
    <contour>
      <point x="36" y="0" type="line"/>
      <point x="242" y="0" type="line" smooth="yes"/>
      <point x="359" y="0"/>
      <point x="414" y="62"/>
      <point x="414" y="189" type="curve" smooth="yes"/>
      <point x="414" y="319"/>
      <point x="362" y="369"/>
      <point x="280" y="377" type="curve"/>
      <point x="280" y="379" type="line"/>
      <point x="344" y="392"/>
      <point x="392" y="438"/>
      <point x="392" y="543" type="curve" smooth="yes"/>
      <point x="392" y="657"/>
      <point x="337" y="714"/>
      <point x="220" y="714" type="curve" smooth="yes"/>
      <point x="36" y="714" type="line"/>
      <point x="36" y="704" type="line"/>
      <point x="53" y="704" type="line" smooth="yes"/>
      <point x="103" y="704"/>
      <point x="109" y="694"/>
      <point x="109" y="617" type="curve" smooth="yes"/>
      <point x="109" y="100" type="line" smooth="yes"/>
      <point x="109" y="21"/>
      <point x="103" y="10"/>
      <point x="53" y="10" type="curve" smooth="yes"/>
      <point x="36" y="10" type="line"/>
    </contour>
    <contour>
      <point x="240" y="10" type="curve" smooth="yes"/>
      <point x="137" y="10" type="line"/>
      <point x="137" y="370" type="line"/>
      <point x="241" y="370" type="line" smooth="yes"/>
      <point x="354" y="370"/>
      <point x="387" y="304"/>
      <point x="387" y="192" type="curve" smooth="yes"/>
      <point x="387" y="65"/>
      <point x="350" y="10"/>
    </contour>
    <contour>
      <point x="219" y="380" type="curve" smooth="yes"/>
      <point x="137" y="380" type="line"/>
      <point x="137" y="704" type="line"/>
      <point x="224" y="704" type="line" smooth="yes"/>
      <point x="328" y="704"/>
      <point x="365" y="649"/>
      <point x="365" y="542" type="curve" smooth="yes"/>
      <point x="365" y="444"/>
      <point x="331" y="380"/>
    </contour>
  </outline>
</glyph>
<glyph name="C" format="2">
  <advance width="403"/>
  <unicode hex="0043"/>
  <anchor x="250" y="0" name="bottom"/>
  <anchor x="260" y="714" name="top"/>
  <anchor x="384" y="714" name="topright"/>
  <outline>
    <contour>
      <point x="276" y="699" type="curve" smooth="yes"/>
      <point x="303" y="699"/>
      <point x="336" y="693"/>
      <point x="367" y="673" type="curve"/>
      <point x="380" y="696" type="line"/>
      <point x="347" y="715"/>
      <point x="313" y="724"/>
      <point x="276" y="724" type="curve" smooth="yes"/>
      <point x="113" y="724"/>
      <point x="52" y="548"/>
      <point x="52" y="358" type="curve" smooth="yes"/>
      <point x="52" y="131"/>
      <point x="142" y="-10"/>
      <point x="280" y="-10" type="curve" smooth="yes"/>
      <point x="317" y="-10"/>
      <point x="354" y="1"/>
      <point x="378" y="16" type="curve"/>
      <point x="378" y="43" type="line"/>
      <point x="359" y="31"/>
      <point x="324" y="15"/>
      <point x="280" y="15" type="curve" smooth="yes"/>
      <point x="157" y="15"/>
      <point x="80" y="154"/>
      <point x="80" y="357" type="curve" smooth="yes"/>
      <point x="80" y="529"/>
      <point x="133" y="699"/>
    </contour>
  </outline>
</glyph>
<glyph name="C.serif" format="2">
  <advance width="427"/>
  <unicode hex="0043"/>
  <anchor x="251" y="-10" name="bottom"/>
  <anchor x="254" y="714" name="top"/>
  <anchor x="407" y="714" name="topright"/>
  <outline>
    <contour>
      <point x="254" y="-10" type="curve" smooth="yes"/>
      <point x="339" y="-10"/>
      <point x="399" y="47"/>
      <point x="399" y="87" type="curve" smooth="yes"/>
      <point x="399" y="98"/>
      <point x="394" y="107"/>
      <point x="381" y="112" type="curve"/>
      <point x="366" y="46"/>
      <point x="330" y="0"/>
      <point x="258" y="0" type="curve" smooth="yes"/>
      <point x="129" y="0"/>
      <point x="72" y="146"/>
      <point x="72" y="359" type="curve" smooth="yes"/>
      <point x="72" y="568"/>
      <point x="127" y="714"/>
      <point x="263" y="714" type="curve" smooth="yes"/>
      <point x="345" y="714"/>
      <point x="377" y="660"/>
      <point x="377" y="566" type="curve"/>
      <point x="390" y="566"/>
      <point x="403" y="582"/>
      <point x="403" y="611" type="curve" smooth="yes"/>
      <point x="403" y="671"/>
      <point x="347" y="724"/>
      <point x="260" y="724" type="curve" smooth="yes"/>
      <point x="117" y="724"/>
      <point x="44" y="583"/>
      <point x="44" y="360" type="curve" smooth="yes"/>
      <point x="44" y="136"/>
      <point x="117" y="-10"/>
    </contour>
  </outline>
</glyph>
<glyph name="D" format="2">
  <advance width="459"/>
  <unicode hex="0044"/>
  <anchor x="229" y="0" name="bottom"/>
  <anchor x="230" y="357" name="center"/>
  <anchor x="230" y="714" name="top"/>
  <anchor x="440" y="714" name="topright"/>
  <outline>
    <contour>
      <point x="407" y="364" type="curve" smooth="yes"/>
      <point x="407" y="596"/>
      <point x="340" y="714"/>
      <point x="185" y="714" type="curve" smooth="yes"/>
      <point x="76" y="714" type="line"/>
      <point x="76" y="0" type="line"/>
      <point x="184" y="0" type="line" smooth="yes"/>
      <point x="340" y="0"/>
      <point x="407" y="124"/>
    </contour>
    <contour>
      <point x="379" y="362" type="curve" smooth="yes"/>
      <point x="379" y="141"/>
      <point x="321" y="25"/>
      <point x="182" y="25" type="curve" smooth="yes"/>
      <point x="102" y="25" type="line"/>
      <point x="102" y="689" type="line"/>
      <point x="184" y="689" type="line" smooth="yes"/>
      <point x="329" y="689"/>
      <point x="379" y="570"/>
    </contour>
  </outline>
</glyph>
<glyph name="E.serif" format="2">
  <advance width="449"/>
  <unicode hex="0045"/>
  <anchor x="225" y="0" name="bottom"/>
  <anchor x="225" y="714" name="top"/>
  <anchor x="429" y="714" name="topright"/>
  <outline>
    <contour>
      <point x="36" y="0" type="line"/>
      <point x="406" y="0" type="line"/>
      <point x="410" y="164" type="line"/>
      <point x="400" y="164" type="line"/>
      <point x="396" y="79" type="line" smooth="yes"/>
      <point x="393" y="18"/>
      <point x="389" y="10"/>
      <point x="324" y="10" type="curve" smooth="yes"/>
      <point x="135" y="10" type="line"/>
      <point x="137" y="370" type="line"/>
      <point x="327" y="370" type="line"/>
      <point x="327" y="380" type="line"/>
      <point x="137" y="380" type="line"/>
      <point x="137" y="704" type="line"/>
      <point x="297" y="704" type="line" smooth="yes"/>
      <point x="365" y="704"/>
      <point x="370" y="697"/>
      <point x="373" y="615" type="curve" smooth="yes"/>
      <point x="375" y="550" type="line"/>
      <point x="385" y="550" type="line"/>
      <point x="380" y="714" type="line"/>
      <point x="36" y="714" type="line"/>
      <point x="36" y="704" type="line"/>
      <point x="53" y="704" type="line" smooth="yes"/>
      <point x="103" y="704"/>
      <point x="109" y="693"/>
      <point x="109" y="616" type="curve" smooth="yes"/>
      <point x="109" y="98" type="line" smooth="yes"/>
      <point x="109" y="21"/>
      <point x="103" y="10"/>
      <point x="53" y="10" type="curve" smooth="yes"/>
      <point x="36" y="10" type="line"/>
    </contour>
  </outline>
</glyph>
<glyph name="F" format="2">
  <advance width="343"/>
  <unicode hex="0046"/>
  <anchor x="171" y="0" name="bottom"/>
  <anchor x="201" y="714" name="top"/>
  <anchor x="323" y="714" name="topright"/>
  <outline>
    <contour>
      <point x="102" y="0" type="line"/>
      <point x="102" y="329" type="line"/>
      <point x="313" y="329" type="line"/>
      <point x="313" y="354" type="line"/>
      <point x="102" y="354" type="line"/>
      <point x="102" y="689" type="line"/>
      <point x="325" y="689" type="line"/>
      <point x="325" y="714" type="line"/>
      <point x="76" y="714" type="line"/>
      <point x="76" y="0" type="line"/>
    </contour>
  </outline>
</glyph>
<glyph name="F.serif" format="2">
  <advance width="424"/>
  <unicode hex="0046"/>
  <anchor x="123" y="0" name="bottom"/>
  <anchor x="212" y="714" name="top"/>
  <anchor x="404" y="714" name="topright"/>
  <outline>
    <contour>
      <point x="36" y="0" type="line"/>
      <point x="230" y="0" type="line"/>
      <point x="230" y="10" type="line"/>
      <point x="193" y="10" type="line" smooth="yes"/>
      <point x="143" y="10"/>
      <point x="137" y="21"/>
      <point x="137" y="98" type="curve" smooth="yes"/>
      <point x="137" y="346" type="line"/>
      <point x="328" y="346" type="line"/>
      <point x="328" y="356" type="line"/>
      <point x="137" y="356" type="line"/>
      <point x="137" y="704" type="line"/>
      <point x="312" y="704" type="line" smooth="yes"/>
      <point x="364" y="704"/>
      <point x="370" y="690"/>
      <point x="372" y="635" type="curve" smooth="yes"/>
      <point x="375" y="551" type="line"/>
      <point x="385" y="551" type="line"/>
      <point x="380" y="714" type="line"/>
      <point x="36" y="714" type="line"/>
      <point x="36" y="704" type="line"/>
      <point x="53" y="704" type="line" smooth="yes"/>
      <point x="103" y="704"/>
      <point x="109" y="693"/>
      <point x="109" y="616" type="curve" smooth="yes"/>
      <point x="109" y="98" type="line" smooth="yes"/>
      <point x="109" y="21"/>
      <point x="103" y="10"/>
      <point x="53" y="10" type="curve" smooth="yes"/>
      <point x="36" y="10" type="line"/>
    </contour>
  </outline>
</glyph>
<glyph name="G" format="2">
  <advance width="504"/>
  <unicode hex="0047"/>
  <anchor x="281" y="0" name="bottom"/>
  <anchor x="281" y="714" name="top"/>
  <anchor x="485" y="714" name="topright"/>
  <outline>
    <contour>
      <point x="289" y="351" type="line"/>
      <point x="289" y="326" type="line"/>
      <point x="425" y="326" type="line"/>
      <point x="425" y="40" type="line"/>
      <point x="389" y="26"/>
      <point x="343" y="15"/>
      <point x="299" y="15" type="curve" smooth="yes"/>
      <point x="145" y="15"/>
      <point x="79" y="157"/>
      <point x="79" y="354" type="curve" smooth="yes"/>
      <point x="79" y="556"/>
      <point x="148" y="699"/>
      <point x="304" y="699" type="curve" smooth="yes"/>
      <point x="344" y="699"/>
      <point x="386" y="690"/>
      <point x="430" y="658" type="curve"/>
      <point x="444" y="680" type="line"/>
      <point x="396" y="713"/>
      <point x="351" y="724"/>
      <point x="304" y="724" type="curve" smooth="yes"/>
      <point x="134" y="724"/>
      <point x="52" y="574"/>
      <point x="52" y="354" type="curve" smooth="yes"/>
      <point x="52" y="143"/>
      <point x="128" y="-10"/>
      <point x="298" y="-10" type="curve" smooth="yes"/>
      <point x="344" y="-10"/>
      <point x="403" y="1"/>
      <point x="450" y="24" type="curve"/>
      <point x="450" y="351" type="line"/>
    </contour>
  </outline>
</glyph>
<glyph name="G.serif" format="2">
  <advance width="500"/>
  <unicode hex="0047"/>
  <anchor x="284" y="-10" name="bottom"/>
  <anchor x="280" y="714" name="top"/>
  <anchor x="480" y="714" name="topright"/>
  <outline>
    <contour>
      <point x="288" y="-10" type="curve" smooth="yes"/>
      <point x="350" y="-10"/>
      <point x="393" y="1"/>
      <point x="436" y="27" type="curve"/>
      <point x="436" y="235" type="line" smooth="yes"/>
      <point x="436" y="305"/>
      <point x="444" y="313"/>
      <point x="489" y="313" type="curve" smooth="yes"/>
      <point x="493" y="313" type="line"/>
      <point x="493" y="323" type="line"/>
      <point x="335" y="323" type="line"/>
      <point x="335" y="313" type="line"/>
      <point x="346" y="313" type="line" smooth="yes"/>
      <point x="400" y="313"/>
      <point x="408" y="305"/>
      <point x="408" y="236" type="curve" smooth="yes"/>
      <point x="408" y="25" type="line"/>
      <point x="383" y="8"/>
      <point x="339" y="0"/>
      <point x="288" y="0" type="curve" smooth="yes"/>
      <point x="133" y="0"/>
      <point x="72" y="122"/>
      <point x="72" y="358" type="curve" smooth="yes"/>
      <point x="72" y="598"/>
      <point x="151" y="714"/>
      <point x="290" y="714" type="curve" smooth="yes"/>
      <point x="387" y="714"/>
      <point x="412" y="657"/>
      <point x="412" y="565" type="curve"/>
      <point x="425" y="565"/>
      <point x="438" y="579"/>
      <point x="438" y="609" type="curve" smooth="yes"/>
      <point x="438" y="661"/>
      <point x="397" y="724"/>
      <point x="288" y="724" type="curve" smooth="yes"/>
      <point x="140" y="724"/>
      <point x="44" y="609"/>
      <point x="44" y="358" type="curve" smooth="yes"/>
      <point x="44" y="121"/>
      <point x="120" y="-10"/>
    </contour>
  </outline>
</glyph>
<glyph name="I.serif" format="2">
  <advance width="253"/>
  <unicode hex="0049"/>
  <anchor x="127" y="0" name="bottom"/>
  <anchor x="127" y="714" name="top"/>
  <anchor x="233" y="714" name="topright"/>
  <outline>
    <contour>
      <point x="36" y="0" type="line"/>
      <point x="216" y="0" type="line"/>
      <point x="216" y="10" type="line"/>
      <point x="196" y="10" type="line" smooth="yes"/>
      <point x="146" y="10"/>
      <point x="140" y="21"/>
      <point x="140" y="98" type="curve" smooth="yes"/>
      <point x="140" y="616" type="line" smooth="yes"/>
      <point x="140" y="693"/>
      <point x="146" y="704"/>
      <point x="196" y="704" type="curve" smooth="yes"/>
      <point x="216" y="704" type="line"/>
      <point x="216" y="714" type="line"/>
      <point x="36" y="714" type="line"/>
      <point x="36" y="704" type="line"/>
      <point x="56" y="704" type="line" smooth="yes"/>
      <point x="106" y="704"/>
      <point x="112" y="693"/>
      <point x="112" y="616" type="curve" smooth="yes"/>
      <point x="112" y="98" type="line" smooth="yes"/>
      <point x="112" y="21"/>
      <point x="106" y="10"/>
      <point x="56" y="10" type="curve" smooth="yes"/>
      <point x="36" y="10" type="line"/>
    </contour>
  </outline>
</glyph>
<glyph name="J.serif" format="2">
  <advance width="257"/>
  <unicode hex="004A"/>
  <anchor x="87" y="-240" name="bottom"/>
  <anchor x="136" y="714" name="top"/>
  <anchor x="237" y="714" name="topright"/>
  <outline>
    <contour>
      <point x="8" y="-240" type="line"/>
      <point x="10" y="-240" type="line" smooth="yes"/>
      <point x="97" y="-240"/>
      <point x="148" y="-190"/>
      <point x="148" y="-15" type="curve" smooth="yes"/>
      <point x="148" y="616" type="line" smooth="yes"/>
      <point x="148" y="693"/>
      <point x="154" y="704"/>
      <point x="204" y="704" type="curve" smooth="yes"/>
      <point x="224" y="704" type="line"/>
      <point x="224" y="714" type="line"/>
      <point x="44" y="714" type="line"/>
      <point x="44" y="704" type="line"/>
      <point x="64" y="704" type="line" smooth="yes"/>
      <point x="114" y="704"/>
      <point x="120" y="693"/>
      <point x="120" y="616" type="curve" smooth="yes"/>
      <point x="120" y="-16" type="line" smooth="yes"/>
      <point x="120" y="-180"/>
      <point x="91" y="-230"/>
      <point x="9" y="-230" type="curve" smooth="yes"/>
      <point x="8" y="-230" type="line"/>
    </contour>
  </outline>
</glyph>
<glyph name="K" format="2">
  <advance width="370"/>
  <unicode hex="004B"/>
  <anchor x="202" y="0" name="bottom"/>
  <anchor x="201" y="714" name="top"/>
  <anchor x="350" y="714" name="topright"/>
  <outline>
    <contour>
      <point x="371" y="0" type="line"/>
      <point x="179" y="401" type="line"/>
      <point x="360" y="714" type="line"/>
      <point x="330" y="714" type="line"/>
      <point x="156" y="414" type="line" smooth="yes"/>
      <point x="130" y="368"/>
      <point x="110" y="336"/>
      <point x="102" y="318" type="curve"/>
      <point x="102" y="714" type="line"/>
      <point x="76" y="714" type="line"/>
      <point x="76" y="0" type="line"/>
      <point x="102" y="0" type="line"/>
      <point x="102" y="282" type="line"/>
      <point x="161" y="376" type="line"/>
      <point x="342" y="0" type="line"/>
    </contour>
  </outline>
</glyph>
<glyph name="K.serif" format="2">
  <advance width="503"/>
  <unicode hex="004B"/>
  <anchor x="262" y="0" name="bottom"/>
  <anchor x="262" y="714" name="top"/>
  <anchor x="483" y="714" name="topright"/>
  <outline>
    <contour>
      <point x="36" y="0" type="line"/>
      <point x="219" y="0" type="line"/>
      <point x="219" y="10" type="line"/>
      <point x="194" y="10" type="line" smooth="yes"/>
      <point x="143" y="10"/>
      <point x="138" y="21"/>
      <point x="138" y="102" type="curve" smooth="yes"/>
      <point x="138" y="243" type="line"/>
      <point x="235" y="388" type="line"/>
      <point x="406" y="89" type="line" smooth="yes"/>
      <point x="451" y="11"/>
      <point x="471" y="0"/>
      <point x="514" y="0" type="curve" smooth="yes"/>
      <point x="520" y="0" type="line"/>
      <point x="520" y="10" type="line"/>
      <point x="518" y="10" type="line" smooth="yes"/>
      <point x="496" y="10"/>
      <point x="481" y="16"/>
      <point x="455" y="61" type="curve" smooth="yes"/>
      <point x="252" y="414" type="line"/>
      <point x="376" y="599" type="line" smooth="yes"/>
      <point x="435" y="687"/>
      <point x="437" y="704"/>
      <point x="480" y="704" type="curve"/>
      <point x="480" y="714" type="line"/>
      <point x="361" y="714" type="line"/>
      <point x="361" y="704" type="line"/>
      <point x="404" y="704"/>
      <point x="417" y="700"/>
      <point x="417" y="690" type="curve" smooth="yes"/>
      <point x="417" y="677"/>
      <point x="404" y="660"/>
      <point x="362" y="597" type="curve" smooth="yes"/>
      <point x="138" y="262" type="line"/>
      <point x="138" y="617" type="line" smooth="yes"/>
      <point x="138" y="693"/>
      <point x="144" y="704"/>
      <point x="194" y="704" type="curve" smooth="yes"/>
      <point x="219" y="704" type="line"/>
      <point x="219" y="714" type="line"/>
      <point x="36" y="714" type="line"/>
      <point x="36" y="704" type="line"/>
      <point x="54" y="704" type="line" smooth="yes"/>
      <point x="104" y="704"/>
      <point x="110" y="693"/>
      <point x="110" y="617" type="curve" smooth="yes"/>
      <point x="110" y="98" type="line" smooth="yes"/>
      <point x="110" y="21"/>
      <point x="104" y="10"/>
      <point x="54" y="10" type="curve" smooth="yes"/>
      <point x="36" y="10" type="line"/>
    </contour>
  </outline>
</glyph>
<glyph name="L" format="2">
  <advance width="331"/>
  <unicode hex="004C"/>
  <anchor x="186" y="0" name="bottom"/>
  <anchor x="167" y="357" name="center"/>
  <anchor x="88" y="714" name="top"/>
  <anchor x="244" y="714" name="topright"/>
  <outline>
    <contour>
      <point x="76" y="0" type="line"/>
      <point x="313" y="0" type="line"/>
      <point x="313" y="25" type="line"/>
      <point x="102" y="25" type="line"/>
      <point x="102" y="714" type="line"/>
      <point x="76" y="714" type="line"/>
    </contour>
  </outline>
</glyph>
<glyph name="M" format="2">
  <advance width="635"/>
  <unicode hex="004D"/>
  <anchor x="317" y="0" name="bottom"/>
  <anchor x="317" y="714" name="top"/>
  <anchor x="615" y="714" name="topright"/>
  <outline>
    <contour>
      <point x="298" y="0" type="line"/>
      <point x="336" y="0" type="line"/>
      <point x="531" y="667" type="line"/>
      <point x="533" y="667" type="line"/>
      <point x="533" y="606"/>
      <point x="533" y="584"/>
      <point x="533" y="575" type="curve" smooth="yes"/>
      <point x="533" y="0" type="line"/>
      <point x="560" y="0" type="line"/>
      <point x="560" y="714" type="line"/>
      <point x="519" y="714" type="line"/>
      <point x="318" y="32" type="line"/>
      <point x="315" y="32" type="line"/>
      <point x="115" y="714" type="line"/>
      <point x="76" y="714" type="line"/>
      <point x="76" y="0" type="line"/>
      <point x="102" y="0" type="line"/>
      <point x="102" y="579" type="line" smooth="yes"/>
      <point x="102" y="588"/>
      <point x="102" y="607"/>
      <point x="100" y="668" type="curve"/>
      <point x="102" y="668" type="line"/>
    </contour>
  </outline>
</glyph>
<glyph name="M.serif" format="2">
  <advance width="701"/>
  <unicode hex="004D"/>
  <anchor x="355" y="0" name="bottom"/>
  <anchor x="351" y="714" name="top"/>
  <anchor x="681" y="714" name="topright"/>
  <outline>
    <contour>
      <point x="36" y="0" type="line"/>
      <point x="208" y="0" type="line"/>
      <point x="208" y="10" type="line"/>
      <point x="184" y="10" type="line" smooth="yes"/>
      <point x="134" y="10"/>
      <point x="128" y="21"/>
      <point x="128" y="98" type="curve" smooth="yes"/>
      <point x="128" y="676" type="line"/>
      <point x="347" y="0" type="line"/>
      <point x="360" y="0" type="line"/>
      <point x="563" y="682" type="line"/>
      <point x="563" y="98" type="line" smooth="yes"/>
      <point x="563" y="21"/>
      <point x="557" y="10"/>
      <point x="507" y="10" type="curve" smooth="yes"/>
      <point x="488" y="10" type="line"/>
      <point x="488" y="0" type="line"/>
      <point x="665" y="0" type="line"/>
      <point x="665" y="10" type="line"/>
      <point x="647" y="10" type="line" smooth="yes"/>
      <point x="597" y="10"/>
      <point x="591" y="21"/>
      <point x="591" y="98" type="curve" smooth="yes"/>
      <point x="591" y="616" type="line" smooth="yes"/>
      <point x="591" y="693"/>
      <point x="597" y="704"/>
      <point x="647" y="704" type="curve" smooth="yes"/>
      <point x="665" y="704" type="line"/>
      <point x="665" y="714" type="line"/>
      <point x="562" y="714" type="line"/>
      <point x="362" y="42" type="line"/>
      <point x="145" y="714" type="line"/>
      <point x="36" y="714" type="line"/>
      <point x="36" y="704" type="line"/>
      <point x="62" y="704" type="line" smooth="yes"/>
      <point x="112" y="704"/>
      <point x="118" y="693"/>
      <point x="118" y="616" type="curve" smooth="yes"/>
      <point x="118" y="98" type="line" smooth="yes"/>
      <point x="118" y="21"/>
      <point x="112" y="10"/>
      <point x="62" y="10" type="curve" smooth="yes"/>
      <point x="36" y="10" type="line"/>
    </contour>
  </outline>
</glyph>
<glyph name="N" format="2">
  <advance width="491"/>
  <unicode hex="004E"/>
  <anchor x="246" y="0" name="bottom"/>
  <anchor x="246" y="714" name="top"/>
  <anchor x="471" y="714" name="topright"/>
  <outline>
    <contour>
      <point x="416" y="0" type="line"/>
      <point x="416" y="714" type="line"/>
      <point x="390" y="714" type="line"/>
      <point x="390" y="181" type="line" smooth="yes"/>
      <point x="390" y="152"/>
      <point x="391" y="99"/>
      <point x="391" y="54" type="curve"/>
      <point x="389" y="54" type="line"/>
      <point x="108" y="714" type="line"/>
      <point x="76" y="714" type="line"/>
      <point x="76" y="0" type="line"/>
      <point x="102" y="0" type="line"/>
      <point x="102" y="548" type="line" smooth="yes"/>
      <point x="102" y="604"/>
      <point x="102" y="637"/>
      <point x="101" y="664" type="curve"/>
      <point x="103" y="664" type="line"/>
      <point x="385" y="0" type="line"/>
    </contour>
  </outline>
</glyph>
<glyph name="N.serif" format="2">
  <advance width="559"/>
  <unicode hex="004E"/>
  <anchor x="280" y="0" name="bottom"/>
  <anchor x="280" y="714" name="top"/>
  <anchor x="539" y="714" name="topright"/>
  <outline>
    <contour>
      <point x="36" y="0" type="line"/>
      <point x="204" y="0" type="line"/>
      <point x="204" y="10" type="line"/>
      <point x="176" y="10" type="line" smooth="yes"/>
      <point x="126" y="10"/>
      <point x="120" y="21"/>
      <point x="120" y="98" type="curve" smooth="yes"/>
      <point x="120" y="673" type="line"/>
      <point x="432" y="0" type="line"/>
      <point x="457" y="0" type="line"/>
      <point x="457" y="616" type="line" smooth="yes"/>
      <point x="457" y="693"/>
      <point x="463" y="704"/>
      <point x="513" y="704" type="curve" smooth="yes"/>
      <point x="531" y="704" type="line"/>
      <point x="531" y="714" type="line"/>
      <point x="363" y="714" type="line"/>
      <point x="363" y="704" type="line"/>
      <point x="391" y="704" type="line" smooth="yes"/>
      <point x="441" y="704"/>
      <point x="447" y="693"/>
      <point x="447" y="616" type="curve" smooth="yes"/>
      <point x="447" y="33" type="line"/>
      <point x="131" y="714" type="line"/>
      <point x="36" y="714" type="line"/>
      <point x="36" y="704" type="line"/>
      <point x="54" y="704" type="line" smooth="yes"/>
      <point x="104" y="704"/>
      <point x="110" y="693"/>
      <point x="110" y="616" type="curve" smooth="yes"/>
      <point x="110" y="98" type="line" smooth="yes"/>
      <point x="110" y="21"/>
      <point x="104" y="10"/>
      <point x="54" y="10" type="curve" smooth="yes"/>
      <point x="36" y="10" type="line"/>
    </contour>
  </outline>
</glyph>
<glyph name="O" format="2">
  <advance width="496"/>
  <unicode hex="004F"/>
  <anchor x="248" y="0" name="bottom"/>
  <anchor x="248" y="357" name="center"/>
  <anchor x="248" y="714" name="top"/>
  <anchor x="477" y="714" name="topright"/>
  <outline>
    <contour>
      <point x="444" y="358" type="curve" smooth="yes"/>
      <point x="444" y="570"/>
      <point x="392" y="724"/>
      <point x="249" y="724" type="curve" smooth="yes"/>
      <point x="122" y="724"/>
      <point x="52" y="602"/>
      <point x="52" y="358" type="curve" smooth="yes"/>
      <point x="52" y="173"/>
      <point x="94" y="-10"/>
      <point x="249" y="-10" type="curve" smooth="yes"/>
      <point x="404" y="-10"/>
      <point x="444" y="165"/>
    </contour>
    <contour>
      <point x="79" y="358" type="curve" smooth="yes"/>
      <point x="79" y="574"/>
      <point x="134" y="699"/>
      <point x="249" y="699" type="curve" smooth="yes"/>
      <point x="362" y="699"/>
      <point x="417" y="577"/>
      <point x="417" y="358" type="curve" smooth="yes"/>
      <point x="417" y="135"/>
      <point x="362" y="15"/>
      <point x="249" y="15" type="curve" smooth="yes"/>
      <point x="139" y="15"/>
      <point x="79" y="141"/>
    </contour>
  </outline>
</glyph>
<glyph name="O.serif" format="2">
  <advance width="530"/>
  <unicode hex="004F"/>
  <anchor x="265" y="0" name="bottom"/>
  <anchor x="265" y="357" name="center"/>
  <anchor x="265" y="714" name="top"/>
  <anchor x="510" y="714" name="topright"/>
  <outline>
    <contour>
      <point x="264" y="-10" type="curve" smooth="yes"/>
      <point x="404" y="-10"/>
      <point x="485" y="125"/>
      <point x="485" y="358" type="curve" smooth="yes"/>
      <point x="485" y="610"/>
      <point x="414" y="725"/>
      <point x="265" y="725" type="curve" smooth="yes"/>
      <point x="118" y="725"/>
      <point x="44" y="596"/>
      <point x="44" y="359" type="curve" smooth="yes"/>
      <point x="44" y="137"/>
      <point x="116" y="-10"/>
    </contour>
    <contour>
      <point x="264" y="0" type="curve" smooth="yes"/>
      <point x="137" y="0"/>
      <point x="72" y="138"/>
      <point x="72" y="358" type="curve" smooth="yes"/>
      <point x="72" y="589"/>
      <point x="131" y="715"/>
      <point x="265" y="715" type="curve" smooth="yes"/>
      <point x="406" y="715"/>
      <point x="457" y="589"/>
      <point x="457" y="358" type="curve" smooth="yes"/>
      <point x="457" y="131"/>
      <point x="392" y="0"/>
    </contour>
  </outline>
</glyph>
<glyph name="P" format="2">
  <advance width="385"/>
  <unicode hex="0050"/>
  <anchor x="193" y="0" name="bottom"/>
  <anchor x="193" y="714" name="top"/>
  <anchor x="365" y="714" name="topright"/>
  <outline>
    <contour>
      <point x="168" y="714" type="curve" smooth="yes"/>
      <point x="76" y="714" type="line"/>
      <point x="76" y="0" type="line"/>
      <point x="102" y="0" type="line"/>
      <point x="102" y="306" type="line"/>
      <point x="168" y="306" type="line" smooth="yes"/>
      <point x="295" y="306"/>
      <point x="353" y="366"/>
      <point x="353" y="519" type="curve" smooth="yes"/>
      <point x="353" y="663"/>
      <point x="292" y="714"/>
    </contour>
    <contour>
      <point x="167" y="689" type="line"/>
      <point x="274" y="689"/>
      <point x="325" y="645"/>
      <point x="325" y="520" type="curve" smooth="yes"/>
      <point x="325" y="385"/>
      <point x="277" y="331"/>
      <point x="173" y="331" type="curve" smooth="yes"/>
      <point x="102" y="331" type="line"/>
      <point x="102" y="689" type="line"/>
    </contour>
  </outline>
</glyph>
<glyph name="P.serif" format="2">
  <advance width="433"/>
  <unicode hex="0050"/>
  <anchor x="123" y="0" name="bottom"/>
  <anchor x="217" y="714" name="top"/>
  <anchor x="418" y="714" name="topright"/>
  <outline>
    <contour>
      <point x="36" y="0" type="line"/>
      <point x="222" y="0" type="line"/>
      <point x="222" y="10" type="line"/>
      <point x="193" y="10" type="line" smooth="yes"/>
      <point x="143" y="10"/>
      <point x="137" y="21"/>
      <point x="137" y="98" type="curve" smooth="yes"/>
      <point x="137" y="284" type="line"/>
      <point x="207" y="284" type="line" smooth="yes"/>
      <point x="349" y="284"/>
      <point x="393" y="399"/>
      <point x="393" y="509" type="curve" smooth="yes"/>
      <point x="393" y="647"/>
      <point x="339" y="714"/>
      <point x="217" y="714" type="curve" smooth="yes"/>
      <point x="36" y="714" type="line"/>
      <point x="36" y="704" type="line"/>
      <point x="53" y="704" type="line" smooth="yes"/>
      <point x="103" y="704"/>
      <point x="109" y="693"/>
      <point x="109" y="616" type="curve" smooth="yes"/>
      <point x="109" y="99" type="line" smooth="yes"/>
      <point x="109" y="21"/>
      <point x="103" y="10"/>
      <point x="53" y="10" type="curve" smooth="yes"/>
      <point x="36" y="10" type="line"/>
    </contour>
    <contour>
      <point x="210" y="294" type="curve" smooth="yes"/>
      <point x="137" y="294" type="line"/>
      <point x="137" y="704" type="line"/>
      <point x="217" y="704" type="line" smooth="yes"/>
      <point x="325" y="704"/>
      <point x="365" y="644"/>
      <point x="365" y="509" type="curve" smooth="yes"/>
      <point x="365" y="405"/>
      <point x="333" y="294"/>
    </contour>
  </outline>
</glyph>
<glyph name="Q" format="2">
  <advance width="496"/>
  <unicode hex="0051"/>
  <anchor x="248" y="-170" name="bottom"/>
  <anchor x="248" y="714" name="top"/>
  <anchor x="477" y="714" name="topright"/>
  <outline>
    <contour>
      <point x="444" y="358" type="curve" smooth="yes"/>
      <point x="444" y="614"/>
      <point x="368" y="724"/>
      <point x="253" y="724" type="curve" smooth="yes"/>
      <point x="121" y="724"/>
      <point x="52" y="602"/>
      <point x="52" y="359" type="curve" smooth="yes"/>
      <point x="52" y="153"/>
      <point x="105" y="-10"/>
      <point x="247" y="-10" type="curve" smooth="yes"/>
      <point x="256" y="-10"/>
      <point x="266" y="-10"/>
      <point x="278" y="-8" type="curve"/>
      <point x="355" y="-170" type="line"/>
      <point x="385" y="-170" type="line"/>
      <point x="304" y="-1" type="line"/>
      <point x="395" y="31"/>
      <point x="444" y="143"/>
    </contour>
    <contour>
      <point x="79" y="359" type="curve" smooth="yes"/>
      <point x="79" y="573"/>
      <point x="132" y="699"/>
      <point x="253" y="699" type="curve" smooth="yes"/>
      <point x="360" y="699"/>
      <point x="417" y="580"/>
      <point x="417" y="358" type="curve" smooth="yes"/>
      <point x="417" y="137"/>
      <point x="363" y="15"/>
      <point x="248" y="15" type="curve" smooth="yes"/>
      <point x="138" y="15"/>
      <point x="79" y="140"/>
    </contour>
  </outline>
</glyph>
<glyph name="R" format="2">
  <advance width="393"/>
  <unicode hex="0052"/>
  <anchor x="207" y="0" name="bottom"/>
  <anchor x="197" y="714" name="top"/>
  <anchor x="374" y="714" name="topright"/>
  <outline>
    <contour>
      <point x="165" y="714" type="curve" smooth="yes"/>
      <point x="76" y="714" type="line"/>
      <point x="76" y="0" type="line"/>
      <point x="102" y="0" type="line"/>
      <point x="102" y="322" type="line"/>
      <point x="203" y="322" type="line"/>
      <point x="344" y="0" type="line"/>
      <point x="374" y="0" type="line"/>
      <point x="229" y="328" type="line"/>
      <point x="312" y="349"/>
      <point x="354" y="413"/>
      <point x="354" y="525" type="curve" smooth="yes"/>
      <point x="354" y="668"/>
      <point x="285" y="714"/>
    </contour>
    <contour>
      <point x="162" y="689" type="line"/>
      <point x="282" y="689"/>
      <point x="327" y="642"/>
      <point x="327" y="527" type="curve" smooth="yes"/>
      <point x="327" y="398"/>
      <point x="270" y="348"/>
      <point x="185" y="348" type="curve" smooth="yes"/>
      <point x="102" y="348" type="line"/>
      <point x="102" y="689" type="line"/>
    </contour>
  </outline>
</glyph>
<glyph name="R.serif" format="2">
  <advance width="457"/>
  <unicode hex="0052"/>
  <anchor x="250" y="0" name="bottom"/>
  <anchor x="229" y="714" name="top"/>
  <anchor x="437" y="714" name="topright"/>
  <outline>
    <contour>
      <point x="36" y="0" type="line"/>
      <point x="219" y="0" type="line"/>
      <point x="219" y="10" type="line"/>
      <point x="194" y="10" type="line" smooth="yes"/>
      <point x="144" y="10"/>
      <point x="138" y="21"/>
      <point x="138" y="98" type="curve" smooth="yes"/>
      <point x="138" y="321" type="line"/>
      <point x="233" y="321" type="line"/>
      <point x="347" y="93" type="line" smooth="yes"/>
      <point x="384" y="20"/>
      <point x="408" y="0"/>
      <point x="461" y="0" type="curve" smooth="yes"/>
      <point x="464" y="0" type="line"/>
      <point x="464" y="10" type="line"/>
      <point x="459" y="10" type="line" smooth="yes"/>
      <point x="433" y="10"/>
      <point x="416" y="20"/>
      <point x="380" y="91" type="curve" smooth="yes"/>
      <point x="260" y="328" type="line"/>
      <point x="342" y="354"/>
      <point x="380" y="420"/>
      <point x="380" y="528" type="curve" smooth="yes"/>
      <point x="380" y="649"/>
      <point x="329" y="714"/>
      <point x="200" y="714" type="curve" smooth="yes"/>
      <point x="36" y="714" type="line"/>
      <point x="36" y="704" type="line"/>
      <point x="54" y="704" type="line" smooth="yes"/>
      <point x="104" y="704"/>
      <point x="110" y="693"/>
      <point x="110" y="616" type="curve" smooth="yes"/>
      <point x="110" y="98" type="line" smooth="yes"/>
      <point x="110" y="21"/>
      <point x="104" y="10"/>
      <point x="54" y="10" type="curve" smooth="yes"/>
      <point x="36" y="10" type="line"/>
    </contour>
    <contour>
      <point x="200" y="331" type="curve" smooth="yes"/>
      <point x="138" y="331" type="line"/>
      <point x="138" y="704" type="line"/>
      <point x="206" y="704" type="line" smooth="yes"/>
      <point x="313" y="704"/>
      <point x="352" y="644"/>
      <point x="352" y="528" type="curve" smooth="yes"/>
      <point x="352" y="395"/>
      <point x="312" y="331"/>
    </contour>
  </outline>
</glyph>
<glyph name="S" format="2">
  <advance width="379"/>
  <unicode hex="0053"/>
  <anchor x="189" y="0" name="bottom"/>
  <anchor x="190" y="714" name="top"/>
  <anchor x="359" y="714" name="topright"/>
  <outline>
    <contour>
      <point x="337" y="185" type="curve" smooth="yes"/>
      <point x="337" y="299"/>
      <point x="285" y="327"/>
      <point x="196" y="376" type="curve" smooth="yes"/>
      <point x="129" y="413"/>
      <point x="73" y="447"/>
      <point x="73" y="545" type="curve" smooth="yes"/>
      <point x="73" y="640"/>
      <point x="122" y="699"/>
      <point x="213" y="699" type="curve" smooth="yes"/>
      <point x="239" y="699"/>
      <point x="279" y="694"/>
      <point x="317" y="674" type="curve"/>
      <point x="328" y="696" type="line"/>
      <point x="302" y="711"/>
      <point x="257" y="724"/>
      <point x="213" y="724" type="curve" smooth="yes"/>
      <point x="114" y="724"/>
      <point x="46" y="663"/>
      <point x="46" y="545" type="curve" smooth="yes"/>
      <point x="46" y="431"/>
      <point x="110" y="395"/>
      <point x="183" y="354" type="curve" smooth="yes"/>
      <point x="268" y="307"/>
      <point x="309" y="280"/>
      <point x="309" y="185" type="curve" smooth="yes"/>
      <point x="309" y="82"/>
      <point x="264" y="16"/>
      <point x="167" y="16" type="curve" smooth="yes"/>
      <point x="126" y="16"/>
      <point x="75" y="28"/>
      <point x="41" y="44" type="curve"/>
      <point x="41" y="15" type="line"/>
      <point x="79" y="-2"/>
      <point x="130" y="-10"/>
      <point x="168" y="-10" type="curve" smooth="yes"/>
      <point x="276" y="-10"/>
      <point x="337" y="59"/>
    </contour>
  </outline>
</glyph>
<glyph name="S.serif" format="2">
  <advance width="382"/>
  <unicode hex="0053"/>
  <anchor x="187" y="-10" name="bottom"/>
  <anchor x="191" y="714" name="top"/>
  <anchor x="362" y="714" name="topright"/>
  <outline>
    <contour>
      <point x="191" y="-10" type="curve" smooth="yes"/>
      <point x="289" y="-10"/>
      <point x="340" y="58"/>
      <point x="340" y="167" type="curve" smooth="yes"/>
      <point x="340" y="285"/>
      <point x="280" y="326"/>
      <point x="204" y="376" type="curve" smooth="yes"/>
      <point x="128" y="426"/>
      <point x="91" y="463"/>
      <point x="91" y="558" type="curve" smooth="yes"/>
      <point x="91" y="654"/>
      <point x="128" y="714"/>
      <point x="201" y="714" type="curve" smooth="yes"/>
      <point x="268" y="714"/>
      <point x="304" y="664"/>
      <point x="304" y="573" type="curve"/>
      <point x="315" y="573"/>
      <point x="327" y="585"/>
      <point x="327" y="612" type="curve" smooth="yes"/>
      <point x="327" y="665"/>
      <point x="283" y="724"/>
      <point x="201" y="724" type="curve" smooth="yes"/>
      <point x="115" y="724"/>
      <point x="63" y="659"/>
      <point x="63" y="557" type="curve" smooth="yes"/>
      <point x="63" y="451"/>
      <point x="119" y="397"/>
      <point x="187" y="353" type="curve" smooth="yes"/>
      <point x="276" y="296"/>
      <point x="312" y="264"/>
      <point x="312" y="163" type="curve" smooth="yes"/>
      <point x="312" y="49"/>
      <point x="267" y="0"/>
      <point x="193" y="0" type="curve" smooth="yes"/>
      <point x="103" y="0"/>
      <point x="71" y="74"/>
      <point x="71" y="168" type="curve"/>
      <point x="51" y="168"/>
      <point x="48" y="140"/>
      <point x="48" y="124" type="curve" smooth="yes"/>
      <point x="48" y="64"/>
      <point x="88" y="-10"/>
    </contour>
  </outline>
</glyph>
<glyph name="T" format="2">
  <advance width="327"/>
  <unicode hex="0054"/>
  <anchor x="164" y="0" name="bottom"/>
  <anchor x="164" y="357" name="center"/>
  <anchor x="164" y="714" name="top"/>
  <anchor x="308" y="714" name="topright"/>
  <outline>
    <contour>
      <point x="176" y="0" type="line"/>
      <point x="176" y="689" type="line"/>
      <point x="319" y="689" type="line"/>
      <point x="319" y="714" type="line"/>
      <point x="7" y="714" type="line"/>
      <point x="7" y="689" type="line"/>
      <point x="149" y="689" type="line"/>
      <point x="149" y="0" type="line"/>
    </contour>
  </outline>
</glyph>
<glyph name="T.serif" format="2">
  <advance width="436"/>
  <unicode hex="0054"/>
  <anchor x="218" y="0" name="bottom"/>
  <anchor x="218" y="357" name="center"/>
  <anchor x="218" y="714" name="top"/>
  <anchor x="436" y="714" name="topright"/>
  <outline>
    <contour>
      <point x="112" y="0" type="line"/>
      <point x="319" y="0" type="line"/>
      <point x="319" y="10" type="line"/>
      <point x="286" y="10" type="line" smooth="yes"/>
      <point x="236" y="10"/>
      <point x="230" y="21"/>
      <point x="230" y="98" type="curve" smooth="yes"/>
      <point x="230" y="704" type="line"/>
      <point x="339" y="704" type="line" smooth="yes"/>
      <point x="391" y="704"/>
      <point x="397" y="690"/>
      <point x="399" y="635" type="curve" smooth="yes"/>
      <point x="402" y="563" type="line"/>
      <point x="412" y="563" type="line"/>
      <point x="407" y="714" type="line"/>
      <point x="28" y="714" type="line"/>
      <point x="23" y="563" type="line"/>
      <point x="33" y="563" type="line"/>
      <point x="36" y="635" type="line" smooth="yes"/>
      <point x="38" y="690"/>
      <point x="44" y="704"/>
      <point x="96" y="704" type="curve" smooth="yes"/>
      <point x="202" y="704" type="line"/>
      <point x="202" y="98" type="line" smooth="yes"/>
      <point x="202" y="21"/>
      <point x="196" y="10"/>
      <point x="146" y="10" type="curve" smooth="yes"/>
      <point x="112" y="10" type="line"/>
    </contour>
  </outline>
</glyph>
<glyph name="U" format="2">
  <advance width="473"/>
  <unicode hex="0055"/>
  <anchor x="236" y="0" name="bottom"/>
  <anchor x="236" y="714" name="top"/>
  <anchor x="453" y="714" name="topright"/>
  <outline>
    <contour>
      <point x="403" y="217" type="curve" smooth="yes"/>
      <point x="403" y="714" type="line"/>
      <point x="376" y="714" type="line"/>
      <point x="376" y="221" type="line" smooth="yes"/>
      <point x="376" y="63"/>
      <point x="319" y="15"/>
      <point x="236" y="15" type="curve" smooth="yes"/>
      <point x="149" y="15"/>
      <point x="96" y="71"/>
      <point x="96" y="221" type="curve" smooth="yes"/>
      <point x="96" y="714" type="line"/>
      <point x="70" y="714" type="line"/>
      <point x="70" y="217" type="line" smooth="yes"/>
      <point x="70" y="59"/>
      <point x="129" y="-10"/>
      <point x="236" y="-10" type="curve" smooth="yes"/>
      <point x="329" y="-10"/>
      <point x="403" y="42"/>
    </contour>
  </outline>
</glyph>
<glyph name="U.serif" format="2">
  <advance width="520"/>
  <unicode hex="0055"/>
  <anchor x="260" y="0" name="bottom"/>
  <anchor x="260" y="714" name="top"/>
  <anchor x="525" y="714" name="topright"/>
  <outline>
    <contour>
      <point x="259" y="-10" type="curve" smooth="yes"/>
      <point x="379" y="-10"/>
      <point x="428" y="74"/>
      <point x="428" y="200" type="curve" smooth="yes"/>
      <point x="428" y="617" type="line" smooth="yes"/>
      <point x="428" y="693"/>
      <point x="434" y="704"/>
      <point x="484" y="704" type="curve" smooth="yes"/>
      <point x="509" y="704" type="line"/>
      <point x="509" y="714" type="line"/>
      <point x="328" y="714" type="line"/>
      <point x="328" y="704" type="line"/>
      <point x="362" y="704" type="line" smooth="yes"/>
      <point x="412" y="704"/>
      <point x="418" y="693"/>
      <point x="418" y="617" type="curve" smooth="yes"/>
      <point x="418" y="204" type="line" smooth="yes"/>
      <point x="418" y="95"/>
      <point x="387" y="5"/>
      <point x="260" y="5" type="curve" smooth="yes"/>
      <point x="169" y="5"/>
      <point x="111" y="61"/>
      <point x="111" y="210" type="curve" smooth="yes"/>
      <point x="111" y="616" type="line" smooth="yes"/>
      <point x="111" y="694"/>
      <point x="118" y="704"/>
      <point x="167" y="704" type="curve" smooth="yes"/>
      <point x="190" y="704" type="line"/>
      <point x="190" y="714" type="line"/>
      <point x="10" y="714" type="line"/>
      <point x="10" y="704" type="line"/>
      <point x="27" y="704" type="line" smooth="yes"/>
      <point x="77" y="704"/>
      <point x="83" y="693"/>
      <point x="83" y="619" type="curve" smooth="yes"/>
      <point x="83" y="214" type="line" smooth="yes"/>
      <point x="83" y="52"/>
      <point x="153" y="-10"/>
    </contour>
  </outline>
</glyph>
<glyph name="V" format="2">
  <advance width="357"/>
  <unicode hex="0056"/>
  <anchor x="178" y="0" name="bottom"/>
  <anchor x="178" y="714" name="top"/>
  <anchor x="337" y="714" name="topright"/>
  <outline>
    <contour>
      <point x="357" y="714" type="line"/>
      <point x="331" y="714" type="line"/>
      <point x="200" y="136" type="line" smooth="yes"/>
      <point x="192" y="99"/>
      <point x="185" y="69"/>
      <point x="177" y="31" type="curve"/>
      <point x="171" y="69"/>
      <point x="163" y="99"/>
      <point x="155" y="136" type="curve" smooth="yes"/>
      <point x="25" y="714" type="line"/>
      <point x="0" y="714" type="line"/>
      <point x="160" y="0" type="line"/>
      <point x="194" y="0" type="line"/>
    </contour>
  </outline>
</glyph>
<glyph name="V.serif" format="2">
  <advance width="494"/>
  <unicode hex="0056"/>
  <anchor x="247" y="0" name="bottom"/>
  <anchor x="247" y="714" name="top"/>
  <anchor x="514" y="714" name="topright"/>
  <outline>
    <contour>
      <point x="64" y="656" type="curve" smooth="yes"/>
      <point x="242" y="0" type="line"/>
      <point x="253" y="0" type="line"/>
      <point x="413" y="656" type="line" smooth="yes"/>
      <point x="424" y="701"/>
      <point x="432" y="704"/>
      <point x="473" y="704" type="curve" smooth="yes"/>
      <point x="494" y="704" type="line"/>
      <point x="494" y="714" type="line"/>
      <point x="319" y="714" type="line"/>
      <point x="319" y="704" type="line"/>
      <point x="347" y="704" type="line" smooth="yes"/>
      <point x="396" y="704"/>
      <point x="401" y="695"/>
      <point x="401" y="676" type="curve" smooth="yes"/>
      <point x="401" y="653"/>
      <point x="395" y="623"/>
      <point x="383" y="575" type="curve" smooth="yes"/>
      <point x="303" y="248" type="line" smooth="yes"/>
      <point x="280" y="154"/>
      <point x="270" y="119"/>
      <point x="255" y="52" type="curve"/>
      <point x="239" y="115"/>
      <point x="233" y="137"/>
      <point x="208" y="229" type="curve" smooth="yes"/>
      <point x="114" y="577" type="line" smooth="yes"/>
      <point x="103" y="616"/>
      <point x="94" y="655"/>
      <point x="94" y="678" type="curve" smooth="yes"/>
      <point x="94" y="697"/>
      <point x="99" y="704"/>
      <point x="149" y="704" type="curve" smooth="yes"/>
      <point x="168" y="704" type="line"/>
      <point x="168" y="714" type="line"/>
      <point x="0" y="714" type="line"/>
      <point x="0" y="704" type="line"/>
      <point x="5" y="704" type="line" smooth="yes"/>
      <point x="45" y="704"/>
      <point x="52" y="700"/>
    </contour>
  </outline>
</glyph>
<glyph name="W" format="2">
  <advance width="630"/>
  <unicode hex="0057"/>
  <anchor x="315" y="0" name="bottom"/>
  <anchor x="315" y="714" name="top"/>
  <anchor x="610" y="714" name="topright"/>
  <outline>
    <contour>
      <point x="625" y="714" type="line"/>
      <point x="596" y="714" type="line"/>
      <point x="478" y="151" type="line" smooth="yes"/>
      <point x="470" y="111"/>
      <point x="462" y="72"/>
      <point x="454" y="26" type="curve"/>
      <point x="446" y="77"/>
      <point x="442" y="103"/>
      <point x="433" y="151" type="curve" smooth="yes"/>
      <point x="326" y="714" type="line"/>
      <point x="300" y="714" type="line"/>
      <point x="193" y="151" type="line" smooth="yes"/>
      <point x="190" y="134"/>
      <point x="179" y="75"/>
      <point x="171" y="29" type="curve"/>
      <point x="169" y="48"/>
      <point x="162" y="89"/>
      <point x="149" y="151" type="curve" smooth="yes"/>
      <point x="33" y="714" type="line"/>
      <point x="5" y="714" type="line"/>
      <point x="152" y="0" type="line"/>
      <point x="191" y="0" type="line"/>
      <point x="298" y="561" type="line" smooth="yes"/>
      <point x="305" y="597"/>
      <point x="308" y="616"/>
      <point x="313" y="661" type="curve"/>
      <point x="319" y="616"/>
      <point x="322" y="597"/>
      <point x="329" y="561" type="curve" smooth="yes"/>
      <point x="436" y="0" type="line"/>
      <point x="472" y="0" type="line"/>
    </contour>
  </outline>
</glyph>
<glyph name="W.serif" format="2">
  <advance width="778"/>
  <unicode hex="0057"/>
  <anchor x="389" y="0" name="bottom"/>
  <anchor x="389" y="714" name="top"/>
  <anchor x="788" y="714" name="topright"/>
  <outline>
    <contour>
      <point x="80" y="656" type="curve" smooth="yes"/>
      <point x="211" y="0" type="line"/>
      <point x="229" y="0" type="line"/>
      <point x="380" y="668" type="line"/>
      <point x="534" y="0" type="line"/>
      <point x="552" y="0" type="line"/>
      <point x="698" y="655" type="line" smooth="yes"/>
      <point x="708" y="701"/>
      <point x="718" y="704"/>
      <point x="762" y="704" type="curve" smooth="yes"/>
      <point x="765" y="704" type="line"/>
      <point x="765" y="714" type="line"/>
      <point x="607" y="714" type="line"/>
      <point x="607" y="704" type="line"/>
      <point x="634" y="704" type="line" smooth="yes"/>
      <point x="682" y="704"/>
      <point x="687" y="695"/>
      <point x="687" y="676" type="curve" smooth="yes"/>
      <point x="687" y="662"/>
      <point x="685" y="644"/>
      <point x="676" y="603" type="curve" smooth="yes"/>
      <point x="591" y="224" type="line" smooth="yes"/>
      <point x="573" y="145"/>
      <point x="566" y="114"/>
      <point x="550" y="39" type="curve"/>
      <point x="539" y="99"/>
      <point x="528" y="147"/>
      <point x="511" y="221" type="curve" smooth="yes"/>
      <point x="397" y="714" type="line"/>
      <point x="379" y="714" type="line"/>
      <point x="261" y="190" type="line" smooth="yes"/>
      <point x="250" y="140"/>
      <point x="240" y="98"/>
      <point x="226" y="39" type="curve"/>
      <point x="217" y="97"/>
      <point x="213" y="119"/>
      <point x="199" y="193" type="curve" smooth="yes"/>
      <point x="119" y="601" type="line" smooth="yes"/>
      <point x="112" y="639"/>
      <point x="108" y="663"/>
      <point x="108" y="676" type="curve" smooth="yes"/>
      <point x="108" y="695"/>
      <point x="113" y="704"/>
      <point x="161" y="704" type="curve" smooth="yes"/>
      <point x="178" y="704" type="line"/>
      <point x="178" y="714" type="line"/>
      <point x="14" y="714" type="line"/>
      <point x="14" y="704" type="line"/>
      <point x="17" y="704" type="line" smooth="yes"/>
      <point x="60" y="704"/>
      <point x="71" y="700"/>
    </contour>
  </outline>
</glyph>
<glyph name="X" format="2">
  <advance width="323"/>
  <unicode hex="0058"/>
  <anchor x="162" y="0" name="bottom"/>
  <anchor x="162" y="714" name="top"/>
  <anchor x="303" y="714" name="topright"/>
  <outline>
    <contour>
      <point x="313" y="0" type="line"/>
      <point x="186" y="373" type="line"/>
      <point x="313" y="714" type="line"/>
      <point x="285" y="714" type="line"/>
      <point x="171" y="401" type="line"/>
      <point x="62" y="714" type="line"/>
      <point x="33" y="714" type="line"/>
      <point x="155" y="373" type="line"/>
      <point x="10" y="0" type="line"/>
      <point x="38" y="0" type="line"/>
      <point x="170" y="345" type="line"/>
      <point x="285" y="0" type="line"/>
    </contour>
  </outline>
</glyph>
<glyph name="X.serif" format="2">
  <advance width="447"/>
  <unicode hex="0058"/>
  <anchor x="224" y="0" name="bottom"/>
  <anchor x="224" y="714" name="top"/>
  <anchor x="437" y="714" name="topright"/>
  <outline>
    <contour>
      <point x="4" y="0" type="line"/>
      <point x="175" y="0" type="line"/>
      <point x="175" y="10" type="line"/>
      <point x="133" y="10" type="line" smooth="yes"/>
      <point x="95" y="10"/>
      <point x="91" y="17"/>
      <point x="91" y="30" type="curve" smooth="yes"/>
      <point x="91" y="43"/>
      <point x="98" y="58"/>
      <point x="129" y="133" type="curve" smooth="yes"/>
      <point x="217" y="347" type="line"/>
      <point x="325" y="111" type="line" smooth="yes"/>
      <point x="349" y="58"/>
      <point x="358" y="37"/>
      <point x="358" y="26" type="curve" smooth="yes"/>
      <point x="358" y="16"/>
      <point x="354" y="10"/>
      <point x="317" y="10" type="curve" smooth="yes"/>
      <point x="283" y="10" type="line"/>
      <point x="283" y="0" type="line"/>
      <point x="441" y="0" type="line"/>
      <point x="441" y="10" type="line"/>
      <point x="437" y="10" type="line" smooth="yes"/>
      <point x="405" y="10"/>
      <point x="398" y="13"/>
      <point x="378" y="58" type="curve" smooth="yes"/>
      <point x="232" y="380" type="line"/>
      <point x="348" y="658" type="line" smooth="yes"/>
      <point x="366" y="702"/>
      <point x="375" y="704"/>
      <point x="409" y="704" type="curve" smooth="yes"/>
      <point x="423" y="704" type="line"/>
      <point x="423" y="714" type="line"/>
      <point x="270" y="714" type="line"/>
      <point x="270" y="704" type="line"/>
      <point x="307" y="704" type="line" smooth="yes"/>
      <point x="337" y="704"/>
      <point x="340" y="696"/>
      <point x="340" y="684" type="curve" smooth="yes"/>
      <point x="340" y="668"/>
      <point x="333" y="647"/>
      <point x="320" y="617" type="curve" smooth="yes"/>
      <point x="226" y="393" type="line"/>
      <point x="124" y="618" type="line" smooth="yes"/>
      <point x="110" y="650"/>
      <point x="98" y="677"/>
      <point x="98" y="686" type="curve" smooth="yes"/>
      <point x="98" y="698"/>
      <point x="101" y="704"/>
      <point x="136" y="704" type="curve" smooth="yes"/>
      <point x="168" y="704" type="line"/>
      <point x="168" y="714" type="line"/>
      <point x="9" y="714" type="line"/>
      <point x="9" y="704" type="line"/>
      <point x="13" y="704" type="line" smooth="yes"/>
      <point x="50" y="704"/>
      <point x="57" y="701"/>
      <point x="77" y="657" type="curve" smooth="yes"/>
      <point x="212" y="360" type="line"/>
      <point x="86" y="57" type="line" smooth="yes"/>
      <point x="68" y="13"/>
      <point x="58" y="10"/>
      <point x="10" y="10" type="curve" smooth="yes"/>
      <point x="4" y="10" type="line"/>
    </contour>
  </outline>
</glyph>
<glyph name="Y" format="2">
  <advance width="307"/>
  <unicode hex="0059"/>
  <anchor x="154" y="0" name="bottom"/>
  <anchor x="154" y="714" name="top"/>
  <anchor x="288" y="714" name="topright"/>
  <outline>
    <contour>
      <point x="154" y="315" type="line"/>
      <point x="28" y="714" type="line"/>
      <point x="0" y="714" type="line"/>
      <point x="141" y="278" type="line"/>
      <point x="141" y="0" type="line"/>
      <point x="167" y="0" type="line"/>
      <point x="167" y="278" type="line"/>
      <point x="307" y="714" type="line"/>
      <point x="280" y="714" type="line"/>
    </contour>
  </outline>
</glyph>
<glyph name="Y.serif" format="2">
  <advance width="422"/>
  <unicode hex="0059"/>
  <anchor x="211" y="0" name="bottom"/>
  <anchor x="211" y="714" name="top"/>
  <anchor x="402" y="714" name="topright"/>
  <outline>
    <contour>
      <point x="116" y="0" type="line"/>
      <point x="308" y="0" type="line"/>
      <point x="308" y="10" type="line"/>
      <point x="282" y="10" type="line" smooth="yes"/>
      <point x="232" y="10"/>
      <point x="226" y="21"/>
      <point x="226" y="98" type="curve" smooth="yes"/>
      <point x="226" y="370" type="line"/>
      <point x="364" y="662" type="line" smooth="yes"/>
      <point x="383" y="702"/>
      <point x="387" y="704"/>
      <point x="419" y="704" type="curve" smooth="yes"/>
      <point x="427" y="704" type="line"/>
      <point x="427" y="714" type="line"/>
      <point x="264" y="714" type="line"/>
      <point x="264" y="704" type="line"/>
      <point x="316" y="704" type="line" smooth="yes"/>
      <point x="352" y="704"/>
      <point x="357" y="698"/>
      <point x="357" y="687" type="curve" smooth="yes"/>
      <point x="357" y="677"/>
      <point x="355" y="670"/>
      <point x="342" y="641" type="curve" smooth="yes"/>
      <point x="265" y="474" type="line" smooth="yes"/>
      <point x="246" y="433"/>
      <point x="230" y="400"/>
      <point x="219" y="377" type="curve"/>
      <point x="196" y="427"/>
      <point x="179" y="463"/>
      <point x="157" y="510" type="curve" smooth="yes"/>
      <point x="98" y="635" type="line" smooth="yes"/>
      <point x="85" y="662"/>
      <point x="78" y="678"/>
      <point x="78" y="688" type="curve" smooth="yes"/>
      <point x="78" y="698"/>
      <point x="82" y="704"/>
      <point x="116" y="704" type="curve" smooth="yes"/>
      <point x="146" y="704" type="line"/>
      <point x="146" y="714" type="line"/>
      <point x="-8" y="714" type="line"/>
      <point x="-8" y="704" type="line"/>
      <point x="-2" y="704" type="line" smooth="yes"/>
      <point x="24" y="704"/>
      <point x="34" y="702"/>
      <point x="54" y="661" type="curve" smooth="yes"/>
      <point x="198" y="362" type="line"/>
      <point x="198" y="98" type="line" smooth="yes"/>
      <point x="198" y="21"/>
      <point x="192" y="10"/>
      <point x="142" y="10" type="curve" smooth="yes"/>
      <point x="116" y="10" type="line"/>
    </contour>
  </outline>
</glyph>
<glyph name="Z" format="2">
  <advance width="314"/>
  <unicode hex="005A"/>
  <anchor x="158" y="0" name="bottom"/>
  <anchor x="157" y="714" name="top"/>
  <anchor x="295" y="714" name="topright"/>
  <outline>
    <contour>
      <point x="295" y="0" type="line"/>
      <point x="295" y="25" type="line"/>
      <point x="56" y="25" type="line"/>
      <point x="288" y="689" type="line"/>
      <point x="288" y="714" type="line"/>
      <point x="38" y="714" type="line"/>
      <point x="38" y="689" type="line"/>
      <point x="260" y="689" type="line"/>
      <point x="27" y="24" type="line"/>
      <point x="27" y="0" type="line"/>
    </contour>
  </outline>
</glyph>
<glyph name="Z.serif" format="2">
  <advance width="391"/>
  <unicode hex="005A"/>
  <anchor x="196" y="0" name="bottom"/>
  <anchor x="196" y="714" name="top"/>
  <anchor x="371" y="714" name="topright"/>
  <outline>
    <contour>
      <point x="22" y="0" type="line"/>
      <point x="358" y="0" type="line"/>
      <point x="361" y="139" type="line"/>
      <point x="351" y="139" type="line"/>
      <point x="349" y="83" type="line" smooth="yes"/>
      <point x="347" y="29"/>
      <point x="342" y="15"/>
      <point x="290" y="15" type="curve" smooth="yes"/>
      <point x="49" y="15" type="line"/>
      <point x="354" y="693" type="line"/>
      <point x="354" y="714" type="line"/>
      <point x="41" y="714" type="line"/>
      <point x="37" y="576" type="line"/>
      <point x="47" y="576" type="line"/>
      <point x="48" y="630" type="line" smooth="yes"/>
      <point x="49" y="685"/>
      <point x="57" y="699"/>
      <point x="109" y="699" type="curve" smooth="yes"/>
      <point x="327" y="699" type="line"/>
      <point x="22" y="22" type="line"/>
    </contour>
  </outline>
</glyph>
<glyph name="bracketleft" format="2">
  <advance width="297"/>
  <unicode hex="005B"/>
  <outline>
    <contour>
      <point x="262" y="-158" type="line"/>
      <point x="262" y="-134" type="line"/>
      <point x="106" y="-134" type="line"/>
      <point x="106" y="690" type="line"/>
      <point x="262" y="690" type="line"/>
      <point x="262" y="714" type="line"/>
      <point x="81" y="714" type="line"/>
      <point x="81" y="-158" type="line"/>
    </contour>
  </outline>
</glyph>
<glyph name="bracketright" format="2">
  <advance width="297"/>
  <unicode hex="005D"/>
  <outline>
    <contour>
      <point x="35" y="-134" type="line"/>
      <point x="35" y="-158" type="line"/>
      <point x="216" y="-158" type="line"/>
      <point x="216" y="714" type="line"/>
      <point x="35" y="714" type="line"/>
      <point x="35" y="690" type="line"/>
      <point x="191" y="690" type="line"/>
      <point x="191" y="-134" type="line"/>
    </contour>
  </outline>
</glyph>
<glyph name="bracketright.serif" format="2">
  <advance width="233"/>
  <unicode hex="005D"/>
  <outline>
    <contour>
      <point x="27" y="-128" type="line"/>
      <point x="156" y="-128" type="line"/>
      <point x="156" y="760" type="line"/>
      <point x="27" y="760" type="line"/>
      <point x="27" y="750" type="line"/>
      <point x="72" y="750" type="line" smooth="yes"/>
      <point x="122" y="750"/>
      <point x="128" y="739"/>
      <point x="128" y="662" type="curve" smooth="yes"/>
      <point x="128" y="-30" type="line" smooth="yes"/>
      <point x="128" y="-107"/>
      <point x="122" y="-118"/>
      <point x="72" y="-118" type="curve" smooth="yes"/>
      <point x="27" y="-118" type="line"/>
    </contour>
  </outline>
</glyph>
<glyph name="asciicircum" format="2">
  <advance width="383"/>
  <unicode hex="005E"/>
  <outline>
    <contour>
      <point x="17" y="372" type="line"/>
      <point x="48" y="372" type="line"/>
      <point x="198" y="681" type="line"/>
      <point x="335" y="372" type="line"/>
      <point x="367" y="372" type="line"/>
      <point x="211" y="713" type="line"/>
      <point x="187" y="713" type="line"/>
    </contour>
  </outline>
</glyph>
<glyph name="underscore.serif" format="2">
  <advance width="347"/>
  <unicode hex="005F"/>
  <outline>
    <contour>
      <point x="-3" y="-123" type="line"/>
      <point x="347" y="-123" type="line"/>
      <point x="347" y="-103" type="line"/>
      <point x="-3" y="-103" type="line"/>
    </contour>
  </outline>
</glyph>
<glyph name="grave" format="2">
  <advance width="222"/>
  <unicode hex="0060"/>
  <outline>
    <contour>
      <point x="72" y="763" type="curve"/>
      <point x="40" y="763" type="line"/>
      <point x="40" y="756" type="line"/>
      <point x="72" y="705"/>
      <point x="128" y="644"/>
      <point x="165" y="606" type="curve"/>
      <point x="182" y="606" type="line"/>
      <point x="182" y="617" type="line"/>
      <point x="144" y="663"/>
      <point x="105" y="708"/>
    </contour>
  </outline>
</glyph>
<glyph name="a" format="2">
  <advance width="357"/>
  <unicode hex="0061"/>
  <anchor x="167" y="0" name="bottom"/>
  <anchor x="178" y="527" name="top"/>
  <anchor x="337" y="527" name="topright"/>
  <outline>
    <contour>
      <point x="173" y="537" type="curve" smooth="yes"/>
      <point x="139" y="537"/>
      <point x="101" y="525"/>
      <point x="70" y="505" type="curve"/>
      <point x="81" y="483" type="line"/>
      <point x="117" y="505"/>
      <point x="149" y="512"/>
      <point x="172" y="512" type="curve" smooth="yes"/>
      <point x="237" y="512"/>
      <point x="264" y="475"/>
      <point x="264" y="355" type="curve" smooth="yes"/>
      <point x="264" y="304" type="line"/>
      <point x="204" y="297" type="line" smooth="yes"/>
      <point x="97" y="285"/>
      <point x="37" y="234"/>
      <point x="37" y="129" type="curve" smooth="yes"/>
      <point x="37" y="57"/>
      <point x="71" y="-10"/>
      <point x="152" y="-10" type="curve" smooth="yes"/>
      <point x="226" y="-10"/>
      <point x="253" y="43"/>
      <point x="265" y="93" type="curve"/>
      <point x="267" y="93" type="line"/>
      <point x="270" y="0" type="line"/>
      <point x="290" y="0" type="line"/>
      <point x="290" y="358" type="line" smooth="yes"/>
      <point x="290" y="489"/>
      <point x="255" y="537"/>
    </contour>
    <contour>
      <point x="203" y="274" type="curve" smooth="yes"/>
      <point x="264" y="281" type="line"/>
      <point x="264" y="220" type="line" smooth="yes"/>
      <point x="264" y="97"/>
      <point x="234" y="12"/>
      <point x="153" y="12" type="curve" smooth="yes"/>
      <point x="97" y="12"/>
      <point x="63" y="54"/>
      <point x="63" y="129" type="curve" smooth="yes"/>
      <point x="63" y="217"/>
      <point x="108" y="263"/>
    </contour>
  </outline>
</glyph>
<glyph name="a.serif" format="2">
  <advance width="400"/>
  <unicode hex="0061"/>
  <anchor x="302" y="0" name="bottom"/>
  <anchor x="200" y="536" name="top"/>
  <anchor x="380" y="536" name="topright"/>
  <outline>
    <contour>
      <point x="153" y="-10" type="curve" smooth="yes"/>
      <point x="212" y="-10"/>
      <point x="259" y="34"/>
      <point x="281" y="112" type="curve"/>
      <point x="283" y="112" type="line"/>
      <point x="283" y="0" type="line"/>
      <point x="360" y="0" type="line"/>
      <point x="360" y="10" type="line"/>
      <point x="358" y="10" type="line" smooth="yes"/>
      <point x="320" y="10"/>
      <point x="309" y="19"/>
      <point x="309" y="93" type="curve" smooth="yes"/>
      <point x="309" y="366" type="line" smooth="yes"/>
      <point x="309" y="494"/>
      <point x="269" y="542"/>
      <point x="192" y="542" type="curve" smooth="yes"/>
      <point x="117" y="542"/>
      <point x="73" y="496"/>
      <point x="73" y="440" type="curve" smooth="yes"/>
      <point x="73" y="410"/>
      <point x="84" y="395"/>
      <point x="97" y="395" type="curve"/>
      <point x="97" y="496"/>
      <point x="127" y="532"/>
      <point x="189" y="532" type="curve" smooth="yes"/>
      <point x="254" y="532"/>
      <point x="281" y="493"/>
      <point x="281" y="371" type="curve" smooth="yes"/>
      <point x="281" y="300" type="line"/>
      <point x="218" y="297" type="line" smooth="yes"/>
      <point x="99" y="291"/>
      <point x="42" y="239"/>
      <point x="42" y="141" type="curve" smooth="yes"/>
      <point x="42" y="36"/>
      <point x="86" y="-10"/>
    </contour>
    <contour>
      <point x="155" y="5" type="curve" smooth="yes"/>
      <point x="96" y="5"/>
      <point x="70" y="51"/>
      <point x="70" y="138" type="curve" smooth="yes"/>
      <point x="70" y="227"/>
      <point x="112" y="282"/>
      <point x="219" y="287" type="curve" smooth="yes"/>
      <point x="281" y="290" type="line"/>
      <point x="281" y="191" type="line" smooth="yes"/>
      <point x="281" y="82"/>
      <point x="230" y="5"/>
    </contour>
  </outline>
</glyph>
<glyph name="b" format="2">
  <advance width="413"/>
  <unicode hex="0062"/>
  <anchor x="207" y="0" name="bottom"/>
  <anchor x="212" y="760" name="top"/>
  <anchor x="335" y="760" name="topright"/>
  <outline>
    <contour>
      <point x="95" y="481" type="curve" smooth="yes"/>
      <point x="95" y="760" type="line"/>
      <point x="69" y="760" type="line"/>
      <point x="69" y="0" type="line"/>
      <point x="90" y="0" type="line"/>
      <point x="95" y="97" type="line"/>
      <point x="97" y="97" type="line"/>
      <point x="117" y="34"/>
      <point x="154" y="-10"/>
      <point x="218" y="-10" type="curve" smooth="yes"/>
      <point x="316" y="-10"/>
      <point x="369" y="83"/>
      <point x="369" y="269" type="curve" smooth="yes"/>
      <point x="369" y="445"/>
      <point x="321" y="537"/>
      <point x="223" y="537" type="curve" smooth="yes"/>
      <point x="155" y="537"/>
      <point x="108" y="489"/>
      <point x="96" y="418" type="curve"/>
      <point x="94" y="418" type="line"/>
      <point x="95" y="435"/>
      <point x="95" y="459"/>
    </contour>
    <contour>
      <point x="223" y="512" type="curve" smooth="yes"/>
      <point x="307" y="512"/>
      <point x="342" y="429"/>
      <point x="342" y="269" type="curve" smooth="yes"/>
      <point x="342" y="96"/>
      <point x="297" y="16"/>
      <point x="218" y="16" type="curve" smooth="yes"/>
      <point x="145" y="16"/>
      <point x="95" y="83"/>
      <point x="95" y="239" type="curve" smooth="yes"/>
      <point x="95" y="294" type="line" smooth="yes"/>
      <point x="95" y="426"/>
      <point x="136" y="512"/>
    </contour>
  </outline>
</glyph>
<glyph name="b.serif" format="2">
  <advance width="439"/>
  <unicode hex="0062"/>
  <anchor x="220" y="0" name="bottom"/>
  <anchor x="220" y="760" name="top"/>
  <anchor x="399" y="760" name="topright"/>
  <outline>
    <contour>
      <point x="249" y="-10" type="curve" smooth="yes"/>
      <point x="332" y="-10"/>
      <point x="391" y="56"/>
      <point x="391" y="267" type="curve" smooth="yes"/>
      <point x="391" y="466"/>
      <point x="343" y="544"/>
      <point x="248" y="544" type="curve" smooth="yes"/>
      <point x="176" y="544"/>
      <point x="134" y="496"/>
      <point x="116" y="404" type="curve"/>
      <point x="114" y="404" type="line"/>
      <point x="115" y="475"/>
      <point x="116" y="526"/>
      <point x="116" y="561" type="curve" smooth="yes"/>
      <point x="116" y="760" type="line"/>
      <point x="14" y="760" type="line"/>
      <point x="14" y="750" type="line"/>
      <point x="23" y="750" type="line" smooth="yes"/>
      <point x="81" y="750"/>
      <point x="88" y="745"/>
      <point x="88" y="671" type="curve" smooth="yes"/>
      <point x="88" y="77" type="line" smooth="yes"/>
      <point x="88" y="18"/>
      <point x="81" y="10"/>
      <point x="24" y="10" type="curve" smooth="yes"/>
      <point x="14" y="10" type="line"/>
      <point x="14" y="0" type="line"/>
      <point x="115" y="0" type="line"/>
      <point x="115" y="126" type="line"/>
      <point x="117" y="126" type="line"/>
      <point x="136" y="37"/>
      <point x="178" y="-10"/>
    </contour>
    <contour>
      <point x="249" y="0" type="curve" smooth="yes"/>
      <point x="162" y="0"/>
      <point x="115" y="76"/>
      <point x="115" y="268" type="curve" smooth="yes"/>
      <point x="115" y="460"/>
      <point x="162" y="534"/>
      <point x="249" y="534" type="curve" smooth="yes"/>
      <point x="330" y="534"/>
      <point x="363" y="456"/>
      <point x="363" y="269" type="curve" smooth="yes"/>
      <point x="363" y="69"/>
      <point x="320" y="0"/>
    </contour>
  </outline>
</glyph>
<glyph name="c" format="2">
  <advance width="304"/>
  <unicode hex="0063"/>
  <anchor x="192" y="0" name="bottom"/>
  <anchor x="201" y="527" name="top"/>
  <anchor x="285" y="527" name="topright"/>
  <outline>
    <contour>
      <point x="206" y="-10" type="curve" smooth="yes"/>
      <point x="233" y="-10"/>
      <point x="263" y="-4"/>
      <point x="284" y="6" type="curve"/>
      <point x="284" y="32" type="line"/>
      <point x="260" y="21"/>
      <point x="234" y="15"/>
      <point x="209" y="15" type="curve" smooth="yes"/>
      <point x="112" y="15"/>
      <point x="72" y="114"/>
      <point x="72" y="257" type="curve" smooth="yes"/>
      <point x="72" y="427"/>
      <point x="127" y="512"/>
      <point x="216" y="512" type="curve" smooth="yes"/>
      <point x="237" y="512"/>
      <point x="258" y="507"/>
      <point x="275" y="496" type="curve"/>
      <point x="285" y="519" type="line"/>
      <point x="265" y="531"/>
      <point x="241" y="537"/>
      <point x="215" y="537" type="curve" smooth="yes"/>
      <point x="110" y="537"/>
      <point x="46" y="440"/>
      <point x="46" y="256" type="curve" smooth="yes"/>
      <point x="46" y="93"/>
      <point x="97" y="-10"/>
    </contour>
  </outline>
</glyph>
<glyph name="c.serif" format="2">
  <advance width="347"/>
  <unicode hex="0063"/>
  <anchor x="191" y="0" name="bottom"/>
  <anchor x="191" y="536" name="top"/>
  <anchor x="327" y="536" name="topright"/>
  <outline>
    <contour>
      <point x="199" y="-10" type="curve" smooth="yes"/>
      <point x="279" y="-10"/>
      <point x="318" y="46"/>
      <point x="318" y="86" type="curve" smooth="yes"/>
      <point x="318" y="97"/>
      <point x="315" y="105"/>
      <point x="305" y="110" type="curve"/>
      <point x="294" y="49"/>
      <point x="264" y="0"/>
      <point x="200" y="0" type="curve" smooth="yes"/>
      <point x="122" y="0"/>
      <point x="76" y="71"/>
      <point x="76" y="270" type="curve" smooth="yes"/>
      <point x="76" y="477"/>
      <point x="126" y="532"/>
      <point x="202" y="532" type="curve" smooth="yes"/>
      <point x="269" y="532"/>
      <point x="288" y="476"/>
      <point x="288" y="406" type="curve"/>
      <point x="299" y="406"/>
      <point x="315" y="410"/>
      <point x="315" y="443" type="curve" smooth="yes"/>
      <point x="315" y="490"/>
      <point x="279" y="542"/>
      <point x="199" y="542" type="curve" smooth="yes"/>
      <point x="111" y="542"/>
      <point x="48" y="480"/>
      <point x="48" y="270" type="curve" smooth="yes"/>
      <point x="48" y="56"/>
      <point x="113" y="-10"/>
    </contour>
  </outline>
</glyph>
<glyph name="d" format="2">
  <advance width="413"/>
  <unicode hex="0064"/>
  <anchor x="197" y="0" name="bottom"/>
  <anchor x="207" y="264" name="center"/>
  <anchor x="187" y="760" name="top"/>
  <anchor x="393" y="760" name="topright"/>
  <outline>
    <contour>
      <point x="190" y="-10" type="curve" smooth="yes"/>
      <point x="268" y="-10"/>
      <point x="306" y="52"/>
      <point x="318" y="106" type="curve"/>
      <point x="320" y="106" type="line"/>
      <point x="324" y="0" type="line"/>
      <point x="345" y="0" type="line"/>
      <point x="345" y="760" type="line"/>
      <point x="318" y="760" type="line"/>
      <point x="318" y="497" type="line" smooth="yes"/>
      <point x="318" y="475"/>
      <point x="319" y="454"/>
      <point x="320" y="429" type="curve"/>
      <point x="318" y="429" type="line"/>
      <point x="307" y="479"/>
      <point x="266" y="537"/>
      <point x="193" y="537" type="curve" smooth="yes"/>
      <point x="99" y="537"/>
      <point x="45" y="440"/>
      <point x="45" y="256" type="curve" smooth="yes"/>
      <point x="45" y="82"/>
      <point x="94" y="-10"/>
    </contour>
    <contour>
      <point x="192" y="15" type="curve" smooth="yes"/>
      <point x="107" y="15"/>
      <point x="72" y="104"/>
      <point x="72" y="256" type="curve" smooth="yes"/>
      <point x="72" y="424"/>
      <point x="115" y="512"/>
      <point x="195" y="512" type="curve" smooth="yes"/>
      <point x="272" y="512"/>
      <point x="318" y="432"/>
      <point x="318" y="315" type="curve" smooth="yes"/>
      <point x="318" y="221" type="line" smooth="yes"/>
      <point x="318" y="97"/>
      <point x="273" y="15"/>
    </contour>
  </outline>
</glyph>
<glyph name="d.serif" format="2">
  <advance width="439"/>
  <unicode hex="0064"/>
  <anchor x="220" y="0" name="bottom"/>
  <anchor x="220" y="268" name="center"/>
  <anchor x="220" y="760" name="top"/>
  <anchor x="409" y="760" name="topright"/>
  <outline>
    <contour>
      <point x="198" y="-10" type="curve" smooth="yes"/>
      <point x="261" y="-10"/>
      <point x="301" y="32"/>
      <point x="322" y="122" type="curve"/>
      <point x="324" y="122" type="line"/>
      <point x="324" y="0" type="line"/>
      <point x="425" y="0" type="line"/>
      <point x="425" y="10" type="line"/>
      <point x="415" y="10" type="line" smooth="yes"/>
      <point x="361" y="10"/>
      <point x="352" y="17"/>
      <point x="352" y="76" type="curve" smooth="yes"/>
      <point x="352" y="760" type="line"/>
      <point x="257" y="760" type="line"/>
      <point x="257" y="750" type="line"/>
      <point x="262" y="750" type="line" smooth="yes"/>
      <point x="318" y="750"/>
      <point x="324" y="745"/>
      <point x="324" y="666" type="curve" smooth="yes"/>
      <point x="324" y="544" type="line" smooth="yes"/>
      <point x="324" y="509"/>
      <point x="324" y="476"/>
      <point x="326" y="415" type="curve"/>
      <point x="324" y="415" type="line"/>
      <point x="307" y="503"/>
      <point x="268" y="544"/>
      <point x="202" y="544" type="curve" smooth="yes"/>
      <point x="112" y="544"/>
      <point x="49" y="476"/>
      <point x="49" y="267" type="curve" smooth="yes"/>
      <point x="49" y="60"/>
      <point x="106" y="-10"/>
    </contour>
    <contour>
      <point x="199" y="0" type="curve" smooth="yes"/>
      <point x="121" y="0"/>
      <point x="77" y="72"/>
      <point x="77" y="265" type="curve" smooth="yes"/>
      <point x="77" y="467"/>
      <point x="126" y="534"/>
      <point x="204" y="534" type="curve" smooth="yes"/>
      <point x="294" y="534"/>
      <point x="325" y="444"/>
      <point x="325" y="265" type="curve" smooth="yes"/>
      <point x="325" y="88"/>
      <point x="281" y="0"/>
    </contour>
  </outline>
</glyph>
<glyph name="e" format="2">
  <advance width="369"/>
  <unicode hex="0065"/>
  <anchor x="195" y="0" name="bottom"/>
  <anchor x="185" y="527" name="top"/>
  <anchor x="351" y="527" name="topright"/>
  <outline>
    <contour>
      <point x="190" y="537" type="curve" smooth="yes"/>
      <point x="92" y="537"/>
      <point x="46" y="429"/>
      <point x="46" y="264" type="curve" smooth="yes"/>
      <point x="46" y="94"/>
      <point x="96" y="-10"/>
      <point x="208" y="-10" type="curve" smooth="yes"/>
      <point x="248" y="-10"/>
      <point x="282" y="3"/>
      <point x="310" y="22" type="curve"/>
      <point x="310" y="52" type="line"/>
      <point x="276" y="27"/>
      <point x="243" y="15"/>
      <point x="209" y="15" type="curve" smooth="yes"/>
      <point x="117" y="15"/>
      <point x="72" y="106"/>
      <point x="72" y="273" type="curve"/>
      <point x="325" y="273" type="line"/>
      <point x="325" y="301" type="line"/>
      <point x="325" y="421"/>
      <point x="292" y="537"/>
    </contour>
    <contour>
      <point x="190" y="512" type="curve" smooth="yes"/>
      <point x="270" y="512"/>
      <point x="301" y="414"/>
      <point x="301" y="297" type="curve"/>
      <point x="73" y="297" type="line"/>
      <point x="79" y="442"/>
      <point x="123" y="512"/>
    </contour>
  </outline>
</glyph>
<glyph name="e.serif" format="2">
  <advance width="379"/>
  <unicode hex="0065"/>
  <anchor x="200" y="0" name="bottom"/>
  <anchor x="200" y="536" name="top"/>
  <anchor x="359" y="536" name="topright"/>
  <outline>
    <contour>
      <point x="206" y="-10" type="curve" smooth="yes"/>
      <point x="280" y="-10"/>
      <point x="321" y="46"/>
      <point x="321" y="79" type="curve" smooth="yes"/>
      <point x="321" y="89"/>
      <point x="317" y="96"/>
      <point x="307" y="99" type="curve"/>
      <point x="296" y="42"/>
      <point x="263" y="0"/>
      <point x="205" y="0" type="curve" smooth="yes"/>
      <point x="125" y="0"/>
      <point x="76" y="82"/>
      <point x="76" y="277" type="curve"/>
      <point x="336" y="277" type="line"/>
      <point x="336" y="291" type="line" smooth="yes"/>
      <point x="336" y="445"/>
      <point x="289" y="542"/>
      <point x="197" y="542" type="curve" smooth="yes"/>
      <point x="102" y="542"/>
      <point x="48" y="450"/>
      <point x="48" y="262" type="curve" smooth="yes"/>
      <point x="48" y="89"/>
      <point x="108" y="-10"/>
    </contour>
    <contour>
      <point x="308" y="287" type="curve"/>
      <point x="76" y="287" type="line"/>
      <point x="80" y="446"/>
      <point x="119" y="532"/>
      <point x="197" y="532" type="curve" smooth="yes"/>
      <point x="276" y="532"/>
      <point x="306" y="442"/>
    </contour>
  </outline>
</glyph>
<glyph name="f" format="2">
  <advance width="206"/>
  <unicode hex="0066"/>
  <anchor x="91" y="0" name="bottom"/>
  <anchor x="152" y="765" name="top"/>
  <anchor x="247" y="765" name="topright"/>
  <outline>
    <contour>
      <point x="179" y="502" type="line"/>
      <point x="179" y="527" type="line"/>
      <point x="104" y="527" type="line"/>
      <point x="104" y="598" type="line" smooth="yes"/>
      <point x="104" y="701"/>
      <point x="121" y="741"/>
      <point x="173" y="741" type="curve" smooth="yes"/>
      <point x="188" y="741"/>
      <point x="206" y="738"/>
      <point x="220" y="730" type="curve"/>
      <point x="230" y="752" type="line"/>
      <point x="216" y="759"/>
      <point x="197" y="765"/>
      <point x="173" y="765" type="curve" smooth="yes"/>
      <point x="102" y="765"/>
      <point x="78" y="715"/>
      <point x="78" y="605" type="curve" smooth="yes"/>
      <point x="78" y="528" type="line"/>
      <point x="10" y="523" type="line"/>
      <point x="10" y="502" type="line"/>
      <point x="78" y="502" type="line"/>
      <point x="78" y="0" type="line"/>
      <point x="104" y="0" type="line"/>
      <point x="104" y="502" type="line"/>
    </contour>
  </outline>
</glyph>
<glyph name="f.serif" format="2">
  <advance width="250"/>
  <unicode hex="0066"/>
  <anchor x="125" y="0" name="bottom"/>
  <anchor x="193" y="772" name="top"/>
  <anchor x="320" y="772" name="topright"/>
  <outline>
    <contour>
      <point x="27" y="0" type="line"/>
      <point x="221" y="0" type="line"/>
      <point x="221" y="10" type="line"/>
      <point x="184" y="10" type="line" smooth="yes"/>
      <point x="134" y="10"/>
      <point x="128" y="19"/>
      <point x="128" y="93" type="curve" smooth="yes"/>
      <point x="128" y="526" type="line"/>
      <point x="238" y="526" type="line"/>
      <point x="238" y="536" type="line"/>
      <point x="128" y="536" type="line"/>
      <point x="128" y="602" type="line" smooth="yes"/>
      <point x="128" y="717"/>
      <point x="153" y="762"/>
      <point x="217" y="762" type="curve" smooth="yes"/>
      <point x="265" y="762"/>
      <point x="275" y="723"/>
      <point x="275" y="665" type="curve"/>
      <point x="285" y="665"/>
      <point x="301" y="670"/>
      <point x="301" y="701" type="curve" smooth="yes"/>
      <point x="301" y="747"/>
      <point x="269" y="772"/>
      <point x="219" y="772" type="curve" smooth="yes"/>
      <point x="140" y="772"/>
      <point x="100" y="712"/>
      <point x="100" y="596" type="curve" smooth="yes"/>
      <point x="100" y="536" type="line"/>
      <point x="30" y="536" type="line"/>
      <point x="30" y="526" type="line"/>
      <point x="100" y="526" type="line"/>
      <point x="100" y="93" type="line" smooth="yes"/>
      <point x="100" y="19"/>
      <point x="94" y="10"/>
      <point x="44" y="10" type="curve" smooth="yes"/>
      <point x="27" y="10" type="line"/>
    </contour>
  </outline>
</glyph>
<glyph name="g" format="2">
  <advance width="411"/>
  <unicode hex="0067"/>
  <anchor x="187" y="-242" name="bottom"/>
  <anchor x="196" y="527" name="top"/>
  <anchor x="361" y="527" name="topright"/>
  <outline>
    <contour>
      <point x="196" y="537" type="curve" smooth="yes"/>
      <point x="90" y="537"/>
      <point x="45" y="433"/>
      <point x="45" y="262" type="curve" smooth="yes"/>
      <point x="45" y="76"/>
      <point x="97" y="-10"/>
      <point x="190" y="-10" type="curve" smooth="yes"/>
      <point x="258" y="-10"/>
      <point x="302" y="43"/>
      <point x="316" y="111" type="curve"/>
      <point x="319" y="111" type="line"/>
      <point x="317" y="70"/>
      <point x="316" y="43"/>
      <point x="316" y="12" type="curve" smooth="yes"/>
      <point x="316" y="-35" type="line" smooth="yes"/>
      <point x="316" y="-163"/>
      <point x="267" y="-217"/>
      <point x="171" y="-217" type="curve" smooth="yes"/>
      <point x="127" y="-217"/>
      <point x="96" y="-205"/>
      <point x="61" y="-184" type="curve"/>
      <point x="61" y="-212" type="line"/>
      <point x="93" y="-232"/>
      <point x="129" y="-242"/>
      <point x="171" y="-242" type="curve" smooth="yes"/>
      <point x="289" y="-242"/>
      <point x="343" y="-173"/>
      <point x="343" y="-35" type="curve" smooth="yes"/>
      <point x="343" y="527" type="line"/>
      <point x="322" y="527" type="line"/>
      <point x="319" y="440" type="line"/>
      <point x="316" y="440" type="line"/>
      <point x="302" y="489"/>
      <point x="268" y="537"/>
    </contour>
    <contour>
      <point x="197" y="512" type="curve" smooth="yes"/>
      <point x="283" y="512"/>
      <point x="316" y="426"/>
      <point x="316" y="329" type="curve" smooth="yes"/>
      <point x="316" y="221" type="line" smooth="yes"/>
      <point x="316" y="126"/>
      <point x="283" y="15"/>
      <point x="190" y="15" type="curve" smooth="yes"/>
      <point x="112" y="15"/>
      <point x="71" y="93"/>
      <point x="71" y="262" type="curve" smooth="yes"/>
      <point x="71" y="411"/>
      <point x="105" y="512"/>
    </contour>
  </outline>
</glyph>
<glyph name="g.serif" format="2">
  <advance width="391"/>
  <unicode hex="0067"/>
  <anchor x="196" y="-242" name="bottom"/>
  <anchor x="196" y="536" name="top"/>
  <anchor x="391" y="536" name="topright"/>
  <outline>
    <contour>
      <point x="186" y="-242" type="curve" smooth="yes"/>
      <point x="292" y="-242"/>
      <point x="353" y="-173"/>
      <point x="353" y="-67" type="curve" smooth="yes"/>
      <point x="353" y="13"/>
      <point x="322" y="71"/>
      <point x="234" y="71" type="curve" smooth="yes"/>
      <point x="177" y="71" type="line" smooth="yes"/>
      <point x="136" y="71"/>
      <point x="107" y="96"/>
      <point x="107" y="137" type="curve" smooth="yes"/>
      <point x="107" y="159"/>
      <point x="115" y="179"/>
      <point x="139" y="205" type="curve"/>
      <point x="154" y="198"/>
      <point x="174" y="196"/>
      <point x="189" y="196" type="curve" smooth="yes"/>
      <point x="271" y="196"/>
      <point x="310" y="257"/>
      <point x="310" y="362" type="curve" smooth="yes"/>
      <point x="310" y="428"/>
      <point x="300" y="464"/>
      <point x="284" y="492" type="curve"/>
      <point x="294" y="517"/>
      <point x="306" y="529"/>
      <point x="323" y="529" type="curve" smooth="yes"/>
      <point x="346" y="529"/>
      <point x="354" y="513"/>
      <point x="354" y="483" type="curve"/>
      <point x="365" y="483"/>
      <point x="375" y="493"/>
      <point x="375" y="516" type="curve" smooth="yes"/>
      <point x="375" y="536"/>
      <point x="365" y="557"/>
      <point x="341" y="557" type="curve" smooth="yes"/>
      <point x="311" y="557"/>
      <point x="288" y="525"/>
      <point x="278" y="500" type="curve"/>
      <point x="256" y="528"/>
      <point x="227" y="542"/>
      <point x="191" y="542" type="curve" smooth="yes"/>
      <point x="111" y="542"/>
      <point x="64" y="489"/>
      <point x="64" y="357" type="curve" smooth="yes"/>
      <point x="64" y="288"/>
      <point x="89" y="231"/>
      <point x="131" y="209" type="curve"/>
      <point x="98" y="172"/>
      <point x="88" y="150"/>
      <point x="88" y="123" type="curve" smooth="yes"/>
      <point x="88" y="94"/>
      <point x="99" y="67"/>
      <point x="135" y="53" type="curve"/>
      <point x="69" y="28"/>
      <point x="33" y="-21"/>
      <point x="33" y="-93" type="curve" smooth="yes"/>
      <point x="33" y="-188"/>
      <point x="88" y="-242"/>
    </contour>
    <contour>
      <point x="187" y="-232" type="curve" smooth="yes"/>
      <point x="106" y="-232"/>
      <point x="61" y="-182"/>
      <point x="61" y="-92" type="curve" smooth="yes"/>
      <point x="61" y="-17"/>
      <point x="100" y="46"/>
      <point x="160" y="46" type="curve" smooth="yes"/>
      <point x="222" y="46" type="line" smooth="yes"/>
      <point x="304" y="46"/>
      <point x="325" y="4"/>
      <point x="325" y="-67" type="curve" smooth="yes"/>
      <point x="325" y="-168"/>
      <point x="286" y="-232"/>
    </contour>
    <contour>
      <point x="188" y="206" type="curve" smooth="yes"/>
      <point x="123" y="206"/>
      <point x="92" y="256"/>
      <point x="92" y="364" type="curve" smooth="yes"/>
      <point x="92" y="487"/>
      <point x="129" y="532"/>
      <point x="186" y="532" type="curve" smooth="yes"/>
      <point x="249" y="532"/>
      <point x="282" y="494"/>
      <point x="282" y="365" type="curve" smooth="yes"/>
      <point x="282" y="255"/>
      <point x="252" y="206"/>
    </contour>
  </outline>
</glyph>
<glyph name="h" format="2">
  <advance width="397"/>
  <unicode hex="0068"/>
  <anchor x="199" y="0" name="bottom"/>
  <anchor x="199" y="264" name="center"/>
  <anchor x="82" y="760" name="top"/>
  <anchor x="317" y="760" name="topright"/>
  <outline>
    <contour>
      <point x="95" y="492" type="curve" smooth="yes"/>
      <point x="95" y="760" type="line"/>
      <point x="69" y="760" type="line"/>
      <point x="69" y="0" type="line"/>
      <point x="95" y="0" type="line"/>
      <point x="95" y="298" type="line" smooth="yes"/>
      <point x="95" y="447"/>
      <point x="154" y="512"/>
      <point x="217" y="512" type="curve" smooth="yes"/>
      <point x="267" y="512"/>
      <point x="304" y="472"/>
      <point x="304" y="360" type="curve" smooth="yes"/>
      <point x="304" y="0" type="line"/>
      <point x="330" y="0" type="line"/>
      <point x="330" y="366" type="line" smooth="yes"/>
      <point x="330" y="481"/>
      <point x="291" y="537"/>
      <point x="218" y="537" type="curve" smooth="yes"/>
      <point x="144" y="537"/>
      <point x="111" y="475"/>
      <point x="95" y="424" type="curve"/>
      <point x="93" y="424" type="line"/>
      <point x="95" y="446"/>
      <point x="95" y="461"/>
    </contour>
  </outline>
</glyph>
<glyph name="i" format="2">
  <advance width="172"/>
  <unicode hex="0069"/>
  <anchor x="87" y="0" name="bottom"/>
  <anchor x="87" y="724" name="top"/>
  <anchor x="153" y="724" name="topright"/>
  <outline>
    <contour>
      <point x="101" y="527" type="line"/>
      <point x="75" y="527" type="line"/>
      <point x="75" y="0" type="line"/>
      <point x="101" y="0" type="line"/>
    </contour>
    <contour>
      <point x="89" y="724" type="curve" smooth="yes"/>
      <point x="69" y="724"/>
      <point x="63" y="706"/>
      <point x="63" y="690" type="curve" smooth="yes"/>
      <point x="63" y="672"/>
      <point x="71" y="656"/>
      <point x="88" y="656" type="curve" smooth="yes"/>
      <point x="104" y="656"/>
      <point x="113" y="670"/>
      <point x="113" y="691" type="curve" smooth="yes"/>
      <point x="113" y="707"/>
      <point x="107" y="724"/>
    </contour>
  </outline>
</glyph>
<glyph name="i.serif" format="2">
  <advance width="219"/>
  <unicode hex="0069"/>
  <anchor x="110" y="0" name="bottom"/>
  <anchor x="114" y="738" name="top"/>
  <anchor x="179" y="738" name="topright"/>
  <outline>
    <contour>
      <point x="22" y="0" type="line"/>
      <point x="212" y="0" type="line"/>
      <point x="212" y="10" type="line"/>
      <point x="199" y="10" type="line" smooth="yes"/>
      <point x="139" y="10"/>
      <point x="133" y="16"/>
      <point x="133" y="86" type="curve" smooth="yes"/>
      <point x="133" y="536" type="line"/>
      <point x="37" y="536" type="line"/>
      <point x="37" y="526" type="line"/>
      <point x="43" y="526" type="line" smooth="yes"/>
      <point x="101" y="526"/>
      <point x="105" y="518"/>
      <point x="105" y="447" type="curve" smooth="yes"/>
      <point x="105" y="86" type="line" smooth="yes"/>
      <point x="105" y="16"/>
      <point x="99" y="10"/>
      <point x="38" y="10" type="curve" smooth="yes"/>
      <point x="22" y="10" type="line"/>
    </contour>
    <contour>
      <point x="114" y="658" type="curve" smooth="yes"/>
      <point x="126" y="658"/>
      <point x="136" y="666"/>
      <point x="136" y="698" type="curve" smooth="yes"/>
      <point x="136" y="729"/>
      <point x="126" y="738"/>
      <point x="114" y="738" type="curve" smooth="yes"/>
      <point x="101" y="738"/>
      <point x="93" y="729"/>
      <point x="93" y="698" type="curve" smooth="yes"/>
      <point x="93" y="666"/>
      <point x="101" y="658"/>
    </contour>
  </outline>
</glyph>
<glyph name="j" format="2">
  <advance width="173"/>
  <unicode hex="006A"/>
  <anchor x="28" y="-242" name="bottom"/>
  <anchor x="87" y="724" name="top"/>
  <anchor x="153" y="724" name="topright"/>
  <outline>
    <contour>
      <point x="27" y="-242" type="curve" smooth="yes"/>
      <point x="68" y="-242"/>
      <point x="98" y="-216"/>
      <point x="98" y="-125" type="curve" smooth="yes"/>
      <point x="98" y="527" type="line"/>
      <point x="72" y="527" type="line"/>
      <point x="72" y="-117" type="line" smooth="yes"/>
      <point x="72" y="-184"/>
      <point x="60" y="-216"/>
      <point x="25" y="-216" type="curve" smooth="yes"/>
      <point x="16" y="-216"/>
      <point x="5" y="-213"/>
      <point x="-2" y="-209" type="curve"/>
      <point x="-2" y="-236" type="line"/>
      <point x="4" y="-239"/>
      <point x="13" y="-242"/>
    </contour>
    <contour>
      <point x="62" y="690" type="curve" smooth="yes"/>
      <point x="62" y="672"/>
      <point x="70" y="656"/>
      <point x="87" y="656" type="curve" smooth="yes"/>
      <point x="103" y="656"/>
      <point x="113" y="670"/>
      <point x="113" y="691" type="curve" smooth="yes"/>
      <point x="113" y="707"/>
      <point x="107" y="724"/>
      <point x="88" y="724" type="curve" smooth="yes"/>
      <point x="68" y="724"/>
      <point x="62" y="706"/>
    </contour>
  </outline>
</glyph>
<glyph name="j.serif" format="2">
  <advance width="211"/>
  <unicode hex="006A"/>
  <anchor x="76" y="-240" name="bottom"/>
  <anchor x="111" y="738" name="top"/>
  <anchor x="176" y="738" name="topright"/>
  <outline>
    <contour>
      <point x="12" y="-240" type="line"/>
      <point x="21" y="-240" type="line" smooth="yes"/>
      <point x="81" y="-240"/>
      <point x="131" y="-201"/>
      <point x="131" y="-18" type="curve" smooth="yes"/>
      <point x="131" y="536" type="line"/>
      <point x="36" y="536" type="line"/>
      <point x="36" y="526" type="line"/>
      <point x="47" y="526" type="line" smooth="yes"/>
      <point x="97" y="526"/>
      <point x="103" y="516"/>
      <point x="103" y="450" type="curve" smooth="yes"/>
      <point x="103" y="-35" type="line" smooth="yes"/>
      <point x="103" y="-186"/>
      <point x="70" y="-230"/>
      <point x="17" y="-230" type="curve" smooth="yes"/>
      <point x="12" y="-230" type="line"/>
    </contour>
    <contour>
      <point x="112" y="658" type="curve" smooth="yes"/>
      <point x="124" y="658"/>
      <point x="134" y="666"/>
      <point x="134" y="698" type="curve" smooth="yes"/>
      <point x="134" y="729"/>
      <point x="124" y="738"/>
      <point x="112" y="738" type="curve" smooth="yes"/>
      <point x="101" y="738"/>
      <point x="90" y="729"/>
      <point x="90" y="698" type="curve" smooth="yes"/>
      <point x="90" y="666"/>
      <point x="101" y="658"/>
    </contour>
  </outline>
</glyph>
<glyph name="k" format="2">
  <advance width="316"/>
  <unicode hex="006B"/>
  <anchor x="159" y="0" name="bottom"/>
  <anchor x="82" y="760" name="top"/>
  <anchor x="237" y="800" name="topright"/>
  <outline>
    <contour>
      <point x="95" y="361" type="curve" smooth="yes"/>
      <point x="95" y="760" type="line"/>
      <point x="69" y="760" type="line"/>
      <point x="69" y="0" type="line"/>
      <point x="95" y="0" type="line"/>
      <point x="95" y="197" type="line"/>
      <point x="163" y="304" type="line"/>
      <point x="283" y="0" type="line"/>
      <point x="309" y="0" type="line"/>
      <point x="180" y="329" type="line"/>
      <point x="297" y="527" type="line"/>
      <point x="268" y="527" type="line"/>
      <point x="125" y="285" type="line" smooth="yes"/>
      <point x="114" y="266"/>
      <point x="108" y="255"/>
      <point x="95" y="233" type="curve"/>
      <point x="94" y="233" type="line"/>
      <point x="95" y="278"/>
      <point x="95" y="314"/>
    </contour>
  </outline>
</glyph>
<glyph name="l" format="2">
  <advance width="163"/>
  <unicode hex="006C"/>
  <anchor x="82" y="0" name="bottom"/>
  <anchor x="82" y="264" name="center"/>
  <anchor x="82" y="760" name="top"/>
  <anchor x="143" y="760" name="topright"/>
  <outline>
    <contour>
      <point x="95" y="0" type="line"/>
      <point x="95" y="760" type="line"/>
      <point x="69" y="760" type="line"/>
      <point x="69" y="0" type="line"/>
    </contour>
  </outline>
</glyph>
<glyph name="m" format="2">
  <advance width="592"/>
  <unicode hex="006D"/>
  <anchor x="298" y="0" name="bottom"/>
  <anchor x="296" y="527" name="top"/>
  <anchor x="572" y="527" name="topright"/>
  <outline>
    <contour>
      <point x="418" y="537" type="curve" smooth="yes"/>
      <point x="354" y="537"/>
      <point x="325" y="491"/>
      <point x="305" y="431" type="curve"/>
      <point x="302" y="431" type="line"/>
      <point x="295" y="486"/>
      <point x="270" y="537"/>
      <point x="204" y="537" type="curve" smooth="yes"/>
      <point x="132" y="537"/>
      <point x="108" y="474"/>
      <point x="93" y="428" type="curve"/>
      <point x="91" y="428" type="line"/>
      <point x="87" y="527" type="line"/>
      <point x="69" y="527" type="line"/>
      <point x="69" y="0" type="line"/>
      <point x="95" y="0" type="line"/>
      <point x="95" y="337" type="line" smooth="yes"/>
      <point x="95" y="422"/>
      <point x="129" y="513"/>
      <point x="204" y="513" type="curve" smooth="yes"/>
      <point x="249" y="513"/>
      <point x="285" y="479"/>
      <point x="285" y="355" type="curve" smooth="yes"/>
      <point x="285" y="0" type="line"/>
      <point x="311" y="0" type="line"/>
      <point x="311" y="341" type="line" smooth="yes"/>
      <point x="311" y="444"/>
      <point x="353" y="513"/>
      <point x="416" y="513" type="curve" smooth="yes"/>
      <point x="463" y="513"/>
      <point x="498" y="475"/>
      <point x="498" y="372" type="curve" smooth="yes"/>
      <point x="498" y="0" type="line"/>
      <point x="525" y="0" type="line"/>
      <point x="525" y="374" type="line" smooth="yes"/>
      <point x="525" y="487"/>
      <point x="484" y="537"/>
    </contour>
  </outline>
</glyph>
<glyph name="n" format="2">
  <advance width="397"/>
  <unicode hex="006E"/>
  <anchor x="199" y="0" name="bottom"/>
  <anchor x="199" y="527" name="top"/>
  <anchor x="347" y="527" name="topright"/>
  <outline>
    <contour>
      <point x="219" y="537" type="curve" smooth="yes"/>
      <point x="142" y="537"/>
      <point x="106" y="474"/>
      <point x="93" y="415" type="curve"/>
      <point x="91" y="415" type="line"/>
      <point x="87" y="527" type="line"/>
      <point x="69" y="527" type="line"/>
      <point x="69" y="0" type="line"/>
      <point x="95" y="0" type="line"/>
      <point x="95" y="311" type="line" smooth="yes"/>
      <point x="95" y="445"/>
      <point x="152" y="513"/>
      <point x="219" y="513" type="curve" smooth="yes"/>
      <point x="271" y="513"/>
      <point x="304" y="471"/>
      <point x="304" y="365" type="curve" smooth="yes"/>
      <point x="304" y="0" type="line"/>
      <point x="330" y="0" type="line"/>
      <point x="330" y="375" type="line" smooth="yes"/>
      <point x="330" y="488"/>
      <point x="290" y="537"/>
    </contour>
  </outline>
</glyph>
<glyph name="n.serif" format="2">
  <advance width="473"/>
  <unicode hex="006E"/>
  <anchor x="237" y="0" name="bottom"/>
  <anchor x="237" y="536" name="top"/>
  <anchor x="453" y="536" name="topright"/>
  <outline>
    <contour>
      <point x="28" y="0" type="line"/>
      <point x="203" y="0" type="line"/>
      <point x="203" y="10" type="line"/>
      <point x="197" y="10" type="line" smooth="yes"/>
      <point x="137" y="10"/>
      <point x="131" y="16"/>
      <point x="131" y="86" type="curve" smooth="yes"/>
      <point x="131" y="333" type="line" smooth="yes"/>
      <point x="131" y="477"/>
      <point x="186" y="527"/>
      <point x="253" y="527" type="curve" smooth="yes"/>
      <point x="326" y="527"/>
      <point x="353" y="467"/>
      <point x="353" y="364" type="curve" smooth="yes"/>
      <point x="353" y="0" type="line"/>
      <point x="449" y="0" type="line"/>
      <point x="449" y="10" type="line"/>
      <point x="445" y="10" type="line" smooth="yes"/>
      <point x="387" y="10"/>
      <point x="381" y="16"/>
      <point x="381" y="86" type="curve" smooth="yes"/>
      <point x="381" y="363" type="line" smooth="yes"/>
      <point x="381" y="486"/>
      <point x="343" y="542"/>
      <point x="253" y="542" type="curve" smooth="yes"/>
      <point x="189" y="542"/>
      <point x="150" y="497"/>
      <point x="132" y="431" type="curve"/>
      <point x="130" y="431" type="line"/>
      <point x="130" y="536" type="line"/>
      <point x="31" y="536" type="line"/>
      <point x="31" y="526" type="line"/>
      <point x="36" y="526" type="line" smooth="yes"/>
      <point x="97" y="526"/>
      <point x="103" y="521"/>
      <point x="103" y="451" type="curve" smooth="yes"/>
      <point x="103" y="86" type="line" smooth="yes"/>
      <point x="103" y="16"/>
      <point x="97" y="10"/>
      <point x="36" y="10" type="curve" smooth="yes"/>
      <point x="28" y="10" type="line"/>
    </contour>
  </outline>
</glyph>
<glyph name="o" format="2">
  <advance width="393"/>
  <unicode hex="006F"/>
  <anchor x="197" y="0" name="bottom"/>
  <anchor x="197" y="264" name="center"/>
  <anchor x="197" y="527" name="top"/>
  <anchor x="363" y="527" name="topright"/>
  <outline>
    <contour>
      <point x="348" y="264" type="curve" smooth="yes"/>
      <point x="348" y="433"/>
      <point x="306" y="537"/>
      <point x="197" y="537" type="curve" smooth="yes"/>
      <point x="94" y="537"/>
      <point x="45" y="444"/>
      <point x="45" y="266" type="curve" smooth="yes"/>
      <point x="45" y="80"/>
      <point x="98" y="-10"/>
      <point x="199" y="-10" type="curve" smooth="yes"/>
      <point x="298" y="-10"/>
      <point x="348" y="77"/>
    </contour>
    <contour>
      <point x="71" y="266" type="curve" smooth="yes"/>
      <point x="71" y="424"/>
      <point x="108" y="512"/>
      <point x="197" y="512" type="curve" smooth="yes"/>
      <point x="289" y="512"/>
      <point x="321" y="418"/>
      <point x="321" y="265" type="curve" smooth="yes"/>
      <point x="321" y="94"/>
      <point x="283" y="15"/>
      <point x="198" y="15" type="curve" smooth="yes"/>
      <point x="111" y="15"/>
      <point x="71" y="102"/>
    </contour>
  </outline>
</glyph>
<glyph name="q" format="2">
  <advance width="411"/>
  <unicode hex="0071"/>
  <anchor x="330" y="-232" name="bottom"/>
  <anchor x="206" y="527" name="top"/>
  <anchor x="391" y="527" name="topright"/>
  <outline>
    <contour>
      <point x="316" y="30" type="curve" smooth="yes"/>
      <point x="316" y="-232" type="line"/>
      <point x="343" y="-232" type="line"/>
      <point x="343" y="527" type="line"/>
      <point x="322" y="527" type="line"/>
      <point x="319" y="427" type="line"/>
      <point x="317" y="427" type="line"/>
      <point x="305" y="488"/>
      <point x="266" y="537"/>
      <point x="197" y="537" type="curve" smooth="yes"/>
      <point x="97" y="537"/>
      <point x="45" y="435"/>
      <point x="45" y="259" type="curve" smooth="yes"/>
      <point x="45" y="82"/>
      <point x="97" y="-10"/>
      <point x="192" y="-10" type="curve" smooth="yes"/>
      <point x="260" y="-10"/>
      <point x="298" y="40"/>
      <point x="316" y="110" type="curve"/>
      <point x="319" y="110" type="line"/>
      <point x="317" y="81"/>
      <point x="316" y="45"/>
    </contour>
    <contour>
      <point x="193" y="15" type="curve" smooth="yes"/>
      <point x="123" y="15"/>
      <point x="71" y="91"/>
      <point x="71" y="259" type="curve" smooth="yes"/>
      <point x="71" y="417"/>
      <point x="115" y="511"/>
      <point x="198" y="511" type="curve" smooth="yes"/>
      <point x="270" y="511"/>
      <point x="316" y="437"/>
      <point x="316" y="323" type="curve" smooth="yes"/>
      <point x="316" y="213" type="line" smooth="yes"/>
      <point x="316" y="99"/>
      <point x="266" y="15"/>
    </contour>
  </outline>
</glyph>
<glyph name="r" format="2">
  <advance width="256"/>
  <unicode hex="0072"/>
  <anchor x="82" y="0" name="bottom"/>
  <anchor x="150" y="527" name="top"/>
  <anchor x="236" y="527" name="topright"/>
  <outline>
    <contour>
      <point x="203" y="535" type="curve" smooth="yes"/>
      <point x="138" y="535"/>
      <point x="111" y="462"/>
      <point x="96" y="409" type="curve"/>
      <point x="94" y="409" type="line"/>
      <point x="89" y="527" type="line"/>
      <point x="69" y="527" type="line"/>
      <point x="69" y="0" type="line"/>
      <point x="95" y="0" type="line"/>
      <point x="95" y="277" type="line" smooth="yes"/>
      <point x="95" y="380"/>
      <point x="132" y="509"/>
      <point x="203" y="509" type="curve" smooth="yes"/>
      <point x="216" y="509"/>
      <point x="231" y="504"/>
      <point x="239" y="500" type="curve"/>
      <point x="247" y="524" type="line"/>
      <point x="233" y="532"/>
      <point x="216" y="535"/>
    </contour>
  </outline>
</glyph>
<glyph name="r.serif" format="2">
  <advance width="318"/>
  <unicode hex="0072"/>
  <anchor x="119" y="0" name="bottom"/>
  <anchor x="189" y="536" name="top"/>
  <anchor x="338" y="536" name="topright"/>
  <outline>
    <contour>
      <point x="36" y="0" type="line"/>
      <point x="212" y="0" type="line"/>
      <point x="212" y="10" type="line"/>
      <point x="201" y="10" type="line" smooth="yes"/>
      <point x="138" y="10"/>
      <point x="132" y="15"/>
      <point x="132" y="86" type="curve" smooth="yes"/>
      <point x="132" y="274" type="line" smooth="yes"/>
      <point x="132" y="433"/>
      <point x="173" y="529"/>
      <point x="239" y="529" type="curve" smooth="yes"/>
      <point x="271" y="529"/>
      <point x="281" y="507"/>
      <point x="281" y="443" type="curve"/>
      <point x="297" y="443"/>
      <point x="307" y="460"/>
      <point x="307" y="484" type="curve" smooth="yes"/>
      <point x="307" y="517"/>
      <point x="287" y="544"/>
      <point x="243" y="544" type="curve" smooth="yes"/>
      <point x="177" y="544"/>
      <point x="151" y="481"/>
      <point x="133" y="404" type="curve"/>
      <point x="131" y="404" type="line"/>
      <point x="131" y="536" type="line"/>
      <point x="31" y="536" type="line"/>
      <point x="31" y="526" type="line"/>
      <point x="34" y="526" type="line" smooth="yes"/>
      <point x="98" y="526"/>
      <point x="104" y="521"/>
      <point x="104" y="450" type="curve" smooth="yes"/>
      <point x="104" y="86" type="line" smooth="yes"/>
      <point x="104" y="15"/>
      <point x="98" y="10"/>
      <point x="37" y="10" type="curve" smooth="yes"/>
      <point x="36" y="10" type="line"/>
    </contour>
  </outline>
</glyph>
<glyph name="s" format="2">
  <advance width="303"/>
  <unicode hex="0073"/>
  <anchor x="152" y="0" name="bottom"/>
  <anchor x="152" y="527" name="top"/>
  <anchor x="284" y="527" name="topright"/>
  <outline>
    <contour>
      <point x="270" y="123" type="curve" smooth="yes"/>
      <point x="270" y="210"/>
      <point x="221" y="239"/>
      <point x="158" y="280" type="curve" smooth="yes"/>
      <point x="96" y="320"/>
      <point x="64" y="349"/>
      <point x="64" y="407" type="curve" smooth="yes"/>
      <point x="64" y="475"/>
      <point x="107" y="512"/>
      <point x="169" y="512" type="curve" smooth="yes"/>
      <point x="200" y="512"/>
      <point x="233" y="503"/>
      <point x="255" y="487" type="curve"/>
      <point x="268" y="510" type="line"/>
      <point x="242" y="527"/>
      <point x="207" y="537"/>
      <point x="170" y="537" type="curve" smooth="yes"/>
      <point x="80" y="537"/>
      <point x="38" y="479"/>
      <point x="38" y="408" type="curve" smooth="yes"/>
      <point x="38" y="330"/>
      <point x="87" y="296"/>
      <point x="152" y="254" type="curve" smooth="yes"/>
      <point x="209" y="217"/>
      <point x="243" y="195"/>
      <point x="243" y="125" type="curve" smooth="yes"/>
      <point x="243" y="56"/>
      <point x="210" y="16"/>
      <point x="143" y="16" type="curve" smooth="yes"/>
      <point x="102" y="16"/>
      <point x="63" y="31"/>
      <point x="35" y="52" type="curve"/>
      <point x="35" y="21" type="line"/>
      <point x="57" y="6"/>
      <point x="95" y="-10"/>
      <point x="143" y="-10" type="curve" smooth="yes"/>
      <point x="228" y="-10"/>
      <point x="270" y="43"/>
    </contour>
  </outline>
</glyph>
<glyph name="t" format="2">
  <advance width="204"/>
  <unicode hex="0074"/>
  <anchor x="130" y="0" name="bottom"/>
  <anchor x="102" y="264" name="center"/>
  <anchor x="83" y="656" name="top"/>
  <anchor x="124" y="800" name="topright"/>
  <outline>
    <contour>
      <point x="143" y="14" type="curve" smooth="yes"/>
      <point x="105" y="14"/>
      <point x="95" y="44"/>
      <point x="95" y="108" type="curve" smooth="yes"/>
      <point x="95" y="503" type="line"/>
      <point x="191" y="503" type="line"/>
      <point x="191" y="527" type="line"/>
      <point x="95" y="527" type="line"/>
      <point x="95" y="656" type="line"/>
      <point x="74" y="656" type="line"/>
      <point x="67" y="528" type="line"/>
      <point x="20" y="521" type="line"/>
      <point x="20" y="503" type="line"/>
      <point x="69" y="503" type="line"/>
      <point x="69" y="112" type="line" smooth="yes"/>
      <point x="69" y="32"/>
      <point x="82" y="-10"/>
      <point x="142" y="-10" type="curve" smooth="yes"/>
      <point x="161" y="-10"/>
      <point x="174" y="-6"/>
      <point x="187" y="0" type="curve"/>
      <point x="187" y="25" type="line"/>
      <point x="177" y="19"/>
      <point x="160" y="14"/>
    </contour>
  </outline>
</glyph>
<glyph name="t.serif" format="2">
  <advance width="229"/>
  <unicode hex="0074"/>
  <anchor x="155" y="0" name="bottom"/>
  <anchor x="115" y="268" name="center"/>
  <anchor x="91" y="657" name="top"/>
  <anchor x="119" y="930" name="topright"/>
  <outline>
    <contour>
      <point x="167" y="-10" type="curve" smooth="yes"/>
      <point x="178" y="-10"/>
      <point x="194" y="-8"/>
      <point x="209" y="-5" type="curve"/>
      <point x="209" y="5" type="line"/>
      <point x="190" y="1"/>
      <point x="180" y="0"/>
      <point x="165" y="0" type="curve" smooth="yes"/>
      <point x="123" y="0"/>
      <point x="101" y="25"/>
      <point x="101" y="125" type="curve" smooth="yes"/>
      <point x="101" y="526" type="line"/>
      <point x="201" y="526" type="line"/>
      <point x="201" y="536" type="line"/>
      <point x="101" y="536" type="line"/>
      <point x="101" y="657" type="line"/>
      <point x="91" y="657" type="line"/>
      <point x="90" y="616"/>
      <point x="90" y="581"/>
      <point x="73" y="559" type="curve" smooth="yes"/>
      <point x="64" y="546"/>
      <point x="48" y="538"/>
      <point x="13" y="536" type="curve"/>
      <point x="13" y="526" type="line"/>
      <point x="73" y="526" type="line"/>
      <point x="73" y="141" type="line" smooth="yes"/>
      <point x="73" y="26"/>
      <point x="99" y="-10"/>
    </contour>
  </outline>
</glyph>
<glyph name="u" format="2">
  <advance width="397"/>
  <unicode hex="0075"/>
  <anchor x="198" y="0" name="bottom"/>
  <anchor x="199" y="527" name="top"/>
  <anchor x="377" y="527" name="topright"/>
  <outline>
    <contour>
      <point x="328" y="527" type="line"/>
      <point x="302" y="527" type="line"/>
      <point x="302" y="228" type="line"/>
      <point x="302" y="82"/>
      <point x="254" y="15"/>
      <point x="180" y="15" type="curve" smooth="yes"/>
      <point x="124" y="15"/>
      <point x="93" y="60"/>
      <point x="93" y="167" type="curve" smooth="yes"/>
      <point x="93" y="527" type="line"/>
      <point x="67" y="527" type="line"/>
      <point x="67" y="159" type="line" smooth="yes"/>
      <point x="67" y="45"/>
      <point x="102" y="-10"/>
      <point x="178" y="-10" type="curve" smooth="yes"/>
      <point x="260" y="-10"/>
      <point x="291" y="54"/>
      <point x="305" y="112" type="curve"/>
      <point x="307" y="112" type="line"/>
      <point x="308" y="0" type="line"/>
      <point x="328" y="0" type="line"/>
    </contour>
  </outline>
</glyph>
<glyph name="u.serif" format="2">
  <advance width="458"/>
  <unicode hex="0075"/>
  <anchor x="229" y="0" name="bottom"/>
  <anchor x="229" y="536" name="top"/>
  <anchor x="418" y="536" name="topright"/>
  <outline>
    <contour>
      <point x="215" y="-10" type="curve" smooth="yes"/>
      <point x="276" y="-10"/>
      <point x="319" y="33"/>
      <point x="339" y="109" type="curve"/>
      <point x="341" y="109" type="line"/>
      <point x="341" y="0" type="line"/>
      <point x="440" y="0" type="line"/>
      <point x="440" y="10" type="line"/>
      <point x="438" y="10" type="line"/>
      <point x="372" y="10"/>
      <point x="367" y="14"/>
      <point x="367" y="91" type="curve" smooth="yes"/>
      <point x="367" y="536" type="line"/>
      <point x="266" y="536" type="line"/>
      <point x="266" y="526" type="line"/>
      <point x="269" y="526" type="line" smooth="yes"/>
      <point x="339" y="526"/>
      <point x="339" y="520"/>
      <point x="339" y="436" type="curve" smooth="yes"/>
      <point x="339" y="203" type="line" smooth="yes"/>
      <point x="339" y="89"/>
      <point x="301" y="5"/>
      <point x="217" y="5" type="curve" smooth="yes"/>
      <point x="147" y="5"/>
      <point x="115" y="60"/>
      <point x="115" y="183" type="curve" smooth="yes"/>
      <point x="115" y="536" type="line"/>
      <point x="12" y="536" type="line"/>
      <point x="12" y="526" type="line"/>
      <point x="16" y="526" type="line" smooth="yes"/>
      <point x="81" y="526"/>
      <point x="87" y="521"/>
      <point x="87" y="453" type="curve" smooth="yes"/>
      <point x="87" y="184" type="line" smooth="yes"/>
      <point x="87" y="44"/>
      <point x="135" y="-10"/>
    </contour>
  </outline>
</glyph>
<glyph name="v" format="2">
  <advance width="286"/>
  <unicode hex="0076"/>
  <anchor x="144" y="0" name="bottom"/>
  <anchor x="144" y="527" name="top"/>
  <anchor x="267" y="527" name="topright"/>
  <outline>
    <contour>
      <point x="126" y="0" type="line"/>
      <point x="158" y="0" type="line"/>
      <point x="281" y="527" type="line"/>
      <point x="254" y="527" type="line"/>
      <point x="168" y="152" type="line" smooth="yes"/>
      <point x="159" y="114"/>
      <point x="151" y="76"/>
      <point x="144" y="35" type="curve"/>
      <point x="141" y="35" type="line"/>
      <point x="134" y="77"/>
      <point x="124" y="114"/>
      <point x="116" y="152" type="curve" smooth="yes"/>
      <point x="32" y="527" type="line"/>
      <point x="5" y="527" type="line"/>
    </contour>
  </outline>
</glyph>
<glyph name="v.serif" format="2">
  <advance width="418"/>
  <unicode hex="0076"/>
  <anchor x="209" y="0" name="bottom"/>
  <anchor x="209" y="536" name="top"/>
  <anchor x="398" y="536" name="topright"/>
  <outline>
    <contour>
      <point x="57" y="478" type="curve" smooth="yes"/>
      <point x="195" y="0" type="line"/>
      <point x="210" y="0" type="line"/>
      <point x="346" y="478" type="line" smooth="yes"/>
      <point x="359" y="525"/>
      <point x="366" y="526"/>
      <point x="396" y="526" type="curve" smooth="yes"/>
      <point x="414" y="526" type="line"/>
      <point x="414" y="536" type="line"/>
      <point x="269" y="536" type="line"/>
      <point x="269" y="526" type="line"/>
      <point x="292" y="526" type="line" smooth="yes"/>
      <point x="332" y="526"/>
      <point x="338" y="521"/>
      <point x="338" y="504" type="curve" smooth="yes"/>
      <point x="338" y="490"/>
      <point x="328" y="451"/>
      <point x="306" y="374" type="curve" smooth="yes"/>
      <point x="260" y="214" type="line" smooth="yes"/>
      <point x="232" y="116"/>
      <point x="218" y="65"/>
      <point x="211" y="38" type="curve"/>
      <point x="202" y="79"/>
      <point x="182" y="154"/>
      <point x="165" y="211" type="curve" smooth="yes"/>
      <point x="102" y="417" type="line" smooth="yes"/>
      <point x="92" y="449"/>
      <point x="81" y="494"/>
      <point x="81" y="508" type="curve" smooth="yes"/>
      <point x="81" y="523"/>
      <point x="91" y="526"/>
      <point x="127" y="526" type="curve" smooth="yes"/>
      <point x="144" y="526" type="line"/>
      <point x="144" y="536" type="line"/>
      <point x="3" y="536" type="line"/>
      <point x="3" y="526" type="line"/>
      <point x="41" y="526"/>
      <point x="45" y="521"/>
    </contour>
  </outline>
</glyph>
<glyph name="w" format="2">
  <advance width="499"/>
  <unicode hex="0077"/>
  <anchor x="250" y="0" name="bottom"/>
  <anchor x="250" y="527" name="top"/>
  <anchor x="480" y="527" name="topright"/>
  <outline>
    <contour>
      <point x="271" y="390" type="curve" smooth="yes"/>
      <point x="350" y="0" type="line"/>
      <point x="377" y="0" type="line"/>
      <point x="489" y="527" type="line"/>
      <point x="463" y="527" type="line"/>
      <point x="384" y="151" type="line" smooth="yes"/>
      <point x="377" y="118"/>
      <point x="374" y="97"/>
      <point x="365" y="47" type="curve"/>
      <point x="363" y="47" type="line"/>
      <point x="358" y="82"/>
      <point x="351" y="121"/>
      <point x="344" y="156" type="curve" smooth="yes"/>
      <point x="268" y="527" type="line"/>
      <point x="238" y="527" type="line"/>
      <point x="162" y="163" type="line" smooth="yes"/>
      <point x="154" y="126"/>
      <point x="144" y="73"/>
      <point x="141" y="48" type="curve"/>
      <point x="139" y="48" type="line"/>
      <point x="131" y="83"/>
      <point x="123" y="119"/>
      <point x="115" y="157" type="curve" smooth="yes"/>
      <point x="35" y="527" type="line"/>
      <point x="10" y="527" type="line"/>
      <point x="124" y="0" type="line"/>
      <point x="154" y="0" type="line"/>
      <point x="235" y="390" type="line" smooth="yes"/>
      <point x="241" y="420"/>
      <point x="248" y="453"/>
      <point x="252" y="482" type="curve"/>
      <point x="253" y="482" type="line"/>
      <point x="258" y="453"/>
      <point x="265" y="422"/>
    </contour>
  </outline>
</glyph>
<glyph name="x" format="2">
  <advance width="305"/>
  <unicode hex="0078"/>
  <anchor x="153" y="0" name="bottom"/>
  <anchor x="153" y="527" name="top"/>
  <anchor x="286" y="527" name="topright"/>
  <outline>
    <contour>
      <point x="138" y="272" type="line"/>
      <point x="16" y="0" type="line"/>
      <point x="45" y="0" type="line"/>
      <point x="154" y="247" type="line"/>
      <point x="260" y="0" type="line"/>
      <point x="289" y="0" type="line"/>
      <point x="171" y="270" type="line"/>
      <point x="285" y="527" type="line"/>
      <point x="256" y="527" type="line"/>
      <point x="154" y="294" type="line"/>
      <point x="55" y="527" type="line"/>
      <point x="26" y="527" type="line"/>
    </contour>
  </outline>
</glyph>
<glyph name="x.serif" format="2">
  <advance width="386"/>
  <unicode hex="0078"/>
  <anchor x="193" y="0" name="bottom"/>
  <anchor x="193" y="536" name="top"/>
  <anchor x="366" y="536" name="topright"/>
  <outline>
    <contour>
      <point x="-1" y="0" type="line"/>
      <point x="167" y="0" type="line"/>
      <point x="167" y="10" type="line"/>
      <point x="114" y="10" type="line" smooth="yes"/>
      <point x="84" y="10"/>
      <point x="79" y="13"/>
      <point x="79" y="24" type="curve" smooth="yes"/>
      <point x="79" y="34"/>
      <point x="88" y="49"/>
      <point x="102" y="80" type="curve" smooth="yes"/>
      <point x="188" y="264" type="line"/>
      <point x="281" y="85" type="line" smooth="yes"/>
      <point x="298" y="53"/>
      <point x="308" y="34"/>
      <point x="308" y="24" type="curve" smooth="yes"/>
      <point x="308" y="15"/>
      <point x="305" y="10"/>
      <point x="267" y="10" type="curve" smooth="yes"/>
      <point x="234" y="10" type="line"/>
      <point x="234" y="0" type="line"/>
      <point x="384" y="0" type="line"/>
      <point x="384" y="10" type="line"/>
      <point x="383" y="10" type="line" smooth="yes"/>
      <point x="358" y="10"/>
      <point x="349" y="14"/>
      <point x="326" y="58" type="curve" smooth="yes"/>
      <point x="202" y="296" type="line"/>
      <point x="287" y="478" type="line" smooth="yes"/>
      <point x="308" y="524"/>
      <point x="319" y="526"/>
      <point x="353" y="526" type="curve" smooth="yes"/>
      <point x="364" y="526" type="line"/>
      <point x="364" y="536" type="line"/>
      <point x="207" y="536" type="line"/>
      <point x="207" y="526" type="line"/>
      <point x="246" y="526" type="line" smooth="yes"/>
      <point x="284" y="526"/>
      <point x="287" y="521"/>
      <point x="287" y="511" type="curve" smooth="yes"/>
      <point x="287" y="501"/>
      <point x="277" y="481"/>
      <point x="263" y="450" type="curve" smooth="yes"/>
      <point x="196" y="308" type="line"/>
      <point x="120" y="452" type="line" smooth="yes"/>
      <point x="104" y="483"/>
      <point x="95" y="502"/>
      <point x="95" y="512" type="curve" smooth="yes"/>
      <point x="95" y="521"/>
      <point x="98" y="526"/>
      <point x="135" y="526" type="curve" smooth="yes"/>
      <point x="161" y="526" type="line"/>
      <point x="161" y="536" type="line"/>
      <point x="13" y="536" type="line"/>
      <point x="13" y="526" type="line"/>
      <point x="15" y="526" type="line" smooth="yes"/>
      <point x="44" y="526"/>
      <point x="53" y="522"/>
      <point x="76" y="478" type="curve" smooth="yes"/>
      <point x="182" y="275" type="line"/>
      <point x="82" y="61" type="line" smooth="yes"/>
      <point x="60" y="14"/>
      <point x="49" y="10"/>
      <point x="12" y="10" type="curve" smooth="yes"/>
      <point x="-1" y="10" type="line"/>
    </contour>
  </outline>
</glyph>
<glyph name="y" format="2">
  <advance width="308"/>
  <unicode hex="0079"/>
  <anchor x="44" y="-242" name="bottom"/>
  <anchor x="154" y="527" name="top"/>
  <anchor x="289" y="527" name="topright"/>
  <outline>
    <contour>
      <point x="22" y="527" type="line"/>
      <point x="146" y="13" type="line"/>
      <point x="113" y="-122" type="line" smooth="yes"/>
      <point x="94" y="-199"/>
      <point x="69" y="-216"/>
      <point x="44" y="-216" type="curve" smooth="yes"/>
      <point x="33" y="-216"/>
      <point x="20" y="-212"/>
      <point x="10" y="-206" type="curve"/>
      <point x="10" y="-234" type="line"/>
      <point x="22" y="-239"/>
      <point x="32" y="-242"/>
      <point x="44" y="-242" type="curve" smooth="yes"/>
      <point x="86" y="-242"/>
      <point x="118" y="-213"/>
      <point x="139" y="-125" type="curve" smooth="yes"/>
      <point x="298" y="527" type="line"/>
      <point x="272" y="527" type="line"/>
      <point x="178" y="142" type="line" smooth="yes"/>
      <point x="173" y="120"/>
      <point x="168" y="99"/>
      <point x="160" y="59" type="curve"/>
      <point x="158" y="59" type="line"/>
      <point x="155" y="73"/>
      <point x="156" y="76"/>
      <point x="141" y="140" type="curve" smooth="yes"/>
      <point x="48" y="527" type="line"/>
    </contour>
  </outline>
</glyph>
<glyph name="y.serif" format="2">
  <advance width="417"/>
  <unicode hex="0079"/>
  <anchor x="109" y="-240" name="bottom"/>
  <anchor x="209" y="536" name="top"/>
  <anchor x="407" y="536" name="topright"/>
  <outline>
    <contour>
      <point x="38" y="-230" type="curve"/>
      <point x="38" y="-240" type="line"/>
      <point x="39" y="-240" type="line" smooth="yes"/>
      <point x="141" y="-240"/>
      <point x="187" y="-190"/>
      <point x="229" y="-30" type="curve" smooth="yes"/>
      <point x="354" y="442" type="line" smooth="yes"/>
      <point x="374" y="516"/>
      <point x="377" y="526"/>
      <point x="413" y="526" type="curve" smooth="yes"/>
      <point x="418" y="526" type="line"/>
      <point x="418" y="536" type="line"/>
      <point x="287" y="536" type="line"/>
      <point x="287" y="526" type="line"/>
      <point x="305" y="526" type="line" smooth="yes"/>
      <point x="353" y="526"/>
      <point x="356" y="518"/>
      <point x="356" y="504" type="curve" smooth="yes"/>
      <point x="356" y="489"/>
      <point x="349" y="464"/>
      <point x="341" y="434" type="curve" smooth="yes"/>
      <point x="279" y="200" type="line" smooth="yes"/>
      <point x="260" y="130"/>
      <point x="241" y="57"/>
      <point x="231" y="17" type="curve"/>
      <point x="222" y="55"/>
      <point x="209" y="100"/>
      <point x="171" y="225" type="curve" smooth="yes"/>
      <point x="108" y="433" type="line" smooth="yes"/>
      <point x="97" y="469"/>
      <point x="89" y="494"/>
      <point x="89" y="505" type="curve" smooth="yes"/>
      <point x="89" y="522"/>
      <point x="98" y="526"/>
      <point x="147" y="526" type="curve" smooth="yes"/>
      <point x="150" y="526" type="line"/>
      <point x="150" y="536" type="line"/>
      <point x="7" y="536" type="line"/>
      <point x="7" y="526" type="line"/>
      <point x="8" y="526" type="line" smooth="yes"/>
      <point x="50" y="526"/>
      <point x="52" y="521"/>
      <point x="70" y="463" type="curve" smooth="yes"/>
      <point x="219" y="-25" type="line"/>
      <point x="177" y="-185"/>
      <point x="135" y="-230"/>
    </contour>
  </outline>
</glyph>
<glyph name="z" format="2">
  <advance width="251"/>
  <unicode hex="007A"/>
  <anchor x="126" y="0" name="bottom"/>
  <anchor x="126" y="527" name="top"/>
  <anchor x="232" y="527" name="topright"/>
  <outline>
    <contour>
      <point x="229" y="0" type="line"/>
      <point x="229" y="25" type="line"/>
      <point x="56" y="25" type="line"/>
      <point x="226" y="504" type="line"/>
      <point x="226" y="527" type="line"/>
      <point x="41" y="527" type="line"/>
      <point x="41" y="502" type="line"/>
      <point x="198" y="502" type="line"/>
      <point x="28" y="24" type="line"/>
      <point x="28" y="0" type="line"/>
    </contour>
  </outline>
</glyph>
<glyph name="z.serif" format="2">
  <advance width="375"/>
  <unicode hex="007A"/>
  <anchor x="188" y="0" name="bottom"/>
  <anchor x="188" y="536" name="top"/>
  <anchor x="325" y="536" name="topright"/>
  <outline>
    <contour>
      <point x="50" y="0" type="line"/>
      <point x="308" y="0" type="line"/>
      <point x="313" y="138" type="line"/>
      <point x="303" y="138" type="line"/>
      <point x="301" y="85" type="line" smooth="yes"/>
      <point x="299" y="29"/>
      <point x="292" y="15"/>
      <point x="240" y="15" type="curve" smooth="yes"/>
      <point x="77" y="15" type="line"/>
      <point x="310" y="514" type="line"/>
      <point x="310" y="536" type="line"/>
      <point x="59" y="536" type="line"/>
      <point x="51" y="420" type="line"/>
      <point x="61" y="420" type="line"/>
      <point x="63" y="452" type="line" smooth="yes"/>
      <point x="66" y="507"/>
      <point x="74" y="521"/>
      <point x="126" y="521" type="curve" smooth="yes"/>
      <point x="283" y="521" type="line"/>
      <point x="50" y="22" type="line"/>
    </contour>
  </outline>
</glyph>
<glyph name="braceleft" format="2">
  <advance width="335"/>
  <unicode hex="007B"/>
  <outline>
    <contour>
      <point x="286" y="-158" type="curve"/>
      <point x="286" y="-133" type="line"/>
      <point x="202" y="-133"/>
      <point x="173" y="-105"/>
      <point x="173" y="-11" type="curve" smooth="yes"/>
      <point x="173" y="160" type="line" smooth="yes"/>
      <point x="173" y="236"/>
      <point x="153" y="267"/>
      <point x="106" y="277" type="curve"/>
      <point x="106" y="278" type="line"/>
      <point x="152" y="289"/>
      <point x="173" y="320"/>
      <point x="173" y="393" type="curve" smooth="yes"/>
      <point x="173" y="568" type="line" smooth="yes"/>
      <point x="173" y="661"/>
      <point x="202" y="689"/>
      <point x="286" y="689" type="curve"/>
      <point x="286" y="714" type="line"/>
      <point x="196" y="714"/>
      <point x="146" y="678"/>
      <point x="146" y="577" type="curve" smooth="yes"/>
      <point x="146" y="405" type="line" smooth="yes"/>
      <point x="146" y="309"/>
      <point x="118" y="291"/>
      <point x="50" y="290" type="curve"/>
      <point x="50" y="266" type="line"/>
      <point x="118" y="265"/>
      <point x="146" y="247"/>
      <point x="146" y="148" type="curve" smooth="yes"/>
      <point x="146" y="-19" type="line" smooth="yes"/>
      <point x="146" y="-122"/>
      <point x="196" y="-158"/>
    </contour>
  </outline>
</glyph>
<glyph name="braceleft.serif" format="2">
  <advance width="314"/>
  <unicode hex="007B"/>
  <outline>
    <contour>
      <point x="240" y="-132" type="curve" smooth="yes"/>
      <point x="261" y="-132" type="line"/>
      <point x="261" y="-122" type="line"/>
      <point x="245" y="-122" type="line" smooth="yes"/>
      <point x="196" y="-122"/>
      <point x="174" y="-85"/>
      <point x="174" y="13" type="curve" smooth="yes"/>
      <point x="174" y="188" type="line" smooth="yes"/>
      <point x="174" y="257"/>
      <point x="147" y="303"/>
      <point x="89" y="315" type="curve"/>
      <point x="89" y="317" type="line"/>
      <point x="151" y="331"/>
      <point x="174" y="373"/>
      <point x="174" y="443" type="curve" smooth="yes"/>
      <point x="174" y="614" type="line" smooth="yes"/>
      <point x="174" y="709"/>
      <point x="193" y="750"/>
      <point x="245" y="750" type="curve" smooth="yes"/>
      <point x="261" y="750" type="line"/>
      <point x="261" y="760" type="line"/>
      <point x="238" y="760" type="line" smooth="yes"/>
      <point x="176" y="760"/>
      <point x="146" y="710"/>
      <point x="146" y="621" type="curve" smooth="yes"/>
      <point x="146" y="445" type="line" smooth="yes"/>
      <point x="146" y="356"/>
      <point x="104" y="322"/>
      <point x="53" y="320" type="curve"/>
      <point x="53" y="310" type="line"/>
      <point x="122" y="306"/>
      <point x="146" y="258"/>
      <point x="146" y="185" type="curve" smooth="yes"/>
      <point x="146" y="8" type="line" smooth="yes"/>
      <point x="146" y="-77"/>
      <point x="176" y="-132"/>
    </contour>
  </outline>
</glyph>
<glyph name="bar" format="2">
  <advance width="366"/>
  <unicode hex="007C"/>
  <outline>
    <contour>
      <point x="170" y="761" type="line"/>
      <point x="170" y="-242" type="line"/>
      <point x="196" y="-242" type="line"/>
      <point x="196" y="761" type="line"/>
    </contour>
  </outline>
</glyph>
<glyph name="braceright" format="2">
  <advance width="335"/>
  <unicode hex="007D"/>
  <outline>
    <contour>
      <point x="48" y="-133" type="curve"/>
      <point x="48" y="-158" type="line"/>
      <point x="138" y="-158"/>
      <point x="188" y="-122"/>
      <point x="188" y="-21" type="curve" smooth="yes"/>
      <point x="188" y="151" type="line" smooth="yes"/>
      <point x="188" y="247"/>
      <point x="216" y="265"/>
      <point x="284" y="266" type="curve"/>
      <point x="284" y="290" type="line"/>
      <point x="216" y="291"/>
      <point x="188" y="309"/>
      <point x="188" y="408" type="curve" smooth="yes"/>
      <point x="188" y="575" type="line" smooth="yes"/>
      <point x="188" y="678"/>
      <point x="138" y="714"/>
      <point x="48" y="714" type="curve"/>
      <point x="48" y="689" type="line"/>
      <point x="132" y="689"/>
      <point x="161" y="661"/>
      <point x="161" y="567" type="curve" smooth="yes"/>
      <point x="161" y="396" type="line" smooth="yes"/>
      <point x="161" y="320"/>
      <point x="181" y="289"/>
      <point x="228" y="279" type="curve"/>
      <point x="228" y="278" type="line"/>
      <point x="182" y="267"/>
      <point x="161" y="236"/>
      <point x="161" y="163" type="curve" smooth="yes"/>
      <point x="161" y="-12" type="line" smooth="yes"/>
      <point x="161" y="-105"/>
      <point x="132" y="-133"/>
    </contour>
  </outline>
</glyph>
